<?xml version="1.0" encoding="UTF-8"?>
<svg version="1.1" xmlns="http://www.w3.org/2000/svg" width="521" height="595">
<path d="M0 0 C0.89605957 0.60271729 1.79211914 1.20543457 2.71533203 1.82641602 C4.03576158 2.584057 5.36060063 3.33412598 6.69189453 4.07250977 C7.9102199 4.79933751 9.12630822 5.52992591 10.34033203 6.26391602 C11.80190021 7.13483542 13.2641894 8.00454553 14.72705078 8.87329102 C15.51772949 9.3431543 16.3084082 9.81301758 17.12304688 10.29711914 C22.11137438 13.23994109 27.13387611 16.12375133 32.15283203 19.01391602 C33.25900879 19.65127686 34.36518555 20.2886377 35.50488281 20.9453125 C37.77656868 22.25404018 40.04837958 23.56255086 42.3203125 24.87084961 C47.78703183 28.01973655 53.2510809 31.17324865 58.71533203 34.32641602 C60.88198514 35.57643952 63.04865183 36.82643948 65.21533203 38.07641602 C97.71533203 56.82641602 97.71533203 56.82641602 130.21533203 75.57641602 C131.28799316 76.19524658 132.3606543 76.81407715 133.46582031 77.45166016 C135.63090274 78.7007712 137.79594185 79.94995731 139.9609375 81.19921875 C145.40148909 84.33843911 150.84280419 87.47632164 156.28564453 90.61157227 C167.71374313 97.19646343 179.12463199 103.80876445 190.50756836 110.47143555 C196.00608901 113.68324968 201.52051324 116.86493488 207.05517578 120.01391602 C207.67777283 120.36837296 208.30036987 120.7228299 208.9418335 121.08802795 C211.96348146 122.80757355 214.98699848 124.52369091 218.01367188 126.234375 C219.11791504 126.86158447 220.2221582 127.48879395 221.35986328 128.13500977 C222.32255127 128.67955811 223.28523926 129.22410645 224.27709961 129.78515625 C225.41171631 130.45877197 226.54633301 131.1323877 227.71533203 131.82641602 C228.60383551 132.26240398 229.49233899 132.69839193 230.40776682 133.14759165 C238.07963769 137.27477619 238.07963769 137.27477619 239.74480247 141.33920753 C240.14334948 144.42784412 240.19199743 147.35813892 240.12561035 150.47203064 C240.15346689 152.22437927 240.15346689 152.22437927 240.1818862 154.01212889 C240.22197155 157.24323281 240.21292253 160.46982634 240.18262148 163.70089805 C240.16181291 167.18931965 240.20434553 170.67706209 240.23855591 174.16529846 C240.29514041 180.99407561 240.29205377 187.82157283 240.2670669 194.65049022 C240.24767968 200.2014814 240.24905531 205.7521037 240.2651825 211.30310249 C240.26857701 212.48884515 240.26857701 212.48884515 240.2720401 213.6985422 C240.27670175 215.30450771 240.28139952 216.91047313 240.28613299 218.51643843 C240.32783267 233.5715305 240.30058285 248.62590564 240.25076073 263.68093348 C240.20979542 276.59279771 240.23236815 289.50330625 240.30029297 302.41503906 C240.37919808 317.41523004 240.41531029 332.41457776 240.38585615 347.41497523 C240.38285546 349.01528795 240.37992313 350.6156008 240.37705994 352.21591377 C240.37564433 353.0032587 240.37422872 353.79060362 240.37277022 354.60180749 C240.3658568 360.14429074 240.38981048 365.68614546 240.42604065 371.22849846 C240.46953068 377.98618716 240.46695123 384.74197711 240.40549511 391.49955767 C240.37534436 394.94671469 240.3658458 398.3905718 240.41304398 401.83761215 C240.6286789 421.99760466 240.6286789 421.99760466 237.46573257 426.6739018 C234.04397098 429.94026134 230.16529591 431.30918436 225.71533203 432.82641602 C223.53224314 434.03726482 221.36846672 435.2842635 219.23486328 436.58032227 C217.00032518 437.8518572 214.76460902 439.12132368 212.52783203 440.38891602 C210.05976451 441.79277629 207.59267839 443.19835822 205.12548828 444.60375977 C204.5058017 444.95647949 203.88611511 445.30919922 203.24765015 445.67260742 C196.97465797 449.24434788 190.71756553 452.84346753 184.46533203 456.45141602 C183.39500732 457.06903809 182.32468262 457.68666016 181.22192383 458.32299805 C174.08185321 462.44808323 166.95835021 466.60092527 159.84033203 470.76391602 C150.57027688 476.18553097 141.25701553 481.52846459 131.92687988 486.84564209 C122.80250363 492.0468673 113.71400429 497.30669479 104.6484375 502.60986328 C94.12448578 508.76408343 83.56153066 514.85011598 72.99755859 520.93530273 C67.56873261 524.0632175 62.14213922 527.19500049 56.71533203 530.32641602 C54.5486762 531.57643481 52.38200953 532.8264348 50.21533203 534.07641602 C48.60658203 535.00454102 48.60658203 535.00454102 46.96533203 535.95141602 C43.71533203 537.82641602 40.46533203 539.70141602 37.21533203 541.57641602 C36.14162354 542.19685791 35.06791504 542.8172998 33.96166992 543.45654297 C31.81068212 544.69550029 29.65624814 545.9284952 27.49829102 547.15527344 C22.41080348 550.05707124 17.37928759 553.00591577 12.45669556 556.17861938 C10.13859935 557.66758133 7.8000688 559.12257274 5.45922852 560.57543945 C3.81984996 561.61233984 2.21126712 562.69743188 0.60400391 563.78344727 C-2.40291267 565.63742281 -4.84520464 567.0099968 -8.28466797 567.82641602 C-12.55797168 566.64893446 -15.72252658 564.40359868 -19.28466797 561.82641602 C-20.66086005 561.04248552 -22.04935459 560.27950309 -23.45263672 559.54516602 C-32.95188283 554.31318688 -42.33949181 548.90559324 -51.69555664 543.42211914 C-59.52829777 538.83638067 -67.39825419 534.31886012 -75.28466797 529.82641602 C-85.00610502 524.28689763 -94.69362114 518.69266407 -104.3515625 513.04296875 C-114.87551422 506.8887486 -125.43846934 500.80271606 -136.00244141 494.7175293 C-141.43126739 491.58961453 -146.85786078 488.45783154 -152.28466797 485.32641602 C-154.4513238 484.07639723 -156.61799047 482.82639723 -158.78466797 481.57641602 C-171.78466797 474.07641602 -184.78466797 466.57641602 -197.78466797 459.07641602 C-198.85821533 458.45710205 -199.9317627 457.83778809 -201.0378418 457.19970703 C-203.1940701 455.9556481 -205.35015846 454.71134659 -207.50610352 453.46679688 C-212.49873749 450.58510942 -217.49254313 447.7055448 -222.49172974 444.8352356 C-224.23491529 443.83421791 -225.97763169 442.83238819 -227.72021484 441.83032227 C-229.88596415 440.58523562 -232.05255668 439.34161391 -234.22021484 438.09985352 C-236.17311495 436.97633632 -238.11083236 435.82581225 -240.02874184 434.64355469 C-243.21479243 432.73659871 -243.21479243 432.73659871 -246.65941429 431.68164062 C-250.74948904 430.01268586 -253.76341795 428.53487638 -256.28466797 424.82641602 C-258.74437086 416.87418919 -258.08701695 408.06433943 -257.98408866 399.83586836 C-257.95459166 396.34809588 -258.00011422 392.86116848 -258.03582764 389.37356567 C-258.09356384 382.54805153 -258.08118454 375.72439793 -258.0434633 368.89881158 C-258.01407415 363.35067012 -258.01013485 357.8030493 -258.02427292 352.25485229 C-258.02726096 351.06931288 -258.02726096 351.06931288 -258.03030937 349.85982317 C-258.0344659 348.25409914 -258.03868068 346.64837526 -258.04295306 345.04265153 C-258.08000221 329.99409215 -258.03743572 314.94656311 -257.9675483 299.89817274 C-257.90946732 286.99255309 -257.9195563 274.08845355 -257.97949219 261.18286133 C-258.04910152 246.18738189 -258.07643189 231.19280491 -258.03653276 216.19718647 C-258.03239173 214.59745103 -258.02830491 212.99771545 -258.02427292 211.39797974 C-258.02226734 210.6109298 -258.02026176 209.82387986 -258.0181954 209.01297992 C-258.00698205 203.4730219 -258.02589132 197.93363748 -258.05650711 192.39376831 C-258.09301347 185.63970352 -258.08301747 178.88760169 -258.01385744 172.13376117 C-257.97973912 168.68866314 -257.9662027 165.24683363 -258.00929642 161.80176163 C-258.20075605 141.65523839 -258.20075605 141.65523839 -255.0337348 136.97959709 C-251.61157971 133.71489316 -247.73359435 132.34451547 -243.28466797 130.82641602 C-241.10161363 129.61550492 -238.93784465 128.36849939 -236.80419922 127.07250977 C-234.56967095 125.80095756 -232.33395411 124.53149219 -230.09716797 123.26391602 C-227.626492 121.85876124 -225.15678691 120.45190329 -222.68701172 119.04516602 C-222.06691223 118.69223984 -221.44681274 118.33931366 -220.80792236 117.97569275 C-214.57828712 114.42857546 -208.36716576 110.84961937 -202.15966797 107.26391602 C-201.09594971 106.64959717 -200.03223145 106.03527832 -198.9362793 105.40234375 C-196.7915721 104.16349378 -194.64695917 102.9244806 -192.50244141 101.68530273 C-187.09796148 98.56316994 -181.6911669 95.44505075 -176.28466797 92.32641602 C-175.21345703 91.70831055 -174.14224609 91.09020508 -173.03857422 90.45336914 C-167.59820722 87.31419228 -162.15703842 84.17641973 -156.71435547 81.04125977 C-146.26260597 75.01894273 -135.82167249 68.97972264 -125.40966797 62.88891602 C-116.1396702 57.46720424 -106.82635045 52.12436686 -97.49621582 46.80718994 C-88.37183957 41.60596473 -79.28334023 36.34613724 -70.21777344 31.04296875 C-65.12693062 28.06593424 -60.03158504 25.09720305 -54.92529297 22.14672852 C-53.31702637 21.21715332 -53.31702637 21.21715332 -51.67626953 20.26879883 C-49.51002358 19.02215504 -47.3401216 17.78184137 -45.16650391 16.5480957 C-40.04732408 13.63315643 -34.98601895 10.67313308 -30.04275513 7.46968079 C-27.73744621 5.98080793 -25.41065935 4.52755034 -23.08148193 3.0763855 C-21.45285222 2.04136042 -19.85656448 0.95598923 -18.26171875 -0.13037109 C-10.9031943 -4.68189519 -7.37881453 -4.51474045 0 0 Z " fill="#80C341" transform="translate(269.28466796875,16.173583984375)"/>
<path d="M0 0 C10.58477208 4.56926795 17.3419936 16.47609318 21.5078125 26.67578125 C25.16675653 36.04376411 27.91543526 45.43183852 29.99609375 55.265625 C30.39485743 58.26292999 30.39485743 58.26292999 31.72265625 59.4140625 C33.37587891 58.92486328 33.37587891 58.92486328 35.0625 58.42578125 C78.73494174 45.73352341 78.73494174 45.73352341 96.72265625 55.4140625 C101.08044807 58.10291277 104.03533907 61.55061887 105.72265625 66.4140625 C107.65844415 78.98690717 101.64198271 90.31457882 94.72265625 100.4140625 C78.52096405 121.5149086 78.52096405 121.5149086 70.72265625 125.4140625 C72.16511596 128.77980183 73.80612425 131.16416639 76.72265625 133.4140625 C79.03758296 133.20352859 79.03758296 133.20352859 81.72265625 132.4140625 C87.73862585 131.65342267 91.94940882 132.31191734 96.92578125 135.875 C100.62553976 139.04392359 103.29124415 141.87536822 104.12890625 146.8046875 C104.28997099 151.18027954 103.88505335 154.37990404 101.91015625 158.2890625 C100.65629669 161.15338388 100.62724581 162.12783118 101.63671875 165.15625 C102.58244184 167.19034716 103.53444386 169.22153493 104.4921875 171.25 C106.8838532 177.39999752 106.62314603 183.5536832 104.66015625 189.7890625 C100.21064739 195.81742935 95.08664911 199.58189086 87.72265625 201.4140625 C83.71402916 201.8322325 79.7500089 201.84188124 75.72265625 201.7890625 C74.61414307 201.77963623 73.50562988 201.77020996 72.36352539 201.76049805 C57.75013302 201.49364017 44.4936259 198.04711479 30.72265625 193.4140625 C30.60873535 194.02427246 30.49481445 194.63448242 30.37744141 195.26318359 C26.53951506 215.20130645 20.2992292 238.92108842 3.53515625 251.9765625 C-1.87399089 255.2811268 -7.11948953 255.50916653 -13.27734375 254.4140625 C-23.47695628 250.71472117 -29.77343113 240.47519744 -34.33227539 231.20947266 C-37.07764366 225.28557953 -39.20938232 219.1850868 -41.21484375 212.9765625 C-41.5094751 212.06559814 -41.80410645 211.15463379 -42.10766602 210.21606445 C-43.83714176 204.59205794 -44.80591894 199.28001932 -45.27734375 193.4140625 C-45.86636475 193.58534668 -46.45538574 193.75663086 -47.06225586 193.93310547 C-49.77895502 194.72131812 -52.49688328 195.50521072 -55.21484375 196.2890625 C-56.14103516 196.55847656 -57.06722656 196.82789063 -58.02148438 197.10546875 C-60.76812063 197.89572901 -63.52040354 198.66060356 -66.27734375 199.4140625 C-67.0058252 199.62144043 -67.73430664 199.82881836 -68.48486328 200.04248047 C-75.35353213 201.81252641 -82.21839244 201.78160061 -89.27734375 201.7890625 C-90.49679688 201.81355469 -91.71625 201.83804688 -92.97265625 201.86328125 C-101.84094538 201.89201221 -107.71753158 200.28872669 -115.15234375 195.6015625 C-119.76932947 190.84878309 -120.48954633 186.47505887 -120.71484375 180.0390625 C-120.62183097 174.64432122 -119.50838519 171.01195241 -117.0390625 166.28125 C-116.01307912 164.28476607 -116.01307912 164.28476607 -116.96484375 161.5390625 C-117.39796875 160.8378125 -117.83109375 160.1365625 -118.27734375 159.4140625 C-119.82001391 154.78605202 -119.78282406 150.24728524 -119.27734375 145.4140625 C-117.52734375 141.9765625 -117.52734375 141.9765625 -115.27734375 139.4140625 C-114.63796875 138.6715625 -113.99859375 137.9290625 -113.33984375 137.1640625 C-108.45686946 133.0209328 -103.43036878 132.94075288 -97.27734375 133.4140625 C-96.41109375 133.7234375 -95.54484375 134.0328125 -94.65234375 134.3515625 C-92.18920595 134.67265421 -92.18920595 134.67265421 -90.421875 132.921875 C-88.63079818 131.14152319 -86.92951074 129.32333905 -85.27734375 127.4140625 C-88.58852368 123.34604145 -92.06890855 119.61688921 -95.84277344 115.9831543 C-107.82608608 104.37670816 -120.23620543 89.9722083 -121.02734375 72.6015625 C-120.77474577 66.90342195 -119.95605997 63.14058278 -116.04296875 58.92578125 C-106.53841107 50.78802943 -95.32929652 50.82255562 -83.27734375 51.4140625 C-75.89178055 52.12250981 -68.68687759 53.69982311 -61.46484375 55.3515625 C-60.77148926 55.50915039 -60.07813477 55.66673828 -59.36376953 55.82910156 C-54.49672876 56.98974832 -49.93434116 58.58359655 -45.27734375 60.4140625 C-43.709482 52.5845368 -43.709482 52.5845368 -45.51171875 45.1328125 C-47.10108645 43.34379364 -47.10108645 43.34379364 -48.83203125 41.87890625 C-51.50090022 39.17397148 -51.46809524 35.69151792 -51.58984375 32.0390625 C-51.52168901 27.4196854 -50.34479199 24.96584468 -47.27734375 21.4140625 C-42.95596546 17.34623447 -40.14099481 15.27478492 -34.15234375 15.3515625 C-33.24226563 15.36058594 -32.3321875 15.36960938 -31.39453125 15.37890625 C-30.34652344 15.39630859 -30.34652344 15.39630859 -29.27734375 15.4140625 C-29.02597656 14.67414063 -28.77460938 13.93421875 -28.515625 13.171875 C-27.18498663 10.20837124 -25.77926634 8.54595643 -23.46484375 6.2890625 C-22.79839844 5.62648437 -22.13195312 4.96390625 -21.4453125 4.28125 C-14.92962033 -1.33046325 -8.32019962 -2.14070316 0 0 Z " fill="#FBFDFA" transform="translate(268.27734375,124.5859375)"/>
<path d="M0 0 C2.4284668 1.10400391 2.4284668 1.10400391 4.94921875 2.4765625 C5.88056641 2.98316406 6.81191406 3.48976562 7.77148438 4.01171875 C8.73376953 4.54410156 9.69605469 5.07648438 10.6875 5.625 C11.63044922 6.13417969 12.57339844 6.64335937 13.54492188 7.16796875 C16.39392368 8.73051407 19.19869599 10.35366666 22 12 C23.43593506 12.79615723 23.43593506 12.79615723 24.90087891 13.60839844 C31.49237433 17.6085763 31.49237433 17.6085763 32.83813477 21.29736328 C33.13210215 23.91400737 33.11977855 26.37071479 33 29 C33.03977556 30.73969192 33.08406072 32.47928648 33.1328125 34.21875 C33.13542052 35.97916666 33.13280089 37.73959869 33.125 39.5 C33.12886719 40.37269531 33.13273437 41.24539062 33.13671875 42.14453125 C33.13283557 44.7656766 33.07605841 47.3800201 33 50 C32.98658569 51.34976929 32.98658569 51.34976929 32.97290039 52.72680664 C32.68231332 59.28948295 32.68231332 59.28948295 29.54296875 62.55859375 C28.43566406 63.17863281 27.32835937 63.79867187 26.1875 64.4375 C25.58309082 64.78603027 24.97868164 65.13456055 24.35595703 65.49365234 C23.00885963 66.26260787 21.65205032 67.01471996 20.28759766 67.75244141 C17.750371 69.13613705 15.2576315 70.58614843 12.76171875 72.04296875 C10.96761333 73.07287313 9.17204848 74.10023952 7.375 75.125 C6.07792114 75.87221313 6.07792114 75.87221313 4.75463867 76.63452148 C3.93584229 77.08770752 3.1170459 77.54089355 2.2734375 78.0078125 C1.54560059 78.41660645 0.81776367 78.82540039 0.06787109 79.24658203 C-2.45665696 80.16638056 -3.5110532 79.9317229 -6 79 C-8.61929897 77.73362087 -11.18444791 76.42970006 -13.75 75.0625 C-14.40871094 74.72154297 -15.06742188 74.38058594 -15.74609375 74.02929688 C-17.2338777 73.2414039 -18.70384313 72.41939487 -20.15942383 71.57348633 C-22.44341142 70.30831228 -24.68960842 69.23463866 -27.06518555 68.16674805 C-37.57396538 63.06833799 -37.57396538 63.06833799 -39.98138428 57.88839722 C-41.63334001 51.89017033 -41.53005458 45.85844749 -41.3125 39.6875 C-41.30205658 38.76036194 -41.29161316 37.83322388 -41.28085327 36.87799072 C-41.0106944 22.20250081 -41.0106944 22.20250081 -37.078125 15.93896484 C-32.34497209 11.38310926 -26.81364557 9.03806714 -20.65478516 6.95117188 C-16.9354379 5.6185825 -13.86374532 3.68902827 -10.5 1.625 C-6.35285102 -0.72728074 -4.57549821 -1.237237 0 0 Z " fill="#81C342" transform="translate(264,212)"/>
<path d="M0 0 C1.32692871 -0.02090698 1.32692871 -0.02090698 2.68066406 -0.04223633 C9.31357898 0.00629412 13.80323406 1.32579106 19.4375 4.9375 C22.00258107 8.93902647 21.64383911 12.76856346 21 17.375 C18.13014143 28.34499192 10.73660532 36.83664246 3.19921875 44.98828125 C1.18042923 47.17918782 -0.75846006 49.41779076 -2.6875 51.6875 C-5.58716838 54.9899001 -8.37016308 57.87444568 -12 60.375 C-16.71607157 60.12894409 -20.28469402 56.26939051 -23.77880859 53.40600586 C-26.54828284 51.16668369 -28.93939684 49.40333587 -32.19140625 47.8828125 C-35.92636689 46.04268542 -37.61813563 44.85226723 -40 41.375 C-42.78981187 30.74928384 -43.07055987 19.31484727 -43 8.375 C-28.71647659 3.95182812 -15.04599885 0.15275788 0 0 Z " fill="#81C342" transform="translate(344,184.625)"/>
<path d="M0 0 C1.25079346 0.0141394 1.25079346 0.0141394 2.52685547 0.02856445 C16.98454983 0.37214344 30.47616016 4.03336173 44.1875 8.375 C45.22217405 12.34610813 45.05246254 15.29338841 44.3125 19.3125 C43.26558995 25.32710085 42.91516004 31.18118812 42.82421875 37.28125 C41.5339484 43.55053908 35.85442252 46.45321433 30.8125 49.8125 C27.04775838 52.33255036 23.48778506 54.8814487 20.1875 58 C17.1875 60.375 17.1875 60.375 14.8671875 60.37109375 C11.1975164 59.00700318 8.94373663 56.60007692 6.3125 53.8125 C5.78366211 53.26601807 5.25482422 52.71953613 4.70996094 52.15649414 C3.18905169 50.5747392 1.68520443 48.97870873 0.1875 47.375 C-0.49054688 46.653125 -1.16859375 45.93125 -1.8671875 45.1875 C-9.9939644 36.19935965 -19.64359592 25.11889648 -20.4375 12.5 C-20.22172811 9.14354845 -19.79463661 8.35083188 -17.6875 5.5 C-11.71949636 1.08886687 -7.2517299 -0.1279369 0 0 Z " fill="#81C342" transform="translate(175.8125,184.625)"/>
<path d="M0 0 C1.05316406 0.4434375 2.10632813 0.886875 3.19140625 1.34375 C4.28066406 1.8078125 5.36992187 2.271875 6.4921875 2.75 C8.66109835 3.6675181 10.83035351 4.58422283 13 5.5 C13.95793457 5.90734375 14.91586914 6.3146875 15.90283203 6.734375 C17.69779006 7.4741239 19.52539694 8.13606981 21.3671875 8.75 C20.10682523 17.02527333 17.95324348 24.79838693 15.3671875 32.75 C15.14289063 33.51957031 14.91859375 34.28914063 14.6875 35.08203125 C11.44829023 45.85940203 6.30488069 56.94931189 -2.5703125 64.125 C-6.06662989 65.98018882 -7.74007888 66.39878894 -11.6328125 65.75 C-21.91967339 60.71600425 -26.40619401 49.73356437 -30.6328125 39.75 C-31.37724609 38.11804688 -31.37724609 38.11804688 -32.13671875 36.453125 C-33.90452472 32.07745904 -35.14040734 27.68777526 -36.3203125 23.125 C-36.65772461 21.87589844 -36.65772461 21.87589844 -37.00195312 20.6015625 C-37.21400391 19.79203125 -37.42605469 18.9825 -37.64453125 18.1484375 C-37.83490967 17.42317871 -38.02528809 16.69791992 -38.22143555 15.95068359 C-38.67779097 13.50938523 -38.70160283 11.22808336 -38.6328125 8.75 C-37.92672852 8.45754395 -37.22064453 8.16508789 -36.49316406 7.86376953 C-33.28909114 6.53567551 -30.08594417 5.20536247 -26.8828125 3.875 C-25.21605469 3.18470703 -25.21605469 3.18470703 -23.515625 2.48046875 C-22.44570312 2.03574219 -21.37578125 1.59101563 -20.2734375 1.1328125 C-18.79665527 0.52010498 -18.79665527 0.52010498 -17.29003906 -0.10498047 C-14.68429815 -1.16026236 -14.68429815 -1.16026236 -12.59277344 -2.46142578 C-8.30608021 -4.18614167 -4.00228418 -1.69789804 0 0 Z " fill="#81C342" transform="translate(269.6328125,305.25)"/>
<path d="M0 0 C3.05589795 1.52794897 5.26157295 2.84450673 7.8984375 4.8984375 C8.62546875 5.46046875 9.3525 6.0225 10.1015625 6.6015625 C10.85179687 7.18679688 11.60203125 7.77203125 12.375 8.375 C13.86057802 9.53044957 15.34753197 10.68413251 16.8359375 11.8359375 C17.89699707 12.65723145 17.89699707 12.65723145 18.97949219 13.49511719 C20.77072662 14.82923621 22.58598972 16.04029863 24.4765625 17.2265625 C27 19 27 19 28 22 C28.28355696 23.94217829 28.52981888 25.8899089 28.75390625 27.83984375 C28.88603516 28.98517578 29.01816406 30.13050781 29.15429688 31.31054688 C29.28900391 32.50744141 29.42371094 33.70433594 29.5625 34.9375 C29.77036133 36.72704102 29.77036133 36.72704102 29.98242188 38.55273438 C31 47.47032789 31 47.47032789 31 52 C28.84723255 52.71758915 26.69415842 53.43395009 24.5390625 54.14453125 C23.00532247 54.66128366 21.47705764 55.19535203 19.9609375 55.76171875 C9.28193782 59.65811052 -1.73958079 61.26567983 -13.0625 61.375 C-14.23981689 61.39566528 -14.23981689 61.39566528 -15.44091797 61.41674805 C-22.15273337 61.36288691 -26.86476627 59.95351171 -31.9375 55.3125 C-34.95268165 50.46993554 -34.65827215 47.03858423 -33.51171875 41.74609375 C-32.64103255 39.25012663 -31.93997476 37.81216466 -30 36 C-26.95233741 35.34092638 -24.0952974 35.24797851 -20.98046875 35.1796875 C-16.5014601 34.90965552 -14.51708079 33.78435563 -11 31 C-7.20038706 26.12870136 -6.56642238 22.54195919 -6.6640625 16.4296875 C-6.97110142 13.49049191 -6.97110142 13.49049191 -9 9 C-6.03 6.03 -3.06 3.06 0 0 Z " fill="#81C343" transform="translate(190,257)"/>
<path d="M0 0 C13.6946245 12.78407765 19.32244763 35.15948734 22 53.125 C19.5449854 54.2497644 17.08709138 55.36733904 14.625 56.4765625 C11.88509458 57.72251087 9.15981504 58.99015715 6.4375 60.2734375 C4.83350565 61.01599732 3.22933872 61.75818449 1.625 62.5 C0.85236816 62.86996094 0.07973633 63.23992187 -0.71630859 63.62109375 C-1.45703613 63.96011719 -2.19776367 64.29914063 -2.9609375 64.6484375 C-3.61884277 64.95700684 -4.27674805 65.26557617 -4.95458984 65.58349609 C-9.40285247 66.76113354 -13.38034421 64.66430336 -17.4140625 62.875 C-18.92613281 62.20984375 -18.92613281 62.20984375 -20.46875 61.53125 C-21.5103125 61.0671875 -22.551875 60.603125 -23.625 60.125 C-25.7000572 59.20728429 -27.77555817 58.29057114 -29.8515625 57.375 C-30.76760254 56.96765625 -31.68364258 56.5603125 -32.62744141 56.140625 C-35.0764593 55.05361101 -35.0764593 55.05361101 -38 54.125 C-37.43393721 49.43476546 -36.81462495 44.77999974 -36 40.125 C-35.41992188 40.02703125 -34.83984375 39.9290625 -34.2421875 39.828125 C-27.85775751 38.60602289 -23.1204024 37.02288328 -19.125 31.5625 C-17.36942552 26.19824465 -16.67428883 20.29867218 -18.90234375 14.96484375 C-19.88370828 13.31992313 -20.93751522 11.71872717 -22 10.125 C-22 5.76404993 -19.72252763 4.05459425 -16.86328125 0.9375 C-11.67706057 -4.10737714 -6.00699935 -3.75437459 0 0 Z " fill="#81C343" transform="translate(269,134.875)"/>
<path d="M0 0 C1.32176485 0.90325616 2.63215066 1.82317903 3.9375 2.75 C4.66839844 3.26046875 5.39929688 3.7709375 6.15234375 4.296875 C8.2274554 6.2096629 8.73431079 7.21874274 9 10 C8.67 10.66 8.34 11.32 8 12 C7.22717756 18.81604057 7.89463887 24.39236161 12 30 C15.99325658 33.99325658 19.21570601 34.15500656 24.625 34.3125 C30.47032704 34.62576154 30.47032704 34.62576154 32.73046875 36.22265625 C35.94357157 41.12930785 35.81821828 47.37692544 35 53 C33.49201299 56.29015348 32.23273706 57.41011605 29 58.95703125 C11.14646754 65.38782666 -10.77299617 58.99049348 -28 53 C-28.33 52.67 -28.66 52.34 -29 52 C-28.91872319 48.36129988 -28.51237362 44.75092896 -28.16943359 41.12890625 C-27.98447521 38.8049335 -27.8911179 36.48574335 -27.80078125 34.15625 C-27.16895437 21.76086765 -27.16895437 21.76086765 -24.46484375 17.6875 C-22.09345349 15.85983892 -19.60029275 14.48919827 -17 13 C-13.92682786 10.75482906 -10.93737592 8.40427639 -7.9375 6.0625 C-6.42719496 4.90570402 -4.91558046 3.75061459 -3.40234375 2.59765625 C-2.74741943 2.09758057 -2.09249512 1.59750488 -1.41772461 1.08227539 C-0.94987549 0.72512451 -0.48202637 0.36797363 0 0 Z " fill="#81C342" transform="translate(330,257)"/>
<path d="M0 0 C14 0 14 0 19 3 C20.40783127 5.81566255 20.2076814 8.2363707 20.25 11.375 C20.27578125 12.51710938 20.3015625 13.65921875 20.328125 14.8359375 C19.96572554 18.33050375 19.0842033 19.31143423 17 22 C16.99236499 24.18769821 16.99236499 24.18769821 17.6875 26.375 C17.99880859 27.55255859 17.99880859 27.55255859 18.31640625 28.75390625 C18.88372723 30.61796091 19.49840484 32.46752537 20.125 34.3125 C21 37 21 37 21 41 C19.02 41 17.04 41 15 41 C14.16080602 38.73117913 13.32848276 36.46022973 12.5 34.1875 C12.26152344 33.54490234 12.02304687 32.90230469 11.77734375 32.24023438 C10.72931254 29.35066261 10 27.09923939 10 24 C8.68 24 7.36 24 6 24 C6 29.94 6 35.88 6 42 C4.02 42 2.04 42 0 42 C0 28.14 0 14.28 0 0 Z " fill="#F9FBF5" transform="translate(342,415)"/>
<path d="M0 0 C1.98 0 3.96 0 6 0 C7.14928044 3.08205942 8.29381663 6.16585971 9.4375 9.25 C9.76298828 10.12269531 10.08847656 10.99539063 10.42382812 11.89453125 C10.73642578 12.73886719 11.04902344 13.58320313 11.37109375 14.453125 C11.65911865 15.22817383 11.94714355 16.00322266 12.24389648 16.80175781 C12.94235233 18.83239922 13.47917796 20.91671186 14 23 C14.33 15.41 14.66 7.82 15 0 C16.98 0 18.96 0 21 0 C21 13.86 21 27.72 21 42 C19.02 42 17.04 42 15 42 C14.22487453 40.1893314 13.45515813 38.37634709 12.6875 36.5625 C12.25824219 35.55316406 11.82898438 34.54382813 11.38671875 33.50390625 C9.76128702 29.39682946 8.39678589 25.19035766 7 21 C6.67 27.93 6.34 34.86 6 42 C4.02 42 2.04 42 0 42 C0 28.14 0 14.28 0 0 Z " fill="#F9FBF5" transform="translate(166,415)"/>
<path d="M0 0 C1.98 0 3.96 0 6 0 C6.33 11.22 6.66 22.44 7 34 C8.32 34.33 9.64 34.66 11 35 C12.97829072 33.02170928 12.25503932 29.17672973 12.31640625 26.46484375 C12.33718735 25.71159317 12.35796844 24.95834259 12.37937927 24.18226624 C12.44495425 21.7674401 12.50379621 19.35250202 12.5625 16.9375 C12.6056777 15.30402471 12.64929173 13.6705609 12.69335938 12.03710938 C12.80064362 8.02485536 12.90188821 4.01248836 13 0 C14.98 0 16.96 0 19 0 C19.07433779 4.89295147 19.12869027 9.78557183 19.16479492 14.67895508 C19.17985114 16.34242481 19.20030063 18.00585505 19.22631836 19.66918945 C19.26284207 22.06471522 19.27975782 24.45971467 19.29296875 26.85546875 C19.30845261 27.5952446 19.32393646 28.33502045 19.33988953 29.09721375 C19.34134432 33.59366278 18.80390758 36.445595 16 40 C12.2626144 42.4915904 10.42668417 42.45793285 6 42 C3.24670979 40.20437595 1.47372539 38.94745078 0 36 C-0.08675538 33.30106819 -0.11557897 30.62830769 -0.09765625 27.9296875 C-0.0962413 27.13345978 -0.09482635 26.33723206 -0.09336853 25.51687622 C-0.08776345 22.9695462 -0.07521014 20.42230353 -0.0625 17.875 C-0.05748565 16.14974085 -0.05292263 14.42448033 -0.04882812 12.69921875 C-0.03779237 8.46611209 -0.02052436 4.23307086 0 0 Z " fill="#FBFDF9" transform="translate(198,415)"/>
<path d="M0 0 C1.98 0 3.96 0 6 0 C7.14778264 4.87273417 8.28682303 9.7474003 9.41796875 14.62402344 C9.80361848 16.28115255 10.19161079 17.93773838 10.58203125 19.59375 C11.14426242 21.98036394 11.69791446 24.36883393 12.25 26.7578125 C12.42499023 27.49242706 12.59998047 28.22704163 12.78027344 28.98391724 C13.71432705 33.06775893 14.18433177 36.81221263 14 41 C12.02 41 10.04 41 8 41 C7.67 38.36 7.34 35.72 7 33 C4.36 33 1.72 33 -1 33 C-1.33 35.64 -1.66 38.28 -2 41 C-4.31 41 -6.62 41 -9 41 C-6.65152872 27.17698044 -3.35486637 13.60828861 0 0 Z " fill="#FAFCF8" transform="translate(319,415)"/>
<path d="M0 0 C5.94 0 11.88 0 18 0 C18 1.98 18 3.96 18 6 C14.37 6 10.74 6 7 6 C7 9.63 7 13.26 7 17 C10.3 17 13.6 17 17 17 C17 19.31 17 21.62 17 24 C13.7 24 10.4 24 7 24 C7 27.63 7 31.26 7 35 C10.63 35 14.26 35 18 35 C18 37.31 18 39.62 18 42 C12.06 42 6.12 42 0 42 C0 28.14 0 14.28 0 0 Z " fill="#F2F8EB" transform="translate(285,415)"/>
<path d="M0 0 C3.66262449 0.81465246 5.13193418 2.40542239 7.16015625 5.48046875 C7.47265625 9.29296875 7.47265625 9.29296875 7.16015625 12.48046875 C5.18015625 12.48046875 3.20015625 12.48046875 1.16015625 12.48046875 C0.83015625 10.83046875 0.50015625 9.18046875 0.16015625 7.48046875 C-1.48984375 7.48046875 -3.13984375 7.48046875 -4.83984375 7.48046875 C-4.83984375 16.39046875 -4.83984375 25.30046875 -4.83984375 34.48046875 C-3.51984375 34.81046875 -2.19984375 35.14046875 -0.83984375 35.48046875 C-0.17984375 33.83046875 0.48015625 32.18046875 1.16015625 30.48046875 C3.14015625 30.48046875 5.12015625 30.48046875 7.16015625 30.48046875 C7.51687558 34.31520159 7.45787041 36.0338975 5.28515625 39.29296875 C2.56835051 42.08968054 1.76402523 42.42349998 -2.15234375 42.79296875 C-6.42761721 42.43065744 -7.88812202 41.51900583 -10.83984375 38.48046875 C-12.53172097 33.4048371 -12.14392033 28.02375045 -12.18994141 22.71142578 C-12.20650263 21.31086614 -12.233796 19.91039109 -12.27197266 18.51025391 C-12.32692882 16.4816548 -12.3486368 14.45502578 -12.36328125 12.42578125 C-12.39301025 10.60844482 -12.39301025 10.60844482 -12.42333984 8.75439453 C-11.17299456 1.73885885 -6.4952368 -0.40120828 0 0 Z " fill="#FCFDFA" transform="translate(239.83984375,414.51953125)"/>
<path d="M0 0 C1.98 0 3.96 0 6 0 C6 11.55 6 23.1 6 35 C9.96 35 13.92 35 18 35 C18 37.31 18 39.62 18 42 C12.06 42 6.12 42 0 42 C0 28.14 0 14.28 0 0 Z " fill="#F9FCF6" transform="translate(258,415)"/>
<path d="M0 0 C0 9.57 0 19.14 0 29 C-10.125 22.25 -10.125 22.25 -14.5625 18.625 C-15.40941406 17.93664062 -16.25632813 17.24828125 -17.12890625 16.5390625 C-17.74636719 16.03117187 -18.36382812 15.52328125 -19 15 C-4.9375 0 -4.9375 0 0 0 Z " fill="#87C64C" transform="translate(217,237)"/>
<path d="M0 0 C10.125 6.75 10.125 6.75 14.5625 10.375 C15.40941406 11.06335938 16.25632812 11.75171875 17.12890625 12.4609375 C17.74636719 12.96882812 18.36382812 13.47671875 19 14 C15.4944222 17.64813364 11.8750037 20.76940717 7.8125 23.8125 C6.76707031 24.60269531 5.72164063 25.39289063 4.64453125 26.20703125 C2 28 2 28 0 28 C0 18.76 0 9.52 0 0 Z " fill="#84C447" transform="translate(305,237)"/>
<path d="M0 0 C1.23107719 7.72720775 2.2700558 15.1683819 2 23 C1.35675781 22.64808594 0.71351563 22.29617187 0.05078125 21.93359375 C-7.28379793 17.92625591 -14.63774607 13.95618733 -22 10 C-22 9.34 -22 8.68 -22 8 C-18.89954577 6.65791246 -15.79407011 5.32786246 -12.6875 4 C-11.80642578 3.6184375 -10.92535156 3.236875 -10.01757812 2.84375 C-9.17001953 2.4828125 -8.32246094 2.121875 -7.44921875 1.75 C-6.66893311 1.41484375 -5.88864746 1.0796875 -5.0847168 0.734375 C-3 0 -3 0 0 0 Z " fill="#85C548" transform="translate(293,197)"/>
<path d="M0 0 C-0.11464015 2.70912781 -0.24137154 5.41679661 -0.375 8.125 C-0.42140625 9.26582031 -0.42140625 9.26582031 -0.46875 10.4296875 C-0.702369 14.94632158 -1.32654117 18.74152347 -3 23 C-17.78132118 17.9977221 -17.78132118 17.9977221 -24 14 C-21.26311696 11.87917817 -18.48373964 10.03539058 -15.48828125 8.30078125 C-14.64845703 7.81416016 -13.80863281 7.32753906 -12.94335938 6.82617188 C-12.07517578 6.32666016 -11.20699219 5.82714844 -10.3125 5.3125 C-8.99282227 4.54583008 -8.99282227 4.54583008 -7.64648438 3.76367188 C-1.12915137 0 -1.12915137 0 0 0 Z " fill="#84C447" transform="translate(295,283)"/>
<path d="M0 0 C3.75514634 2.0408404 4.77457968 3.28395898 6.0625 7.375 C5.98603205 11.81014124 4.80644332 13.63226802 2 17 C-1.13871188 18.56935594 -3.53855822 18.35201103 -7 18 C-9.875 15.5625 -9.875 15.5625 -12 13 C-12.33 12.67 -12.66 12.34 -13 12 C-13.43784542 8.14696032 -13.30585252 6.45877878 -11.125 3.1875 C-7.57218626 -0.46980826 -5.03088285 -0.426346 0 0 Z " fill="#85C548" transform="translate(358,266)"/>
<path d="M0 0 C7.36988707 1.966369 14.13045202 4.69582578 21 8 C21 8.66 21 9.32 21 10 C17.54565686 12.00695291 14.0858937 14.00436779 10.625 16 C9.64015625 16.57234375 8.6553125 17.1446875 7.640625 17.734375 C6.69960937 18.27578125 5.75859375 18.8171875 4.7890625 19.375 C3.48509521 20.12910156 3.48509521 20.12910156 2.15478516 20.8984375 C0 22 0 22 -2 22 C-2.28571429 4.57142857 -2.28571429 4.57142857 0 0 Z " fill="#83C445" transform="translate(229,197)"/>
<path d="M0 0 C15.74487472 8.261959 15.74487472 8.261959 23 13 C20.33510513 16.26034757 16.85605798 17.56686164 13.0625 19.125 C12.44181641 19.38925781 11.82113281 19.65351563 11.18164062 19.92578125 C8.16111795 21.19317841 5.21367284 22.33954593 2 23 C0.64290496 15.26940505 -0.31918373 7.85546636 0 0 Z " fill="#82C444" transform="translate(227,283)"/>
<path d="M0 0 C2.93052231 1.99524923 4.64521503 3.42836485 5.4453125 6.97265625 C5.64529931 10.53908774 5.30896766 12.59834205 3.125 15.4375 C-0.41699942 18.04191134 -2.58936125 18.43241556 -7 18 C-9.69990662 16.20006226 -11.5418865 14.916227 -13 12 C-13.43023798 8.12785818 -13.31669086 6.47503629 -11.125 3.1875 C-7.5841408 -0.45750212 -5.02152545 -0.5106636 0 0 Z " fill="#83C446" transform="translate(170,267)"/>
<path d="M0 0 C3.0625 2.0625 3.0625 2.0625 5 5 C5.625 8.5 5.625 8.5 5 12 C2.43573777 15.57442614 0.71228711 16.78376999 -3.5 18.0625 C-7.75227947 17.98656644 -9.08109213 17.0047581 -12 14 C-13.60551137 10.78897726 -13.46807221 7.48300792 -13 4 C-10.10531769 -1.0342301 -5.26197418 -1.06737555 0 0 Z " fill="#84C447" transform="translate(239,149)"/>
<path d="M0 0 C2.33294775 -0.04241723 4.66702567 -0.04092937 7 0 C8 1 8 1 8.1328125 3.25 C8.13023437 4.1575 8.12765625 5.065 8.125 6 C8.12757813 6.9075 8.13015625 7.815 8.1328125 8.75 C8 11 8 11 7 12 C4.66702567 12.04092937 2.33294775 12.04241723 0 12 C0 8.04 0 4.08 0 0 Z " fill="#8AC750" transform="translate(348,421)"/>
<path d="M0 0 C0.66 0.33 1.32 0.66 2 1 C2.6328125 3.94140625 2.6328125 3.94140625 3.125 7.5625 C3.29257812 8.76003906 3.46015625 9.95757812 3.6328125 11.19140625 C3.75398438 12.11824219 3.87515625 13.04507812 4 14 C2.02 14 0.04 14 -2 14 C-1.33333333 9.33333333 -0.66666667 4.66666667 0 0 Z " fill="#96CC62" transform="translate(321,428)"/>
</svg>
