<?xml version="1.0" encoding="UTF-8"?>
<svg version="1.1" xmlns="http://www.w3.org/2000/svg" width="521" height="595">
<path d="M0 0 C1.83405949 1.04367178 3.66995473 2.0841252 5.5078125 3.12109375 C7.38231326 4.22298949 9.25463557 5.32859775 11.125 6.4375 C13.23402286 7.67768236 15.34341061 8.91724438 17.453125 10.15625 C19.07057617 11.10757812 19.07057617 11.10757812 20.72070312 12.078125 C26.08994733 15.22484108 31.48208191 18.33158619 36.875 21.4375 C38.49365967 22.37033813 38.49365967 22.37033813 40.14501953 23.32202148 C42.33582951 24.58449731 44.5267476 25.84678556 46.71777344 27.10888672 C52.14659942 30.23680148 57.57319281 33.36858448 63 36.5 C65.16665583 37.75001879 67.3333225 39.00001878 69.5 40.25 C82.5 47.75 95.5 55.25 108.5 62.75 C109.57266113 63.36883057 110.64532227 63.98766113 111.75048828 64.62524414 C113.91557071 65.87435518 116.08060982 67.12354129 118.24560547 68.37280273 C123.68615706 71.51202309 129.12747216 74.64990563 134.5703125 77.78515625 C145.02206199 83.80747329 155.46299548 89.84669337 165.875 95.9375 C174.55262847 101.01275477 183.26628304 106.02218196 192 111 C201.14596767 116.21429384 210.2758185 121.45429881 219.375 126.75 C220.36113281 127.32234375 221.34726562 127.8946875 222.36328125 128.484375 C223.28238281 129.020625 224.20148438 129.556875 225.1484375 130.109375 C225.94427246 130.57311523 226.74010742 131.03685547 227.56005859 131.51464844 C228.36523926 132.00481445 229.17041992 132.49498047 230 133 C231.0230829 133.4581629 232.04616579 133.9163258 233.1002512 134.38837242 C236.35453988 137.31931253 236.45636612 137.79231983 236.78577328 141.93082619 C236.83326214 144.04388094 236.84728057 146.15783502 236.83592224 148.27139282 C236.85304341 149.43565084 236.87016458 150.59990885 236.88780457 151.79944742 C236.92894647 155.03227403 236.94308435 158.26392014 236.94559753 161.49696708 C236.9546521 164.98335248 236.9979094 168.46934297 237.03633118 171.95550537 C237.11350827 179.57962364 237.14553322 187.20353203 237.16820025 194.82798052 C237.18251084 199.59008628 237.20598368 204.35211896 237.23121834 209.1141777 C237.29955918 222.30265051 237.3571561 235.4910614 237.37359524 248.6797123 C237.37466107 249.52379301 237.37572691 250.36787372 237.37682504 251.23753264 C237.37895706 252.94865823 237.38108886 254.65978382 237.38322043 256.37090941 C237.38429431 257.2203013 237.38536819 258.06969318 237.38647461 258.94482422 C237.38754088 259.79525493 237.38860715 260.64568565 237.38970573 261.52188699 C237.40903127 275.29583855 237.50583164 289.06805788 237.63641059 302.84136076 C237.76943865 316.98710716 237.83856331 331.131988 237.84352642 345.27837121 C237.8477746 353.21948707 237.87915687 361.15840547 237.98080254 369.09892654 C238.06705279 375.862643 238.09461968 382.62344915 238.0466026 389.3875993 C238.02383711 392.83804385 238.02814343 396.2826694 238.10724258 399.73241043 C238.49129 419.91540598 238.49129 419.91540598 234.3386147 425.05704641 C230.3418619 428.42337838 225.96401131 430.43812131 221.0803653 432.20168376 C218.00952738 433.38008247 215.36712658 435.01129521 212.56640625 436.73046875 C210.56553379 437.88355831 208.56422606 439.03589289 206.5625 440.1875 C204.31379049 441.4830528 202.06509292 442.77862632 199.81640625 444.07421875 C198.68734863 444.72438965 197.55829102 445.37456055 196.39501953 446.04443359 C190.9283002 449.19332054 185.46425113 452.34683264 180 455.5 C177.83334689 456.7500235 175.66668021 458.00002347 173.5 459.25 C172.4275 459.86875 171.355 460.4875 170.25 461.125 C160.50000001 466.75 160.50000001 466.75 157.24951172 468.62524414 C155.08442929 469.87435518 152.91939018 471.12354129 150.75439453 472.37280273 C145.31384294 475.51202309 139.87252784 478.64990563 134.4296875 481.78515625 C123.97793801 487.80747329 113.53700452 493.84669337 103.125 499.9375 C93.85500223 505.35921178 84.54168248 510.70204915 75.21154785 516.01922607 C66.09001709 521.21882926 57.00363569 526.47581467 47.94189453 531.77905273 C39.52310972 536.70386718 31.0761221 541.57874144 22.6159668 546.43212891 C17.2581671 549.51305614 11.92903689 552.63067559 6.64453125 555.8359375 C5.63986816 556.44236084 4.63520508 557.04878418 3.60009766 557.67358398 C1.70729718 558.81989441 -0.18010345 559.97518602 -2.06103516 561.14086914 C-2.90327637 561.64996826 -3.74551758 562.15906738 -4.61328125 562.68359375 C-5.70829956 563.35733032 -5.70829956 563.35733032 -6.82543945 564.04467773 C-9.47489006 565.20862746 -11.12866868 565.34449319 -14 565 C-16.3581543 563.95288086 -16.3581543 563.95288086 -18.82421875 562.46484375 C-19.75669434 561.91062744 -20.68916992 561.35641113 -21.64990234 560.78540039 C-23.15351318 559.8706897 -23.15351318 559.8706897 -24.6875 558.9375 C-26.86018566 557.64240439 -29.03338004 556.34816191 -31.20703125 555.0546875 C-32.32932129 554.38276367 -33.45161133 553.71083984 -34.60791016 553.01855469 C-39.99827379 549.81087321 -45.43638249 546.68742643 -50.875 543.5625 C-53.06001428 542.30359097 -55.24490947 541.04447523 -57.4296875 539.78515625 C-58.51475586 539.16012207 -59.59982422 538.53508789 -60.71777344 537.89111328 C-66.14659942 534.76319852 -71.57319281 531.63141552 -77 528.5 C-79.16665583 527.24998121 -81.3333225 525.99998122 -83.5 524.75 C-122.5 502.25 -161.5 479.75 -200.5 457.25 C-201.57354736 456.63068604 -202.64709473 456.01137207 -203.75317383 455.37329102 C-205.90940213 454.12923208 -208.06549049 452.88493058 -210.22143555 451.64038086 C-215.21406952 448.75869341 -220.20787516 445.87912878 -225.20706177 443.00881958 C-226.95024732 442.0078019 -228.69296372 441.00597217 -230.43554688 440.00390625 C-232.60129618 438.75881961 -234.76788871 437.5151979 -236.93554688 436.2734375 C-238.88840373 435.14994519 -240.82604401 433.99938411 -242.74382591 432.81701469 C-245.93027384 430.90978758 -245.93027384 430.90978758 -249.37697792 429.85634041 C-253.46885836 428.1885459 -256.48265828 426.71325419 -259 423 C-261.44483128 415.0350534 -260.7632865 406.21581366 -260.6407845 397.98013425 C-260.60303259 394.48841639 -260.6404539 390.99737576 -260.66821289 387.50567627 C-260.71054991 380.6727054 -260.68331225 373.84171176 -260.63174848 367.00887214 C-260.57394572 359.05021249 -260.58215969 351.09202733 -260.59224255 343.13321425 C-260.60768074 328.93296968 -260.55856713 314.73366637 -260.47509766 300.53369141 C-260.3941361 286.75733823 -260.36584026 272.98213394 -260.39306641 259.20556641 C-260.42265154 244.19772738 -260.42404702 229.19040163 -260.37551081 214.18259346 C-260.37036317 212.58233208 -260.36522485 210.98207067 -260.36009598 209.38180923 C-260.35752755 208.59447787 -260.35495912 207.80714651 -260.35231286 206.99595662 C-260.33593651 201.44920355 -260.33896255 195.90265375 -260.34891891 190.35589218 C-260.36021401 183.59694095 -260.33854267 176.8390209 -260.27518396 170.0803424 C-260.2435863 166.6320696 -260.22623011 163.18532034 -260.24780655 159.73693466 C-260.26339643 155.99806734 -260.22376879 152.26377567 -260.16976929 148.52536011 C-260.19579131 146.8905443 -260.19579131 146.8905443 -260.22233903 145.22270191 C-260.03659153 138.03770797 -260.03659153 138.03770797 -257.02185273 135.01972222 C-254.7389582 133.47564258 -252.47568421 132.2048333 -250 131 C-249.03118896 130.42443359 -248.06237793 129.84886719 -247.06420898 129.25585938 C-245.79299194 128.55686523 -245.79299194 128.55686523 -244.49609375 127.84375 C-243.03345093 127.03369507 -243.03345093 127.03369507 -241.54125977 126.20727539 C-240.51701904 125.64387451 -239.49277832 125.08047363 -238.4375 124.5 C-229.92564082 119.77594016 -221.46123888 114.98498361 -213.0625 110.0625 C-204.76612704 105.20075324 -196.45656863 100.36373238 -188.125 95.5625 C-187.04484619 94.93996338 -185.96469238 94.31742676 -184.85180664 93.67602539 C-182.66203666 92.41423174 -180.47217645 91.15259466 -178.28222656 89.89111328 C-172.85340058 86.76319852 -167.42680719 83.63141552 -162 80.5 C-159.83334417 79.24998121 -157.6666775 77.99998122 -155.5 76.75 C-154.4275 76.13125 -153.355 75.5125 -152.25 74.875 C-142.5 69.25 -142.5 69.25 -139.24951172 67.37475586 C-137.08442929 66.12564482 -134.91939018 64.87645871 -132.75439453 63.62719727 C-127.31384294 60.48797691 -121.87252784 57.35009437 -116.4296875 54.21484375 C-105.97793801 48.19252671 -95.53700452 42.15330663 -85.125 36.0625 C-75.86073029 30.64413838 -66.55375681 25.30349276 -57.22866821 19.99084473 C-47.74993707 14.58960238 -38.30952177 9.1253062 -28.90039062 3.60351562 C-27.10649832 2.55209894 -25.30486033 1.51375191 -23.49462891 0.49072266 C-20.98080467 -0.94812586 -20.98080467 -0.94812586 -18.75146484 -2.71337891 C-11.47475658 -7.91429149 -6.96263323 -4.36811976 0 0 Z " fill="#A3B5B4" transform="translate(272,17)"/>
<path d="M0 0 C4.76150775 1.9046031 5.92908937 4.45383208 8 9 C8.67224283 10.94262298 9.29607455 12.90255488 9.875 14.875 C10.21402344 16.01066406 10.55304688 17.14632812 10.90234375 18.31640625 C11.26457031 19.53199219 11.62679687 20.74757813 12 22 C12.8038216 24.60689852 13.62029725 27.20976955 14.4375 29.8125 C14.8633764 31.17314731 15.28915688 32.53382464 15.71484375 33.89453125 C15.92737793 34.57338379 16.13991211 35.25223633 16.35888672 35.95166016 C16.99108475 37.97151602 17.62264098 39.99157119 18.25390625 42.01171875 C18.45975342 42.67042969 18.66560059 43.32914063 18.87768555 44.0078125 C19.29213339 45.33456591 19.70635913 46.66138872 20.12036133 47.98828125 C21.18092061 51.38606834 22.24632802 54.78221172 23.3203125 58.17578125 C24.17938598 60.89112972 25.02664425 63.60968894 25.86328125 66.33203125 C26.54294563 68.52517507 27.2420512 70.71265275 27.98046875 72.88671875 C31.73995591 84.69468546 31.53176737 97.81678761 26 109 C23.65041071 112.99305202 21.20324009 116.92363071 18.62182617 120.77099609 C15.7803059 124.91175439 15.7803059 124.91175439 15.05078125 129.72265625 C15.36402344 130.47417969 15.67726563 131.22570312 16 132 C16.66796703 133.66614593 17.33479216 135.33275054 18 137 C18.85118408 136.97905273 19.70236816 136.95810547 20.5793457 136.93652344 C23.79056666 136.86763838 27.00140643 136.81785949 30.21313477 136.78027344 C31.593145 136.7603733 32.97307337 136.7332426 34.3527832 136.69824219 C48.80360495 136.34130217 59.79902735 139.46875239 70.53515625 149.328125 C74.30200639 153.03247838 77.88579209 156.85010748 81.3515625 160.8359375 C84.88827422 164.90120015 88.54863952 168.83488462 92.25 172.75 C98.55687905 179.4497436 104.801237 186.20014483 111 193 C111.94241967 194.02630681 112.88513186 195.05234508 113.828125 196.078125 C114.7396671 197.07283991 115.65112843 198.06762884 116.5625 199.0625 C117.36816406 199.94035156 118.17382812 200.81820312 119.00390625 201.72265625 C121.63458948 204.72400326 122.93868922 206.33784354 123.3125 210.375 C122.98132511 214.21662869 122.33032399 215.97920964 120 219 C114.50084308 222.66610462 108.13386557 221.46641451 101.85351562 220.26123047 C96.96472891 219.24336514 92.10788851 218.09234658 87.25 216.9375 C85.47378082 216.52261699 83.69732898 216.10872885 81.9206543 215.69580078 C79.22289743 215.06876723 76.52536269 214.44094149 73.8289032 213.80834961 C68.21373037 212.49510067 62.58786586 211.26060504 56.94140625 210.08984375 C54.87872285 209.65438176 52.81633985 209.21752329 50.75402832 208.78030396 C48.88393721 208.38991288 47.009881 208.01866555 45.13574219 207.64819336 C35.39116823 205.55549499 25.91932644 202.12749637 18.81599426 194.87509155 C18.28568509 194.33625021 17.75537592 193.79740887 17.20899677 193.242239 C16.61054337 192.62733069 16.61054337 192.62733069 16 192 C15.98969254 193.05013779 15.97938507 194.10027557 15.96876526 195.18223572 C15.87120459 205.0565171 15.76848742 214.93073302 15.66066074 224.8049078 C15.60538726 229.88187884 15.55196033 234.95885559 15.50268555 240.03588867 C15.45510709 244.93125663 15.40276692 249.82655221 15.34705925 254.72183418 C15.32660605 256.59380871 15.30789799 258.4658031 15.29092598 260.33781242 C15.26694732 262.95046076 15.23688426 265.56297097 15.20532227 268.17553711 C15.1995668 268.95740387 15.19381134 269.73927063 15.18788147 270.54483032 C15.11405216 275.88594784 15.11405216 275.88594784 14 277 C11.66055264 276.71269945 9.3260857 276.38063221 7 276 C6.99453156 274.16622803 6.99453156 274.16622803 6.98895264 272.29541016 C6.95197134 260.76028578 6.89416404 249.22542759 6.81609726 237.69050598 C6.77663038 231.76061922 6.74443784 225.83088079 6.72900391 219.90087891 C6.71383242 214.17540163 6.67937734 208.45033217 6.63169098 202.72503662 C6.6168824 200.54347279 6.60895929 198.36185074 6.60811615 196.18023682 C6.60574325 193.1184163 6.57863636 190.05771981 6.54589844 186.99609375 C6.5509288 186.09913284 6.55595917 185.20217194 6.56114197 184.2780304 C6.47303749 178.93331228 5.55631053 175.23152871 2.85580826 170.59388733 C2 169 2 169 2 167 C0.27236293 166.92435915 -1.45833004 166.91694184 -3.1875 166.9375 C-4.15042969 166.92589844 -5.11335938 166.91429687 -6.10546875 166.90234375 C-10.13080053 168.42881909 -10.98767993 170.69447648 -12.94487572 174.40627861 C-14.67819928 178.66715904 -14.70291628 182.649714 -14.65942383 187.20141602 C-14.66990753 188.17808731 -14.68039124 189.15475861 -14.69119263 190.161026 C-14.71977724 193.35898254 -14.71367041 196.55584571 -14.70703125 199.75390625 C-14.72015628 201.98308152 -14.73546296 204.21224492 -14.75285339 206.44139099 C-14.79262155 212.28571883 -14.80288863 218.12973496 -14.80688477 223.97418213 C-14.81623154 229.94707648 -14.85365485 235.91978887 -14.88867188 241.89257812 C-14.95316459 253.59504364 -14.98647294 265.2973723 -15 277 C-17.33294775 277.04241723 -19.66702567 277.04092937 -22 277 C-23.99657574 275.00342426 -23.18493427 271.00387402 -23.20532227 268.26733398 C-23.21522186 267.4576416 -23.22512146 266.64794922 -23.23532104 265.8137207 C-23.26702987 263.12454195 -23.29173035 260.4353455 -23.31640625 257.74609375 C-23.33696769 255.88663766 -23.35796394 254.02718632 -23.37937927 252.16773987 C-23.43468366 247.26376185 -23.4840559 242.35974107 -23.53222656 237.45568848 C-23.58238066 232.45544612 -23.63809845 227.45526618 -23.69335938 222.45507812 C-23.80104321 212.63677201 -23.90246532 202.81841181 -24 193 C-24.51722626 193.4736348 -25.03445251 193.94726959 -25.56735229 194.43525696 C-34.62073071 202.57016434 -44.12229058 205.64011545 -55.875 208.3125 C-57.09791748 208.59955811 -58.32083496 208.88661621 -59.58081055 209.18237305 C-71.88851309 212.05511111 -84.24950099 214.70456133 -96.61083984 217.33520508 C-97.37513809 217.49811035 -98.13943634 217.66101563 -98.92689514 217.82885742 C-100.34867195 218.13141849 -101.77071753 218.4327209 -103.19309998 218.73242188 C-106.57198109 219.45081736 -109.92015372 220.23317643 -113.26049805 221.11010742 C-117.3968703 222.09444358 -119.91386214 222.15645411 -124 221 C-127.83531211 217.74832234 -129.83646075 215.74303857 -130.30859375 210.7109375 C-129.9433505 206.31877189 -128.93711912 204.8976433 -126.0625 201.625 C-125.24136719 200.68269531 -124.42023438 199.74039063 -123.57421875 198.76953125 C-120.57658383 195.54445817 -117.51874377 192.40584893 -114.3359375 189.36328125 C-111.71573896 186.71241149 -109.29727067 183.92692459 -106.85595703 181.11206055 C-103.9007838 177.74910296 -100.82564567 174.50248117 -97.75 171.25 C-93.61918041 166.87077923 -89.50977191 162.47885756 -85.48193359 158.00463867 C-76.25881042 147.77755912 -66.84744082 137.70487205 -52.37060547 136.76416016 C-48.22471532 136.66978601 -44.08315011 136.7372622 -39.9375 136.8125 C-38.48503995 136.82757744 -37.03256473 136.84126042 -35.58007812 136.85351562 C-32.05306543 136.88627139 -28.52663215 136.93788336 -25 137 C-24.31974363 135.00458132 -23.65509503 133.00382009 -23 131 C-22.74379883 130.30729004 -22.48759766 129.61458008 -22.22363281 128.90087891 C-21.89891286 126.14075928 -22.92572753 124.89130645 -24.421875 122.5859375 C-24.95296875 121.74160156 -25.4840625 120.89726562 -26.03125 120.02734375 C-26.5984375 119.15207031 -27.165625 118.27679688 -27.75 117.375 C-36.0320113 104.58432367 -39.31826631 92.52901256 -36.2734375 77.38671875 C-35.29532507 73.87585178 -34.18934665 70.44487136 -33 67 C-32.59136719 65.77410156 -32.18273437 64.54820312 -31.76171875 63.28515625 C-30.92030992 60.76092976 -30.07264454 58.23878022 -29.21875 55.71875 C-28.05418332 52.16532861 -27.00574442 48.60121388 -26 45 C-24.29803268 38.90982779 -22.33159517 32.94052419 -20.2890625 26.95703125 C-19.34858209 24.14058498 -18.50655102 21.30992624 -17.7109375 18.44921875 C-17.49751709 17.68714111 -17.28409668 16.92506348 -17.06420898 16.13989258 C-16.65745885 14.66991945 -16.26053347 13.19717902 -15.87524414 11.72143555 C-14.65804048 7.33562157 -13.14497906 4.30067109 -10 1 C-6.801457 -0.5992715 -3.47898371 -0.36127908 0 0 Z " fill="#FCFCFC" transform="translate(264,105)"/>
<path d="M0 0 C2 0.078125 2 0.078125 4 1 C6.74336078 5.99139253 7.99309431 11.95662263 9.640625 17.3984375 C11.26249062 22.69131621 12.95803683 27.95635989 14.68249512 33.2166748 C16.03801415 37.36183694 17.37484459 41.51293526 18.71044922 45.66455078 C19.40311756 47.80372143 20.10331371 49.94046927 20.81103516 52.07470703 C30.5753585 81.57610347 30.5753585 81.57610347 24.62109375 95.94921875 C20.91151269 102.93038214 16.45376662 109.47677165 12 116 C10.92878906 115.67515625 9.85757813 115.3503125 8.75390625 115.015625 C2.39223942 113.29446644 -2.78818772 113.51527509 -9 116 C-18.91705333 101.61482375 -26.86601599 88.95964855 -23.6246109 70.90961456 C-22.46142084 65.84357892 -20.86266022 60.91648375 -19.2578125 55.9765625 C-18.76754974 54.41294995 -18.27913123 52.8487581 -17.79244995 51.2840271 C-16.77880886 48.04095159 -15.75084281 44.80295006 -14.71044922 41.56835938 C-13.37653817 37.42080037 -12.06854581 33.26564425 -10.76959419 29.10701942 C-9.5241923 25.12333458 -8.26660951 21.14353094 -7.0078125 17.1640625 C-6.76953861 16.4074596 -6.53126472 15.6508567 -6.28577042 14.87132645 C-5.61275912 12.74223939 -4.93116786 10.61611202 -4.24658203 8.49072266 C-3.86019562 7.28211578 -3.4738092 6.07350891 -3.07571411 4.82827759 C-2 2 -2 2 0 0 Z " fill="#A4B5B4" transform="translate(259,113)"/>
<path d="M0 0 C1.93842773 0.00966797 1.93842773 0.00966797 3.91601562 0.01953125 C5.27083605 0.03623923 6.62565376 0.05316908 7.98046875 0.0703125 C9.35481126 0.08035247 10.72916078 0.08947654 12.10351562 0.09765625 C15.45851192 0.12120008 18.81315074 0.15408683 22.16796875 0.1953125 C22.62776693 2.17285156 23.0875651 4.15039062 23.54736328 6.12792969 C25.03629324 11.08790564 28.4474753 14.74056858 32.16796875 18.1953125 C26.78321029 32.49088952 19.4617476 45.55821491 5.16796875 52.1953125 C-0.65615709 54.13684605 -6.7100386 55.29873234 -12.70703125 56.5703125 C-14.42131091 56.94616556 -16.13525548 57.32354998 -17.84887695 57.70239258 C-21.39022191 58.48334002 -24.93348788 59.25469041 -28.47802734 60.02099609 C-33.75069794 61.16796963 -39.00458504 62.38862312 -44.2578125 63.62109375 C-46.72064416 64.19267284 -49.18385142 64.76259404 -51.64727783 65.331604 C-53.2225648 65.69763217 -54.79692363 66.06767909 -56.37030029 66.4418335 C-58.55659975 66.95992527 -60.74621744 67.46050777 -62.9375 67.95703125 C-64.17653076 68.24537842 -65.41556152 68.53372559 -66.69213867 68.83081055 C-69.946195 69.20856547 -71.17561754 69.01929783 -73.83203125 67.1953125 C-72.48030278 63.11151909 -70.76266883 60.81847731 -67.64453125 57.8828125 C-64.09372292 54.51856153 -60.87047704 50.98761897 -57.67260742 47.29418945 C-54.72523017 43.93318637 -51.65269335 40.69335301 -48.58203125 37.4453125 C-43.99489906 32.57180416 -39.41825758 27.69029471 -34.89453125 22.7578125 C-34.02054688 21.80777344 -33.1465625 20.85773438 -32.24609375 19.87890625 C-30.70894206 18.17013083 -29.20000184 16.43523252 -27.73046875 14.66796875 C-20.51324301 6.02742558 -11.51535327 -0.10145686 0 0 Z " fill="#A3B5B4" transform="translate(215.83203125,249.8046875)"/>
<path d="M0 0 C3.90995254 -0.15062046 7.8187368 -0.25825104 11.73095703 -0.32958984 C13.7001496 -0.37387882 15.66853949 -0.45019904 17.63671875 -0.52734375 C28.14188118 -0.68732084 35.98186242 1.93564966 44.3125 8.375 C46.40930943 10.42304642 48.30731302 12.46511796 50.21484375 14.6796875 C53.79757728 18.79709454 57.50082209 22.78441932 61.25 26.75 C66.59874514 32.43045026 71.90617113 38.14213844 77.15625 43.9140625 C79.31325187 46.2721144 81.50950623 48.58928382 83.71875 50.8984375 C84.35611084 51.56866943 84.99347168 52.23890137 85.65014648 52.92944336 C86.89634201 54.23800434 88.14820643 55.54119715 89.40649414 56.83813477 C92.45014031 60.04399368 94.73736326 62.65091791 96 67 C95 68 95 68 93.30151367 68.00634766 C84.81718772 67.21208552 76.60070426 65.27476915 68.3125 63.375 C65.91478193 62.82972542 63.51682374 62.28551563 61.11885071 61.74136353 C59.48950569 61.37138633 57.86034546 61.00059444 56.23136902 60.6289978 C51.58922618 59.57325128 46.94175777 58.55257789 42.28236389 57.57577515 C39.49062591 56.99032922 36.70161136 56.39245883 33.91268921 55.79376221 C31.99863681 55.38796169 30.08101429 54.99911538 28.16333008 54.61083984 C16.69916041 52.12486085 6.6953365 47.98626462 0 38 C-1.92236396 34.95432697 -3.76076839 31.86841736 -5.5625 28.75 C-6.26258179 27.56035645 -6.26258179 27.56035645 -6.97680664 26.34667969 C-7.39824951 25.58774414 -7.81969238 24.82880859 -8.25390625 24.046875 C-8.63877197 23.36463867 -9.0236377 22.68240234 -9.42016602 21.97949219 C-10 20 -10 20 -9.26147461 17.91113281 C-8 16 -8 16 -5.5625 13.375 C-3.21950351 10.68659756 -2.29789393 8.21346345 -1.33984375 4.7890625 C-1.08452881 3.8913916 -0.82921387 2.9937207 -0.56616211 2.06884766 C-0.37932861 1.38612793 -0.19249512 0.7034082 0 0 Z " fill="#A3B5B4" transform="translate(283,250)"/>
<path d="M0 0 C1.98 0 3.96 0 6 0 C6.13277344 1.20398438 6.26554688 2.40796875 6.40234375 3.6484375 C6.5805302 5.22398085 6.7589265 6.79950047 6.9375 8.375 C7.02451172 9.1690625 7.11152344 9.963125 7.20117188 10.78125 C7.6038935 15.02255001 7.6038935 15.02255001 9 19 C10.32 12.73 11.64 6.46 13 0 C14.65 0 16.3 0 18 0 C19.32 6.6 20.64 13.2 22 20 C23.70413874 12.44542153 23.70413874 12.44542153 24.625 4.9375 C24.69976562 3.99777344 24.77453125 3.05804688 24.8515625 2.08984375 C24.90054688 1.40019531 24.94953125 0.71054687 25 0 C27.31 0 29.62 0 32 0 C31.30086382 8.00556923 30.19182504 15.92949975 29 23.875 C28.82210937 25.08414062 28.64421875 26.29328125 28.4609375 27.5390625 C27.01337467 37.26149942 27.01337467 37.26149942 26 41 C24.02 41 22.04 41 20 41 C18.68 34.4 17.36 27.8 16 21 C15.67 21 15.34 21 15 21 C14.79503906 22.27617187 14.59007812 23.55234375 14.37890625 24.8671875 C14.10694185 26.53648621 13.83479709 28.20575553 13.5625 29.875 C13.42779297 30.71675781 13.29308594 31.55851562 13.15429688 32.42578125 C13.02216797 33.23144531 12.89003906 34.03710938 12.75390625 34.8671875 C12.63345947 35.61081543 12.5130127 36.35444336 12.38891602 37.12060547 C12 39 12 39 11 41 C9.02 41 7.04 41 5 41 C4.27743675 36.76993023 3.56585132 32.53819292 2.86376953 28.3046875 C2.624163 26.86897805 2.38172032 25.43373861 2.13623047 23.99902344 C0.76060098 15.94737984 -0.32103255 8.20238172 0 0 Z " fill="#FBFCFC" transform="translate(208,414)"/>
<path d="M0 0 C14 0 14 0 17.33789062 2.0703125 C19.3462709 5.61034824 19.61777541 7.81252182 19.59375 11.875 C19.59117187 13.18984375 19.58859375 14.5046875 19.5859375 15.859375 C19.57143555 16.53935547 19.55693359 17.21933594 19.54199219 17.91992188 C19.50011193 19.99445557 19.50092899 22.0657394 19.5078125 24.140625 C19.39684027 35.45979244 19.39684027 35.45979244 16 40 C11.22041378 42.38979311 5.34373985 41 0 41 C0 27.47 0 13.94 0 0 Z " fill="#FDFDFD" transform="translate(299,414)"/>
<path d="M0 0 C1.01964844 -0.00773438 2.03929687 -0.01546875 3.08984375 -0.0234375 C7.76773651 0.60355995 10.29801541 2.50720668 13.375 6 C15.81134213 10.87268426 16.12756181 15.16090814 14.40234375 20.3671875 C12.11834159 24.97474165 8.92416782 27.70842422 4.0625 29.375 C-0.1701989 30.16914273 -3.28966903 29.69891549 -7.1875 27.75 C-10.88457941 24.55706779 -13.52474664 21.96102618 -14.3203125 16.9765625 C-14.57694028 11.27942575 -13.81316331 7.78894988 -9.9375 3.375 C-6.67146355 0.35409653 -4.40986681 -0.03336595 0 0 Z " fill="#A9B9B8" transform="translate(259.9375,234.625)"/>
<path d="M0 0 C1.98 0 3.96 0 6 0 C6.77512547 1.8106686 7.54484187 3.62365291 8.3125 5.4375 C8.74175781 6.44683594 9.17101562 7.45617187 9.61328125 8.49609375 C11.23871298 12.60317054 12.60321411 16.80964234 14 21 C14.33 14.07 14.66 7.14 15 0 C16.98 0 18.96 0 21 0 C21 13.53 21 27.06 21 41 C19.02 41 17.04 41 15 41 C12.36 34.07 9.72 27.14 7 20 C6.67 26.93 6.34 33.86 6 41 C4.02 41 2.04 41 0 41 C0 27.47 0 13.94 0 0 Z " fill="#FEFEFE" transform="translate(267,414)"/>
<path d="M0 0 C3.68684241 0.25722156 5.78603703 0.85580757 8.875 2.9375 C11.49316105 6.7107321 11.71799609 9.10907959 11.49609375 13.62109375 C10.73590592 17.2664039 8.95692188 18.86826562 6 21 C2.39427296 22.20190901 -0.2102435 22.32670315 -4 22 C-6.75329021 20.20437595 -8.52627461 18.94745078 -10 16 C-10.13415472 13.3276379 -10.04318541 10.67749512 -10 8 C-5.25 6.875 -5.25 6.875 -3 8 C-2.27840576 9.64363134 -1.60648579 11.31050386 -1 13 C-0.01 13 0.98 13 2 13 C2 11.68 2 10.36 2 9 C1.34 8.67 0.68 8.34 0 8 C0 5.36 0 2.72 0 0 Z " fill="#FBFCFB" transform="translate(260,238)"/>
<path d="M0 0 C1.98 0 3.96 0 6 0 C6 13.86 6 27.72 6 42 C4.02 42 2.04 42 0 42 C0 28.14 0 14.28 0 0 Z " fill="#F9FAFA" transform="translate(250,414)"/>
<path d="M0 0 C6 1 6 1 7 2 C7.25380234 6.47331958 7.18522721 10.9578346 7.1875 15.4375 C7.19974609 16.70400391 7.21199219 17.97050781 7.22460938 19.27539062 C7.22750977 21.08620117 7.22750977 21.08620117 7.23046875 22.93359375 C7.23457764 24.04790771 7.23868652 25.16222168 7.24291992 26.31030273 C7 29 7 29 5 31 C3.35 31 1.7 31 0 31 C0 20.77 0 10.54 0 0 Z " fill="#A5B6B5" transform="translate(305,419)"/>
</svg>
