<?xml version="1.0" encoding="UTF-8"?>
<svg version="1.1" xmlns="http://www.w3.org/2000/svg" width="520" height="595">
<path d="M0 0 C2.64548501 1.25280271 5.20120022 2.58473052 7.75439453 4.01635742 C8.74238037 4.56928467 9.73036621 5.12221191 10.74829102 5.69189453 C11.80604736 6.28881104 12.86380371 6.88572754 13.95361328 7.50073242 C15.0622876 8.12407471 16.17096191 8.74741699 17.31323242 9.38964844 C26.78052205 14.72946547 36.17411293 20.19196267 45.55126953 25.68823242 C51.85681747 29.38286552 58.18405764 33.03925924 64.51611328 36.68823242 C65.59626709 37.31076904 66.6764209 37.93330566 67.78930664 38.57470703 C69.97907662 39.83650068 72.16893683 41.09813776 74.35888672 42.35961914 C79.7877127 45.4875339 85.21430609 48.6193169 90.64111328 51.75073242 C92.80776911 53.00075121 94.97443578 54.25075121 97.14111328 55.50073242 C127.47444661 73.00073242 157.80777995 90.50073242 188.14111328 108.00073242 C189.21466064 108.62004639 190.28820801 109.23936035 191.39428711 109.87744141 C193.55051541 111.12150034 195.70660377 112.36580185 197.86254883 113.61035156 C202.8551828 116.49203902 207.84898844 119.37160364 212.84817505 122.24191284 C214.5913606 123.24293053 216.334077 124.24476025 218.07666016 125.24682617 C220.24240946 126.49191282 222.409002 127.73553452 224.57666016 128.97729492 C226.52967463 130.10087791 228.46760375 131.2512901 230.38586903 132.43322182 C233.57085237 134.33942889 233.57085237 134.33942889 237.00972271 135.39885521 C241.09444883 137.07110647 244.10903548 138.55594389 246.64111328 142.25073242 C249.1414859 150.16558316 248.55082086 158.94707471 248.50178349 167.1533258 C248.49499195 170.62923335 248.56279158 174.10383548 248.62037659 177.5791626 C248.72046727 184.38231679 248.7489487 191.18394359 248.74928746 197.98776658 C248.75000026 203.52160465 248.77204313 209.05495349 248.80904198 214.58866501 C248.91198272 230.29728784 248.96276778 246.0047534 248.94335184 261.71371098 C248.94230696 262.55979036 248.94126209 263.40586974 248.94018555 264.27758789 C248.93912948 265.12470736 248.93807341 265.97182682 248.93698534 266.84461658 C248.92299939 280.56481626 249.03153713 294.2809145 249.196542 308.00002404 C249.36485544 322.10547777 249.44322036 336.20894968 249.42795151 350.315431 C249.42115357 358.2282756 249.4504402 366.13704522 249.57598305 374.04899979 C249.68215378 380.78868204 249.70384737 387.52229124 249.6188179 394.26237901 C249.57780082 397.69914076 249.5741793 401.12442873 249.67700195 404.56015396 C250.08609237 421.37111415 250.08609237 421.37111415 246.64111328 428.25073242 C240.74074847 434.35504819 233.1457429 437.79494646 225.41981065 441.05132365 C221.91857045 442.56261389 218.77370194 444.3830924 215.52392578 446.37182617 C213.60500676 447.4779055 211.68574456 448.5833897 209.76611328 449.68823242 C207.5812079 450.94733044 205.39631236 452.20644553 203.21142578 453.46557617 C202.12635742 454.09061035 201.04128906 454.71564453 199.92333984 455.35961914 C194.49451386 458.4875339 189.06792047 461.6193169 183.64111328 464.75073242 C181.47445745 466.00075121 179.30779078 467.25075121 177.14111328 468.50073242 C176.06861328 469.11948242 174.99611328 469.73823242 173.89111328 470.37573242 C135.97444661 492.25073242 98.05777995 514.12573242 60.14111328 536.00073242 C59.06764648 536.62004639 57.99417969 537.23936035 56.88818359 537.87744141 C54.73130425 539.1217824 52.57440336 540.36608606 50.41748047 541.61035156 C43.70307446 545.48377402 36.98920856 549.35812845 30.27685547 553.23510742 C28.04963996 554.5199159 25.8211574 555.80253086 23.59130859 557.08276367 C19.06967945 559.68008778 14.55733775 562.28188179 10.10986328 565.00463867 C9.46500977 565.39337158 8.82015625 565.78210449 8.15576172 566.18261719 C6.55495438 567.15156186 4.9645822 568.13769475 3.37548828 569.12573242 C-0.07037983 570.54346102 -1.76012626 570.09384178 -5.35888672 569.25073242 C-7.83056641 568.09008789 -7.83056641 568.09008789 -10.28076172 566.61791992 C-11.67464111 565.79142944 -11.67464111 565.79142944 -13.09667969 564.94824219 C-14.09070801 564.34681396 -15.08473633 563.74538574 -16.10888672 563.12573242 C-18.27248793 561.83979973 -20.43656673 560.55467032 -22.60107422 559.27026367 C-23.71708008 558.60462402 -24.83308594 557.93898438 -25.98291016 557.25317383 C-31.37141773 554.05701103 -36.80241267 550.93563028 -42.23388672 547.81323242 C-44.41887108 546.55427146 -46.60376644 545.29515604 -48.78857422 544.03588867 C-49.87364258 543.41085449 -50.95871094 542.78582031 -52.07666016 542.1418457 C-57.50548614 539.01393094 -62.93207953 535.88214794 -68.35888672 532.75073242 C-70.52554255 531.50071363 -72.69220922 530.25071364 -74.85888672 529.00073242 C-105.19222005 511.50073242 -135.52555339 494.00073242 -165.85888672 476.50073242 C-166.93154785 475.88190186 -168.00420898 475.26307129 -169.109375 474.62548828 C-171.27445743 473.37637724 -173.43949654 472.12719113 -175.60449219 470.87792969 C-181.04504378 467.73870933 -186.48635888 464.60082679 -191.92919922 461.46557617 C-202.68759498 455.26708323 -213.43925937 449.05711734 -224.17138672 442.81323242 C-225.1067627 442.27045654 -226.04213867 441.72768066 -227.00585938 441.16845703 C-228.78922137 440.12908691 -230.55718653 439.06265923 -232.30549335 437.96534729 C-235.31696322 436.14838131 -235.31696322 436.14838131 -238.69816113 435.13500977 C-242.81266311 433.46435417 -245.83750737 431.98955003 -248.35888672 428.25073242 C-250.77672825 420.22426146 -250.03417011 411.34347939 -249.8677398 403.0583694 C-249.81142003 399.54246705 -249.83060954 396.02686212 -249.84046936 392.51063538 C-249.84727537 386.42421991 -249.80660933 380.33962065 -249.73337746 374.25366211 C-249.62757052 365.45479864 -249.59385397 356.65681034 -249.57753357 347.85737967 C-249.54910468 333.58028492 -249.46265667 319.30415757 -249.33959961 305.02758789 C-249.2202102 291.16207712 -249.12822211 277.29682943 -249.07299805 263.4309082 C-249.06958264 262.57574226 -249.06616724 261.72057632 -249.06264833 260.83949625 C-249.04568243 256.54923453 -249.02925433 252.25897095 -249.01309359 247.96870613 C-248.87839911 212.39535868 -248.64949431 176.8231349 -248.35888672 141.25073242 C-247.664077 140.86296127 -246.96926727 140.47519012 -246.25340271 140.07566833 C-243.0366667 138.27961807 -239.82082107 136.48197913 -236.60498047 134.68432617 C-235.51262085 134.07472046 -234.42026123 133.46511475 -233.2947998 132.83703613 C-225.96030423 128.73519677 -218.67356636 124.55884022 -211.42138672 120.31323242 C-209.76224243 119.34256836 -209.76224243 119.34256836 -208.06958008 118.35229492 C-207.20469971 117.8444043 -206.33981934 117.33651367 -205.44873047 116.81323242 C-199.14318253 113.11859932 -192.81594236 109.46220561 -186.48388672 105.81323242 C-185.40373291 105.1906958 -184.3235791 104.56815918 -183.21069336 103.92675781 C-181.02092338 102.66496416 -178.83106317 101.40332708 -176.64111328 100.1418457 C-171.2122873 97.01393094 -165.78569391 93.88214794 -160.35888672 90.75073242 C-158.19223089 89.50071363 -156.02556422 88.25071364 -153.85888672 87.00073242 C-152.78638672 86.38198242 -151.71388672 85.76323242 -150.60888672 85.12573242 C-62.85888672 34.50073242 -62.85888672 34.50073242 -59.60620117 32.62426758 C-57.44838869 31.37931961 -55.29067319 30.13420352 -53.13305664 28.88891602 C-47.5817208 25.68520591 -42.02852131 22.48479612 -36.47216797 19.28979492 C-35.34125732 18.63873779 -34.21034668 17.98768066 -33.04516602 17.31689453 C-30.82517227 16.03958284 -28.60401075 14.76429828 -26.3815918 13.49121094 C-21.72636834 10.81577456 -17.09960053 8.12274493 -12.56982422 5.23901367 C-11.87590576 4.80121582 -11.1819873 4.36341797 -10.46704102 3.91235352 C-8.70583703 2.78985742 -6.95929799 1.64443784 -5.21435547 0.49682617 C-2.35888672 -0.74926758 -2.35888672 -0.74926758 0 0 Z " fill="#6A4B9F" transform="translate(261.35888671875,11.749267578125)"/>
<path d="M0 0 C3.72610474 0.6149313 5.11144293 2.33822913 7.72265625 5.02954102 C8.18169846 5.49565796 8.64074066 5.9617749 9.11369324 6.4420166 C10.57235409 7.92859195 12.01264365 9.43161409 13.453125 10.93579102 C14.44089341 11.94864612 15.42981386 12.96037909 16.41992188 13.97094727 C18.84030983 16.44636346 21.24452402 18.93683271 23.640625 21.43579102 C29.53471219 18.27421168 34.43087554 14.51526085 39.47851562 10.15063477 C42.2961531 7.83022743 43.97932751 6.5327127 47.65234375 5.99438477 C52.29605188 6.68031812 56.62949925 8.01218997 61.10546875 9.40063477 C64.49008084 10.47425206 64.49008084 10.47425206 67.45703125 10.87719727 C72.0743145 11.67926055 74.49125256 12.95852308 77.25390625 16.73657227 C79.57366449 20.20092182 81.64072625 23.77897132 83.640625 27.43579102 C88.50568738 26.85142248 88.50568738 26.85142248 93.140625 25.37329102 C96.680857 24.04570402 98.87242994 23.8609816 102.640625 24.43579102 C105.67835862 26.42562428 108.15390744 28.80033521 110.640625 31.43579102 C111.37345703 32.16004272 111.37345703 32.16004272 112.12109375 32.89892578 C116.56625919 37.57880362 118.1182596 42.02235819 119.515625 48.24829102 C119.72703125 49.10616211 119.9384375 49.9640332 120.15625 50.84790039 C121.640625 56.97335697 121.640625 56.97335697 121.640625 59.43579102 C122.671875 59.35329102 123.703125 59.27079102 124.765625 59.18579102 C130.44654268 59.55230183 133.25849102 61.86688217 136.953125 66.06079102 C140.42844742 70.95198554 140.23868018 75.5632214 139.640625 81.43579102 C137.47368401 85.84993008 134.81470849 88.83858351 130.640625 91.43579102 C129.09460672 91.85506162 127.5337736 92.22202599 125.96484375 92.54516602 C125.15490967 92.715 124.34497559 92.88483398 123.51049805 93.05981445 C122.89343994 93.18388672 122.27638184 93.30795898 121.640625 93.43579102 C118.29860865 105.09998423 114.96514575 116.76659887 111.640625 128.43579102 C111.29483398 129.64895996 110.94904297 130.86212891 110.59277344 132.11206055 C106.88063959 145.16308002 103.33543797 158.24419298 100.03637695 171.40649414 C98.55298288 177.2497114 96.89192466 182.84144699 94.640625 188.43579102 C95.919375 188.39454102 97.198125 188.35329102 98.515625 188.31079102 C100.6953125 188.24047852 100.6953125 188.24047852 102.640625 188.43579102 C105.43681632 191.23198233 104.89884889 192.99463815 104.90625 196.90454102 C104.90882813 198.1974707 104.91140625 199.49040039 104.9140625 200.82250977 C104.90987305 201.49717285 104.90568359 202.17183594 104.90136719 202.86694336 C104.8906657 204.92795259 104.90126443 206.98809021 104.9140625 209.04907227 C104.91148437 210.34200195 104.90890625 211.63493164 104.90625 212.96704102 C104.90399414 214.1587793 104.90173828 215.35051758 104.89941406 216.57836914 C104.640625 219.43579102 104.640625 219.43579102 102.640625 221.43579102 C100.39404297 221.6628418 100.39404297 221.6628418 97.6328125 221.63110352 C96.64667969 221.6246582 95.66054688 221.61821289 94.64453125 221.61157227 C93.09572266 221.58643555 93.09572266 221.58643555 91.515625 221.56079102 C90.47535156 221.55176758 89.43507813 221.54274414 88.36328125 221.53344727 C85.78883408 221.50982848 83.21484288 221.4768925 80.640625 221.43579102 C80.52162842 222.04197266 80.40263184 222.6481543 80.2800293 223.27270508 C80.03119995 224.47491699 80.03119995 224.47491699 79.77734375 225.70141602 C79.61709717 226.49322266 79.45685059 227.2850293 79.29174805 228.10083008 C77.65954907 233.95398006 73.57156304 238.10409722 68.58203125 241.36938477 C61.97091617 245.00084235 55.1483006 246.49987102 47.640625 245.43579102 C44.41076608 244.45256064 41.57200159 243.10072558 38.640625 241.43579102 C37.99996094 241.07356445 37.35929688 240.71133789 36.69921875 240.33813477 C32.03777207 237.36809855 28.78320828 233.55320067 26.640625 228.43579102 C26.310625 226.12579102 25.980625 223.81579102 25.640625 221.43579102 C9.140625 221.76579102 -7.359375 222.09579102 -24.359375 222.43579102 C-25.679375 225.73579102 -26.999375 229.03579102 -28.359375 232.43579102 C-33.25076333 239.17503716 -38.46740514 242.66072149 -46.359375 245.43579102 C-55.55529012 246.82385368 -62.73804821 244.62313917 -70.359375 239.43579102 C-75.22065638 235.16924087 -78.32074718 230.55167447 -80.359375 224.43579102 C-80.359375 223.44579102 -80.359375 222.45579102 -80.359375 221.43579102 C-81.01534668 221.44626465 -81.67131836 221.45673828 -82.34716797 221.4675293 C-85.30953158 221.50901604 -88.27183416 221.53509364 -91.234375 221.56079102 C-92.26691406 221.57754883 -93.29945313 221.59430664 -94.36328125 221.61157227 C-95.34941406 221.61801758 -96.33554688 221.62446289 -97.3515625 221.63110352 C-98.71837158 221.64681396 -98.71837158 221.64681396 -100.11279297 221.6628418 C-102.359375 221.43579102 -102.359375 221.43579102 -104.359375 219.43579102 C-104.82169657 214.80723291 -104.68335389 210.14724305 -104.671875 205.49829102 C-104.68798828 204.19698242 -104.70410156 202.89567383 -104.72070312 201.55493164 C-104.72134766 200.3103418 -104.72199219 199.06575195 -104.72265625 197.78344727 C-104.72563721 196.63884033 -104.72861816 195.4942334 -104.73168945 194.31494141 C-104.359375 191.43579102 -104.359375 191.43579102 -103.06713867 189.55078125 C-100.29971719 187.74394581 -97.56111096 188.25456068 -94.359375 188.43579102 C-94.51792969 187.92274414 -94.67648438 187.40969727 -94.83984375 186.88110352 C-96.43214994 181.6555241 -97.93602381 176.40818102 -99.390625 171.14282227 C-101.26029275 164.39198767 -103.13714483 157.6431865 -105.01960278 150.89590836 C-106.6193189 145.16132515 -108.21562085 139.42579674 -109.81026173 133.68980026 C-110.85267376 129.94074112 -111.89658992 126.19211283 -112.94360352 122.44433594 C-113.9707014 118.76760855 -114.99405894 115.08985919 -116.01479149 111.41135979 C-116.40138805 110.02070696 -116.78933545 108.63042891 -117.1786747 107.24054146 C-117.71815027 105.31386487 -118.25239203 103.38572509 -118.78637695 101.45751953 C-119.24340752 99.81687279 -119.24340752 99.81687279 -119.70967102 98.14308167 C-120.359375 95.43579102 -120.359375 95.43579102 -120.359375 92.43579102 C-120.93945312 92.42161133 -121.51953125 92.40743164 -122.1171875 92.39282227 C-128.23936742 92.0190258 -131.14956079 90.94630624 -135.359375 86.43579102 C-138.37207298 81.91674404 -139.10424837 77.77405014 -138.359375 72.43579102 C-136.6201389 66.73496158 -134.33452313 63.7212662 -129.359375 60.43579102 C-126.71915574 59.60670062 -124.06180677 59.0508656 -121.359375 58.43579102 C-120.99585938 56.73422852 -120.99585938 56.73422852 -120.625 54.99829102 C-116.76623349 37.45101709 -116.76623349 37.45101709 -111.609375 31.37329102 C-108.03587532 29.88433282 -105.12842115 30.74479922 -101.359375 31.43579102 C-101.1428125 30.91243164 -100.92625 30.38907227 -100.703125 29.84985352 C-98.82623597 26.47800055 -96.3752637 23.72324098 -93.859375 20.81079102 C-93.36050781 20.22555664 -92.86164063 19.64032227 -92.34765625 19.03735352 C-86.48952575 12.18978006 -86.48952575 12.18978006 -81.58203125 11.74829102 C-68.03032199 10.83801013 -59.7867828 12.4392428 -49.33813477 21.36743164 C-47.96829651 22.56759483 -46.61593268 23.78830914 -45.2902832 25.03710938 C-42.93508856 26.74312912 -41.24721532 27.18731689 -38.359375 27.43579102 C-35.58890672 26.38482307 -33.14906791 25.30555814 -30.546875 23.93579102 C-29.82983398 23.56486328 -29.11279297 23.19393555 -28.37402344 22.81176758 C-22.33061866 19.59320713 -17.67627274 15.91398285 -12.95361328 10.96166992 C-11.90110129 9.86037253 -10.84451245 8.76295903 -9.78417969 7.66918945 C-8.72817673 6.57480964 -7.68519351 5.46767954 -6.65722656 4.34692383 C-3.03498145 0.56057966 -3.03498145 0.56057966 0 0 Z " fill="#FBFAFC" transform="translate(259.359375,125.564208984375)"/>
<path d="M0 0 C72.93 0 145.86 0 221 0 C220.36611052 4.43722638 219.79619697 8.14330825 218.58203125 12.34375 C218.30012939 13.33149414 218.01822754 14.31923828 217.7277832 15.33691406 C217.42573975 16.38073242 217.12369629 17.42455078 216.8125 18.5 C214.37143148 27.05793575 212.02405049 35.6298899 209.8125 44.25 C208.06753758 51.03288342 206.20472449 57.73397051 204.0703125 64.40625 C202.2346286 70.56986017 200.68109148 76.81041466 199.10546875 83.04492188 C198.86183594 83.99947266 198.61820313 84.95402344 198.3671875 85.9375 C198.15175293 86.79214844 197.93631836 87.64679688 197.71435547 88.52734375 C196.97881061 91.07334455 195.98423058 93.53942354 195 96 C139.23 96 83.46 96 26 96 C19.67539267 74.91797557 19.67539267 74.91797557 17.0625 64.12890625 C15.86766952 59.35075114 14.43493016 54.64808446 13 49.9375 C10.89208106 43.01762995 8.90190572 36.08740078 7.078125 29.0859375 C6.22308999 25.81165639 5.32666381 22.5499385 4.421875 19.2890625 C4.14601562 18.29181152 3.87015625 17.29456055 3.5859375 16.26708984 C3.03672261 14.28484754 2.48472369 12.3033741 1.9296875 10.32275391 C1.67960938 9.41702637 1.42953125 8.51129883 1.171875 7.578125 C0.9459668 6.76762695 0.72005859 5.95712891 0.48730469 5.12207031 C0 3 0 3 0 0 Z " fill="#6A4B9F" transform="translate(149,218)"/>
<path d="M0 0 C0.88480543 -0.00905664 1.76961086 -0.01811328 2.68122858 -0.02744436 C4.14064295 -0.01945247 4.14064295 -0.01945247 5.62954044 -0.01129913 C6.6624202 -0.01739024 7.69529996 -0.02348134 8.75947911 -0.02975702 C12.23727762 -0.04647053 15.71471335 -0.04159925 19.19254398 -0.03681183 C21.67907946 -0.04414728 24.16561151 -0.05273197 26.65213871 -0.06247711 C32.71509967 -0.08244016 38.77791679 -0.0880707 44.84089785 -0.08628923 C49.76786386 -0.08498275 54.69479999 -0.08877989 59.62176037 -0.09621429 C61.03975918 -0.09831344 62.45775799 -0.10041104 63.8757568 -0.10250711 C64.58148475 -0.10355064 65.2872127 -0.10459417 66.01432634 -0.10566932 C79.36795749 -0.12458063 92.72153373 -0.12351874 106.07517273 -0.11669999 C118.29733419 -0.11112355 130.51928609 -0.13195256 142.74139857 -0.16506046 C155.28466859 -0.19877519 167.82783817 -0.2139686 180.37115437 -0.20934343 C187.41586105 -0.20709652 194.46037404 -0.21237406 201.50504208 -0.23723602 C208.12804476 -0.26041041 214.75068327 -0.25769347 221.37371922 -0.2373085 C223.80861911 -0.23388395 226.24354798 -0.23904916 228.67840862 -0.25329208 C231.99450504 -0.27135581 235.30909675 -0.25883022 238.62514591 -0.23834991 C240.0812142 -0.25712669 240.0812142 -0.25712669 241.56669801 -0.27628279 C248.05544678 -0.18996237 248.05544678 -0.18996237 251.32384682 2.75788879 C252.690835 5.38311005 252.690835 5.38311005 252.628335 8.00811005 C251.61441975 10.57669533 250.82638633 11.66663706 248.690835 13.38311005 C246.69944811 13.75915754 246.69944811 13.75915754 244.37887669 13.76063347 C243.05074349 13.77236833 243.05074349 13.77236833 241.69577932 13.78434026 C240.72215429 13.7776481 239.74852925 13.77095593 238.74540043 13.76406097 C237.7118151 13.76874095 236.67822978 13.77342092 235.61332369 13.77824271 C232.13317275 13.79025497 228.65341107 13.78071101 225.17325687 13.77129364 C222.68510043 13.77535656 220.19694579 13.78069687 217.70879459 13.78722382 C211.64214655 13.79951079 205.57565255 13.79767444 199.50901043 13.78898589 C194.57965469 13.78221771 189.65033016 13.78128887 184.72097111 13.78455734 C184.02007735 13.78501704 183.3191836 13.78547674 182.59705064 13.78595037 C181.17331142 13.78690952 179.74957222 13.78788216 178.32583302 13.78886814 C164.96745499 13.79742798 151.60913866 13.78757862 138.25077075 13.77146704 C126.78235631 13.75806331 115.31403295 13.76039124 103.84562016 13.77422333 C90.53587388 13.79026868 77.22618173 13.79660395 63.91642714 13.78738654 C62.49785106 13.78643086 61.07927498 13.78548775 59.66069889 13.78455734 C58.96268609 13.78409452 58.26467329 13.78363169 57.54550859 13.78315484 C52.62062516 13.78056181 47.69577599 13.78494267 42.77089787 13.791996 C36.14549516 13.80127598 29.52023831 13.79469306 22.8948431 13.77731323 C20.45791696 13.77333396 18.02097637 13.77450687 15.5840559 13.78110123 C12.26792851 13.78924987 8.9523609 13.77907591 5.63626957 13.76406097 C4.66264453 13.77075314 3.6890195 13.7774453 2.68589067 13.78434026 C1.80046854 13.77651702 0.91504642 13.76869378 0.00279331 13.76063347 C-0.76299526 13.76014641 -1.52878383 13.75965935 -2.31777811 13.75915754 C-4.88531787 13.27431108 -5.76690721 12.46803074 -7.309165 10.38311005 C-7.9643056 4.26846446 -7.9643056 4.26846446 -6.05505031 1.68830442 C-3.87296257 0.05701247 -2.70748606 0.005559 0 0 Z " fill="#6A4B9F" transform="translate(137.30916500091553,194.61688995361328)"/>
<path d="M0 0 C6.67987684 1.95126466 9.48524479 4.65403791 12.9609375 10.578125 C13.30382812 11.25359375 13.64671875 11.9290625 14 12.625 C11.58124906 15.04375094 9.82938847 15.32156158 6.5625 16.25 C1.86228586 17.91249415 1.86228586 17.91249415 -1 22 C-1.38665213 23.52916557 -1.71017697 25.07456463 -2 26.625 C-2.27199219 27.82382813 -2.54398437 29.02265625 -2.82421875 30.2578125 C-3.59400144 33.7061603 -4.313661 37.15923143 -5 40.625 C-10.20420709 41.71425265 -15.21584 42.23195566 -19.98974609 39.4765625 C-25.92627296 35.07331079 -30.86858825 29.95987104 -33.265625 22.89453125 C-33.71288705 17.49796148 -33.262567 14.13658541 -29.7421875 9.921875 C-26.94460764 7.56847913 -24.07868331 5.59135795 -21 3.625 C-19.74634796 2.60865495 -18.49563629 1.58865346 -17.25 0.5625 C-11.69083758 -2.75161606 -6.08650963 -1.48086953 0 0 Z " fill="#6C4EA0" transform="translate(320,144.375)"/>
<path d="M0 0 C5.05711399 2.87051423 8.55472026 6.72945461 10.67578125 12.1640625 C11.78500106 17.77887426 10.72832372 22.42779895 7.94921875 27.375 C5.07251126 31.4165093 1.23404326 34.22637434 -3.32421875 36.1640625 C-8.97364912 36.95498275 -13.49721988 36.34549357 -18.32421875 33.1640625 C-22.43502467 29.53125727 -25.92956565 26.26353318 -26.64453125 20.6484375 C-26.90825669 14.21353677 -26.23210784 10.30602183 -22.32421875 5.1640625 C-16.18057286 -0.99562424 -8.37527699 -3.0122845 0 0 Z " fill="#6D4EA1" transform="translate(320.32421875,324.8359375)"/>
<path d="M0 0 C5.29375153 2.51796948 9.62216154 6.64986347 12 12 C13.02462582 18.90890551 12.69231106 24.65020847 8.5 30.37890625 C5.05314561 34.10402233 1.07052884 36.63701113 -4.015625 37.23828125 C-9.71470105 37.42758622 -13.52029375 36.60834194 -18 33 C-22.53942184 28.46057816 -24.93994103 24.29421633 -25.03125 17.765625 C-24.62483067 11.70997697 -22.96793349 7.70332255 -18.37890625 3.5234375 C-12.73475994 -0.6774032 -6.83896106 -1.29609343 0 0 Z " fill="#6D4FA1" transform="translate(213,324)"/>
<path d="M0 0 C1.57163687 1.28588471 3.1307103 2.58840916 4.6484375 3.9375 C6.42021516 5.49148439 8.24860326 6.98127006 10.1015625 8.4375 C19.11753241 15.96406241 19.11753241 15.96406241 19.74609375 22.5 C19.83066281 24.8760229 19.81287225 27.23137031 19.76538086 29.6081543 C19.7155275 34.50585359 20.0284407 37.23248398 23.4375 41.0625 C25.26285522 42.74304625 26.78552702 43.89276351 29 45 C29 45.66 29 46.32 29 47 C18.11 47 7.22 47 -4 47 C-3.34 44.03 -2.68 41.06 -2 38 C-1.27786811 30.99668322 -3.03763318 27.1902574 -6.625 21.25 C-7.50673112 19.7846954 -8.37465902 18.31096949 -9.2265625 16.828125 C-9.61408691 16.1877832 -10.00161133 15.54744141 -10.40087891 14.88769531 C-11 13 -11 13 -10.24609375 10.90820312 C-8.57626453 8.35111356 -6.56350523 6.37597651 -4.375 4.25 C-3.55773437 3.45078125 -2.74046875 2.6515625 -1.8984375 1.828125 C-0.95871094 0.92320312 -0.95871094 0.92320312 0 0 Z " fill="#6C4EA0" transform="translate(259,138)"/>
<path d="M0 0 C6.07874014 4.36623485 8.04539939 9.02614446 9.58984375 16.23046875 C10 19 10 19 10 23 C-4.85 23 -19.7 23 -35 23 C-33.64159493 10.77435433 -33.64159493 10.77435433 -31 7 C-26.6930092 4.74602625 -22.20188539 3.35262066 -17.5625 1.9375 C-16.32177734 1.52306641 -15.08105469 1.10863281 -13.80273438 0.68164062 C-3.7251861 -2.53946864 -3.7251861 -2.53946864 0 0 Z " fill="#6D4FA1" transform="translate(360,162)"/>
<path d="M0 0 C3.19237028 1.56513096 4.12353228 4.08140921 5.7578125 7.171875 C6.67820312 8.86376953 6.67820312 8.86376953 7.6171875 10.58984375 C9.11887211 14.25547276 9.57153632 16.08204544 9.0078125 19.984375 C7.0278125 24.439375 7.0278125 24.439375 5.0078125 28.984375 C-6.8721875 28.984375 -18.7521875 28.984375 -30.9921875 28.984375 C-28.74336266 18.86466322 -25.75632268 14.13206549 -17.45703125 8.16015625 C-15.01228031 6.66005405 -12.53964259 5.30117546 -9.9921875 3.984375 C-9.24324219 3.56027344 -8.49429688 3.13617188 -7.72265625 2.69921875 C-2.75143435 -0.02157988 -2.75143435 -0.02157988 0 0 Z " fill="#6D4FA1" transform="translate(238.9921875,156.015625)"/>
<path d="M0 0 C0.825 -0.00386719 1.65 -0.00773437 2.5 -0.01171875 C6.12861104 1.0031584 7.61971582 2.8022109 10 5.6875 C10.61523438 8.9296875 10.61523438 8.9296875 10.59375 12.5625 C10.59117187 13.87734375 10.58859375 15.1921875 10.5859375 16.546875 C10.57143555 17.22685547 10.55693359 17.90683594 10.54199219 18.60742188 C10.50011193 20.68195557 10.50092899 22.7532394 10.5078125 24.828125 C10.3975902 36.07079913 10.3975902 36.07079913 7 40.6875 C3.78446554 43.01599047 0.88978623 43.23207007 -3 42.6875 C-6.42765324 40.61977415 -8.70709412 38.56621765 -10 34.6875 C-10.31503768 30.08834861 -10.3240758 25.48363992 -10.375 20.875 C-10.41238281 19.60333984 -10.44976562 18.33167969 -10.48828125 17.02148438 C-10.58718647 6.53203674 -10.58718647 6.53203674 -7.7890625 2.84375 C-4.85813044 0.57781933 -3.65066568 -0.10837914 0 0 Z " fill="#FCFBFD" transform="translate(250,413.3125)"/>
<path d="M0 0 C8.23291014 1.52008541 14.54484888 7.7022914 20.56640625 13.1484375 C19.19117299 15.99765943 17.75285911 18.1880299 15.69140625 20.5859375 C11.64400186 25.81383484 10.20305335 31.83290517 8.56640625 38.1484375 C6.58640625 38.1484375 4.60640625 38.1484375 2.56640625 38.1484375 C0.91730377 34.87924246 -0.72730901 31.60780917 -2.37109375 28.3359375 C-3.07395508 26.9427832 -3.07395508 26.9427832 -3.79101562 25.52148438 C-4.23896484 24.62880859 -4.68691406 23.73613281 -5.1484375 22.81640625 C-5.562146 21.99422607 -5.97585449 21.1720459 -6.40209961 20.32495117 C-7.43359375 18.1484375 -7.43359375 18.1484375 -8.43359375 15.1484375 C-9.13226563 15.02726563 -9.8309375 14.90609375 -10.55078125 14.78125 C-11.46085938 14.61367187 -12.3709375 14.44609375 -13.30859375 14.2734375 C-14.21351563 14.11101562 -15.1184375 13.94859375 -16.05078125 13.78125 C-18.43359375 13.1484375 -18.43359375 13.1484375 -20.43359375 11.1484375 C-15.67092449 2.10743822 -9.98138036 -0.90640782 0 0 Z " fill="#6C4DA0" transform="translate(189.43359375,146.8515625)"/>
<path d="M0 0 C20.13 0 40.26 0 61 0 C60.34 1.65 59.68 3.3 59 5 C58.01 7.64 57.02 10.28 56 13 C39.17 13 22.34 13 5 13 C4.01 10.03 3.02 7.06 2 4 C1.34 2.68 0.68 1.36 0 0 Z " fill="#6A4C9F" transform="translate(229,324)"/>
<path d="M0 0 C1.2065625 0.0309375 1.2065625 0.0309375 2.4375 0.0625 C5.21045297 8.861591 7.30685258 17.72397206 9.1875 26.75 C9.41010498 27.81347656 9.63270996 28.87695312 9.86206055 29.97265625 C11.4375 37.66628917 11.4375 37.66628917 11.4375 41.0625 C9.4575 41.0625 7.4775 41.0625 5.4375 41.0625 C5.1075 38.0925 4.7775 35.1225 4.4375 32.0625 C1.4675 32.0625 -1.5025 32.0625 -4.5625 32.0625 C-4.8925 35.0325 -5.2225 38.0025 -5.5625 41.0625 C-7.5425 41.0625 -9.5225 41.0625 -11.5625 41.0625 C-10.8964832 36.05843965 -10.01665107 31.13436612 -8.96875 26.1953125 C-8.81716431 25.47511932 -8.66557861 24.75492615 -8.50939941 24.01290894 C-8.19120734 22.50510029 -7.8718155 20.99754436 -7.55126953 19.49023438 C-7.05965499 17.17409634 -6.5745896 14.8566466 -6.08984375 12.5390625 C-5.77904086 11.07022886 -5.46785678 9.60147581 -5.15625 8.1328125 C-5.01143188 7.43809845 -4.86661377 6.7433844 -4.71740723 6.02761841 C-3.44260811 0.08396605 -3.44260811 0.08396605 0 0 Z " fill="#FAF9FC" transform="translate(279.5625,413.9375)"/>
<path d="M0 0 C19.1186624 1.61176903 19.1186624 1.61176903 23.72900391 5.43310547 C26.69636956 9.24251586 29 14.10929638 29 19 C18.11 19 7.22 19 -4 19 C-2 6 -2 6 0 0 Z " fill="#7053A3" transform="translate(152,166)"/>
<path d="M0 0 C2.80915461 1.27688846 4.50106764 2.31099817 6.3125 4.8125 C7.19072993 7.60686797 7.13228191 10.08979796 7 13 C5.02 13 3.04 13 1 13 C0.34 11.35 -0.32 9.7 -1 8 C-2.32 8 -3.64 8 -5 8 C-5.33 17.24 -5.66 26.48 -6 36 C-3.03 35.505 -3.03 35.505 0 35 C0.33 33.35 0.66 31.7 1 30 C2.98 30 4.96 30 7 30 C7.34751969 32.91916538 7.53280018 35.13195476 5.95703125 37.69921875 C4.15362765 39.88339965 2.55587616 41.72206192 0 43 C-3.9086795 43.25491388 -6.70942498 43.23289019 -10 41 C-12.37766704 37.43349944 -12.3554533 34.79165564 -12.40625 30.6640625 C-12.41765015 29.94769623 -12.42905029 29.23132996 -12.4407959 28.49325562 C-12.45967017 26.97863653 -12.47275372 25.46393579 -12.48046875 23.94921875 C-12.49988102 21.63915828 -12.56192259 19.33266218 -12.625 17.0234375 C-12.63806195 15.54950024 -12.64856218 14.07553759 -12.65625 12.6015625 C-12.6809436 11.91494537 -12.70563721 11.22832825 -12.7310791 10.52090454 C-12.70559456 7.75843968 -12.50208878 5.6176164 -10.72753906 3.43475342 C-7.13167404 0.29157217 -4.73051657 -0.80519431 0 0 Z " fill="#F6F4F9" transform="translate(223,413)"/>
<path d="M0 0 C1.98 0 3.96 0 6 0 C6 11.55 6 23.1 6 35 C9.96 35 13.92 35 18 35 C18 36.98 18 38.96 18 41 C12.06 41 6.12 41 0 41 C0 27.47 0 13.94 0 0 Z " fill="#FDFCFD" transform="translate(300,414)"/>
<path d="M0 0 C2.6875 0.875 2.6875 0.875 5 2 C5.02886338 6.47915328 5.04675187 10.95828291 5.0625 15.4375 C5.07087891 16.71689453 5.07925781 17.99628906 5.08789062 19.31445312 C5.09111328 20.52939453 5.09433594 21.74433594 5.09765625 22.99609375 C5.10289307 24.12200928 5.10812988 25.2479248 5.11352539 26.40795898 C5 29 5 29 4 30 C1 30.125 1 30.125 -2 30 C-4.71276838 27.28723162 -3.23516672 19.2170501 -3.25 15.5625 C-3.270625 14.29599609 -3.29125 13.02949219 -3.3125 11.72460938 C-3.31765625 10.51740234 -3.3228125 9.31019531 -3.328125 8.06640625 C-3.3374707 6.95209229 -3.34681641 5.83777832 -3.35644531 4.68969727 C-3.23881836 3.80209717 -3.12119141 2.91449707 -3 2 C-2.01 1.34 -1.02 0.68 0 0 Z " fill="#6F52A2" transform="translate(249,419)"/>
<path d="M0 0 C6.27 0 12.54 0 19 0 C17.10836145 4.72909637 15.08090324 9.35264944 13 14 C8.71 14 4.42 14 0 14 C0 9.38 0 4.76 0 0 Z " fill="#6F51A2" transform="translate(165,324)"/>
<path d="M0 0 C6.27 0 12.54 0 19 0 C19 4.62 19 9.24 19 14 C14.71 14 10.42 14 6 14 C4.99515796 12.04414675 3.99626195 10.08523763 3 8.125 C2.1646875 6.48917969 2.1646875 6.48917969 1.3125 4.8203125 C0 2 0 2 0 0 Z " fill="#6F51A2" transform="translate(335,324)"/>
<path d="M0 0 C3.4375 0.8125 3.4375 0.8125 5.4375 3.8125 C5.875 6.25 5.875 6.25 5.4375 8.8125 C3.25 11.1875 3.25 11.1875 0.4375 12.8125 C-2.44006134 12.74398663 -3.989777 12.1561338 -6.4375 10.6875 C-7.5625 8.8125 -7.5625 8.8125 -7.4375 5.25 C-6.21869651 0.46184342 -4.88800931 -0.25726365 0 0 Z " fill="#F7F6FA" transform="translate(313.5625,336.1875)"/>
<path d="M0 0 C1.875 1.125 1.875 1.125 3 3 C3.54400387 6.65259739 3.43774093 8.3433886 1.375 11.4375 C-1 13 -1 13 -4.125 12.875 C-7 12 -7 12 -9 10 C-9.55021834 3.94759825 -9.55021834 3.94759825 -7.875 1.0625 C-5.11019567 -0.50422245 -3.11811483 -0.38976435 0 0 Z " fill="#F9F8FB" transform="translate(210,336)"/>
<path d="M0 0 C1.79275866 3.11910856 2.34290718 5.67682428 2.625 9.25 C2.69976562 10.14203125 2.77453125 11.0340625 2.8515625 11.953125 C2.90054687 12.62859375 2.94953125 13.3040625 3 14 C1.35 14 -0.3 14 -2 14 C-1.85866501 12.22880197 -1.71176792 10.45804713 -1.5625 8.6875 C-1.48128906 7.70136719 -1.40007812 6.71523438 -1.31640625 5.69921875 C-1 3 -1 3 0 0 Z " fill="#7D62AB" transform="translate(279,427)"/>
</svg>
