<?xml version="1.0" encoding="UTF-8"?>
<svg version="1.1" xmlns="http://www.w3.org/2000/svg" width="521" height="595">
<path d="M0 0 C2.3581543 1.04711914 2.3581543 1.04711914 4.82421875 2.53515625 C5.75669434 3.08937256 6.68916992 3.64358887 7.64990234 4.21459961 C8.65230957 4.82440674 9.6547168 5.43421387 10.6875 6.0625 C12.86018566 7.35759561 15.03338004 8.65183809 17.20703125 9.9453125 C18.32932129 10.61723633 19.45161133 11.28916016 20.60791016 11.98144531 C25.99827379 15.18912679 31.43638249 18.31257357 36.875 21.4375 C39.06001428 22.69640903 41.24490947 23.95552477 43.4296875 25.21484375 C45.05729004 26.15239502 45.05729004 26.15239502 46.71777344 27.10888672 C52.14659942 30.23680148 57.57319281 33.36858448 63 36.5 C65.16665583 37.75001879 67.3333225 39.00001878 69.5 40.25 C108.5 62.75 147.5 85.25 186.5 107.75 C187.57354736 108.36931396 188.64709473 108.98862793 189.75317383 109.62670898 C191.90940213 110.87076792 194.06549049 112.11506942 196.22143555 113.35961914 C201.21406952 116.24130659 206.20787516 119.12087122 211.20706177 121.99118042 C212.95024732 122.9921981 214.69296372 123.99402783 216.43554688 124.99609375 C218.60129618 126.24118039 220.76788871 127.4848021 222.93554688 128.7265625 C224.88844698 129.85007969 226.82616439 131.00060377 228.74407387 132.18286133 C231.93012446 134.08981731 231.93012446 134.08981731 235.37474632 135.14477539 C239.46482107 136.81373016 242.47874998 138.29153964 245 142 C247.45970289 149.95222682 246.80234898 158.76207659 246.69942069 166.99054766 C246.6699237 170.47832014 246.71544625 173.96524753 246.75115967 177.45285034 C246.80889587 184.27836449 246.79651657 191.10201809 246.75879534 197.92760444 C246.72940618 203.47574589 246.72546689 209.02336672 246.73960495 214.57156372 C246.74259299 215.75710314 246.74259299 215.75710314 246.7456414 216.96659285 C246.74979794 218.57231688 246.75401271 220.17804076 246.75828509 221.78376448 C246.79533424 236.83232386 246.75276775 251.87985291 246.68288033 266.92824328 C246.62479935 279.83386292 246.63488833 292.73796247 246.69482422 305.64355469 C246.76443355 320.63903413 246.79176392 335.6336111 246.75186479 350.62922955 C246.74772376 352.22896498 246.74363694 353.82870056 246.73960495 355.42843628 C246.73759937 356.21548622 246.73559379 357.00253615 246.73352743 357.81343609 C246.72231408 363.35339412 246.74122335 368.89277853 246.77183914 374.43264771 C246.8083455 381.1867125 246.7983495 387.93881432 246.72918947 394.69265485 C246.69507115 398.13775287 246.68153473 401.57958239 246.72462845 405.02465439 C246.91618634 425.18151669 246.91618634 425.18151669 243.74201727 429.8503437 C240.31805565 433.10833767 236.44991125 434.49050909 232 436 C229.96219839 437.13730102 227.94360628 438.31057116 225.95703125 439.53515625 C223.90995526 440.71285349 221.86174178 441.88857538 219.8125 443.0625 C218.10957218 444.04151113 216.4066462 445.02052547 214.7038269 445.99972534 C212.95604539 447.00447299 211.20779404 448.00839914 209.45947266 449.01220703 C203.96860763 452.1672263 198.48452655 455.33397963 193 458.5 C190.83336859 459.75006112 188.66670186 461.000061 186.5 462.25 C185.4275 462.86875 184.355 463.4875 183.25 464.125 C136.66666667 491 90.08333333 517.875 43.5 544.75 C41.88955811 545.68066284 41.88955811 545.68066284 40.24658203 546.63012695 C38.09494184 547.86936686 35.93969272 549.10236325 33.78076172 550.32885742 C28.69871156 553.2260183 23.67586875 556.17102479 18.76715088 559.35220337 C16.45953453 560.84232712 14.13040507 562.29676135 11.79882812 563.74902344 C10.16929701 564.78435564 8.57219401 565.87018051 6.9765625 566.95703125 C3.93734265 568.83696106 1.48214891 570.1843641 -2 571 C-6.59161454 569.88962647 -10.09567646 567.59670977 -14 565 C-15.8307637 563.95055765 -17.66664199 562.90998147 -19.5078125 561.87890625 C-21.38231326 560.77701051 -23.25463557 559.67140225 -25.125 558.5625 C-27.23402286 557.32231764 -29.34341061 556.08275562 -31.453125 554.84375 C-32.53142578 554.20953125 -33.60972656 553.5753125 -34.72070312 552.921875 C-40.08994733 549.77515892 -45.48208191 546.66841381 -50.875 543.5625 C-52.49365967 542.62966187 -52.49365967 542.62966187 -54.14501953 541.67797852 C-56.33582951 540.41550269 -58.5267476 539.15321444 -60.71777344 537.89111328 C-66.14659942 534.76319852 -71.57319281 531.63141552 -77 528.5 C-79.16665583 527.24998121 -81.3333225 525.99998122 -83.5 524.75 C-105.16666667 512.25 -126.83333333 499.75 -148.5 487.25 C-149.57266113 486.63116943 -150.64532227 486.01233887 -151.75048828 485.37475586 C-153.91557071 484.12564482 -156.08060982 482.87645871 -158.24560547 481.62719727 C-163.68615706 478.48797691 -169.12747216 475.35009437 -174.5703125 472.21484375 C-185.99329243 465.63290197 -197.39938064 459.02408165 -208.77685547 452.36376953 C-214.36193934 449.10110425 -219.96421879 445.87085477 -225.5859375 442.671875 C-226.22510101 442.30795151 -226.86426453 441.94402802 -227.52279663 441.56907654 C-230.65078819 439.7888396 -233.78070839 438.01212329 -236.91357422 436.24047852 C-238.04037598 435.60037842 -239.16717773 434.96027832 -240.328125 434.30078125 C-241.82714355 433.45253784 -241.82714355 433.45253784 -243.35644531 432.5871582 C-248.07189974 429.7560565 -248.07189974 429.7560565 -250 428 C-250.514054 425.80392015 -250.514054 425.80392015 -250.534091 423.18942833 C-250.55130567 422.19275434 -250.56852035 421.19608035 -250.58625668 420.16920412 C-250.58483711 419.07127051 -250.58341754 417.97333689 -250.58195496 416.84213257 C-250.59595614 415.67802341 -250.60995733 414.51391425 -250.62438279 413.31452906 C-250.65895597 410.07772197 -250.67545253 406.84140165 -250.68414819 403.6044395 C-250.69770735 400.11541443 -250.73398931 396.62661171 -250.766922 393.13772583 C-250.84122483 384.70883353 -250.87692575 376.27994024 -250.90850088 367.85079712 C-250.92422755 363.88110572 -250.94411816 359.9114355 -250.96358681 355.94176102 C-251.02682052 342.74474813 -251.08059989 329.54775232 -251.10570812 316.35060692 C-251.11232788 312.92563237 -251.11896788 309.50065786 -251.12573242 306.07568359 C-251.12740507 305.22442507 -251.12907772 304.37316654 -251.13080106 303.4961123 C-251.15964416 289.70869221 -251.25309111 275.92251293 -251.37383398 262.13562195 C-251.49679858 247.979788 -251.56325903 233.82458273 -251.57400876 219.66821063 C-251.58141872 211.72001442 -251.61336726 203.77358608 -251.7082119 195.82590866 C-251.78879422 189.05614312 -251.81798333 182.28859678 -251.78057345 175.51841252 C-251.76304027 172.0645001 -251.76954092 168.61514051 -251.84191513 165.16184235 C-252.19626885 144.94998991 -252.19626885 144.94998991 -248.5439837 140.04430437 C-245.06662635 136.94713682 -241.25117043 135.1976047 -236.88084185 133.69804311 C-233.96278116 132.61505351 -231.4046127 130.99324434 -228.76171875 129.3671875 C-226.73774693 128.20179059 -224.71298949 127.03775716 -222.6875 125.875 C-220.42055224 124.57034843 -218.15362576 123.26565987 -215.88671875 121.9609375 C-214.74509277 121.30448242 -213.6034668 120.64802734 -212.42724609 119.97167969 C-206.94844203 116.81974768 -201.47438887 113.65959203 -196 110.5 C-193.83335774 109.2499577 -191.66669103 107.99995776 -189.5 106.75 C-188.4275 106.13125 -187.355 105.5125 -186.25 104.875 C-72.5 39.25 -72.5 39.25 -69.24902344 37.37451172 C-67.08552524 36.12628966 -64.92211357 34.87791761 -62.75878906 33.62939453 C-57.29434983 30.47594744 -51.82836355 27.32523904 -46.359375 24.1796875 C-45.26455811 23.5494165 -44.16974121 22.91914551 -43.04174805 22.26977539 C-40.86677871 21.01783316 -38.69117138 19.76699857 -36.51489258 18.51733398 C-31.19395649 15.45376472 -25.90219009 12.35203512 -20.65234375 9.16796875 C-19.64655273 8.56098145 -18.64076172 7.95399414 -17.60449219 7.32861328 C-15.71000737 6.18158422 -13.82096727 5.02549597 -11.93847656 3.85888672 C-11.09639648 3.34986816 -10.25431641 2.84084961 -9.38671875 2.31640625 C-8.29170044 1.64266968 -8.29170044 1.64266968 -7.17456055 0.95532227 C-4.52510994 -0.20862746 -2.87133132 -0.34449319 0 0 Z " fill="#F47A26" transform="translate(263,12)"/>
<path d="M0 0 C4.57738026 2.4118293 7.7671278 5.57049551 11.3125 9.25 C16.44817966 14.50079825 16.44817966 14.50079825 21.9375 19.375 C27.90344383 24.4454216 33.05027977 30.41705184 38.32958984 36.18115234 C39.79014175 37.77149313 41.26085255 39.35114602 42.73828125 40.92578125 C60.42522207 59.96674625 75.96895503 81.9381896 86 106 C86.54914063 107.31097656 86.54914063 107.31097656 87.109375 108.6484375 C97.83830924 136.1310152 102.74103784 172.14365646 91.20507812 199.91357422 C87.64581944 207.78533998 82.71218356 214.56686124 77 221 C76.40832031 221.68578125 75.81664062 222.3715625 75.20703125 223.078125 C67.57358881 231.34633132 55.67453778 239.35094386 45 243 C44.01 242.67 43.02 242.34 42 242 C42.4125 241.52433594 42.825 241.04867187 43.25 240.55859375 C58.74933474 221.77256973 63.42684158 200.95834877 62 177 C59.28036649 152.93967642 42.2842741 130.78944245 26.43066406 113.56103516 C25.08607566 112.09391942 23.78730265 110.58518642 22.4921875 109.07421875 C20.11179262 106.69601479 20.11179262 106.69601479 16.6875 106.6875 C15.800625 106.790625 14.91375 106.89375 14 107 C13.95512451 107.68924561 13.91024902 108.37849121 13.86401367 109.08862305 C12.10005589 135.38982676 12.10005589 135.38982676 9 145 C8.66226563 146.05316406 8.32453125 147.10632813 7.9765625 148.19140625 C5.49511522 154.97791475 2.59421505 160.54643922 -4 164 C-8.93633247 165.41513747 -12.56346534 164.71199034 -17.12890625 162.44921875 C-19.19514235 161.22468864 -21.23450029 159.95316736 -23.23828125 158.62890625 C-25.92981573 157.04139581 -27.92753254 156.39735007 -31 156 C-42.43374073 173.59660807 -47.57574003 190.80082648 -44.125 211.75 C-42.05200248 220.61104822 -37.43972827 228.38729866 -32.98388672 236.25097656 C-32.29069364 237.48324337 -31.6322971 238.73540579 -31 240 C-51.14828678 233.77508155 -68.68364616 219.09586635 -79.02929688 200.87011719 C-89.08567778 181.49590247 -87.92193357 158.7850555 -81.93359375 138.36328125 C-75.3407577 118.23663655 -60.13457707 103.62332222 -45.81640625 88.67578125 C-21.86763262 63.48987271 -8.04019907 33.61195418 0 0 Z " fill="#F47A27" transform="translate(254,118)"/>
<path d="M0 0 C2.25390625 1.6796875 2.25390625 1.6796875 4.5625 3.875 C5.44679688 4.70515625 6.33109375 5.5353125 7.2421875 6.390625 C8.60730469 7.68226562 8.60730469 7.68226562 10 9 C11.24136719 10.10601562 11.24136719 10.10601562 12.5078125 11.234375 C19.86109968 17.79445045 26.83829692 24.72992605 33.8125 31.6875 C34.5622963 32.433414 34.5622963 32.433414 35.32723999 33.19439697 C41.103618 38.9471989 46.7526216 44.75556183 52 51 C52.51457764 51.60787354 53.02915527 52.21574707 53.55932617 52.84204102 C73.59481611 76.70556551 91.66751454 103.28905194 99 134 C99.17515137 134.7331543 99.35030273 135.46630859 99.53076172 136.22167969 C100.4397101 140.06545967 101.32349216 143.91496301 102.16796875 147.7734375 C102.30485107 148.39653809 102.4417334 149.01963867 102.58276367 149.66162109 C104.09023311 158.11015375 104.28517385 166.49550966 104.35009766 175.05053711 C104.3665327 176.62588401 104.39365503 178.20116028 104.43212891 179.77612305 C104.78845142 194.52012907 102.4018716 207.95598121 95.125 221 C94.78476807 221.61045166 94.44453613 222.22090332 94.09399414 222.84985352 C91.17369031 227.96665998 87.83095197 232.54087807 84 237 C83.49339844 237.6496875 82.98679687 238.299375 82.46484375 238.96875 C70.73430352 253.49502094 52.2230202 263.55001074 34 267 C30.62926626 267.25535862 27.36782897 267.27935908 24 267 C23.23046875 264.28125 23.23046875 264.28125 23 261 C24.73828125 258.71875 24.73828125 258.71875 27.3125 256.5 C41.13553683 243.56877199 52.29657259 224.88300303 53.3125 205.65234375 C53.50445709 198.3081779 53.36636264 191.01236259 51 184 C50.68160156 183.04351562 50.36320313 182.08703125 50.03515625 181.1015625 C43.66493384 163.38505168 33.77539742 148.78489749 21 135 C20.93006836 135.54825439 20.86013672 136.09650879 20.78808594 136.66137695 C18.79892536 151.90148102 16.42053363 168.57946637 5 180 C0.05586055 183.60572594 -4.47848061 185.79782633 -10.671875 185.4296875 C-17.17755751 184.22897428 -23.18604677 181.05997538 -29 178 C-29.41572266 179.29744141 -29.41572266 179.29744141 -29.83984375 180.62109375 C-31.30261499 184.88135343 -33.08746962 188.96725191 -34.87890625 193.09765625 C-39.46354821 204.96660738 -38.13752537 219.71162382 -33.67578125 231.375 C-28.97241752 241.54917609 -23.17119791 250.4008265 -15.5546875 258.6328125 C-14 261 -14 261 -14.1953125 263.7421875 C-15 266 -15 266 -16 267 C-22.35427368 267.66051003 -26.80785269 265.7462855 -32.5 263.0625 C-33.81460205 262.45450562 -33.81460205 262.45450562 -35.15576172 261.83422852 C-60.29251278 249.98025145 -80.11052064 233.4022947 -92.02734375 207.98828125 C-94.9005333 199.16101214 -95.32924958 190.34572306 -95.25 181.125 C-95.24250732 179.97604248 -95.23501465 178.82708496 -95.22729492 177.64331055 C-94.90935877 152.64358214 -86.67571555 131.64096452 -70 113 C-69.24589844 112.13761719 -68.49179688 111.27523437 -67.71484375 110.38671875 C-64.21366905 106.42913019 -60.63301369 102.58956844 -56.875 98.875 C-30.95335743 73.20799046 -15.71238105 41.89066712 -8.453125 6.3203125 C-8.01776301 4.20287008 -7.51619688 2.09920063 -7 0 C-4.23106304 -1.38446848 -2.93795884 -0.88872176 0 0 Z M-1 12 C-1.15033691 12.54712646 -1.30067383 13.09425293 -1.45556641 13.65795898 C-9.87746664 44.14039987 -20.60709763 71.19176994 -42 95 C-42.79664063 95.90621094 -43.59328125 96.81242187 -44.4140625 97.74609375 C-47.87725933 101.65557883 -51.41049785 105.45327522 -55.125 109.125 C-73.94317946 127.79500482 -86.84359808 150.05779564 -87.43139648 177.1940918 C-87.47640776 198.347593 -81.78519755 214.90165247 -66.8125 230.25 C-58.72410476 238.15865312 -49.92187528 243.69814484 -40 249 C-38.36804688 249.88751953 -38.36804688 249.88751953 -36.703125 250.79296875 C-35.36507812 251.39044922 -35.36507812 251.39044922 -34 252 C-33.34 251.67 -32.68 251.34 -32 251 C-32.53109375 250.09378906 -33.0621875 249.18757812 -33.609375 248.25390625 C-43.38323191 231.46274357 -49.31975038 215.78432566 -44.875 195.875 C-42.0551724 185.99230232 -37.16291488 176.84092062 -32 168 C-27.65805059 168.56152716 -24.93893176 170.16585952 -21.3125 172.5625 C-16.54700526 175.38671345 -12.90449532 177.15809573 -7.3125 176.65625 C-1.44130281 174.99009944 1.6651624 171.23078302 4.72265625 166.12109375 C11.70262771 151.5952072 12.35731578 134.86765173 13 119 C16.45194445 118.69875735 18.35607403 118.54486908 21.23828125 120.58203125 C22.26501953 121.68611328 22.26501953 121.68611328 23.3125 122.8125 C24.46685547 124.05193359 24.46685547 124.05193359 25.64453125 125.31640625 C35.58965899 136.64692491 44.26382193 148.39070507 51.375 161.6875 C51.79193115 162.45900391 52.2088623 163.23050781 52.63842773 164.02539062 C55.50555433 169.52933844 57.40213462 175.01336371 59 181 C59.20310791 181.66443115 59.40621582 182.3288623 59.61547852 183.01342773 C61.27003814 188.7287139 61.34599744 194.32872139 61.3125 200.25 C61.30512817 201.78297729 61.30512817 201.78297729 61.29760742 203.34692383 C61.18481304 210.60451916 60.54870517 217.15227406 58 224 C57.64808594 224.97582031 57.29617188 225.95164062 56.93359375 226.95703125 C52.99896917 237.07278222 47.50164531 246.33113959 41 255 C45.52738817 254.38772465 49.2143528 252.58127357 53.1875 250.4375 C53.84951416 250.08107422 54.51152832 249.72464844 55.19360352 249.35742188 C60.98807188 246.15289995 66.07460228 242.43461076 71 238 C72.02480469 237.11441406 72.02480469 237.11441406 73.0703125 236.2109375 C82.37776672 227.63347969 88.98286616 215.90962033 93 204 C93.31839844 203.06671875 93.63679687 202.1334375 93.96484375 201.171875 C103.35766472 168.10221959 91.61985449 127.75801074 75.65625 98.58203125 C68.67740948 86.25968248 60.24062202 74.71036563 51 64 C50.03143991 62.84859088 49.0640666 61.69618279 48.09765625 60.54296875 C42.9532534 54.4341945 37.72156124 48.55862611 31.98828125 42.98828125 C30.16627714 41.16627714 28.52127347 39.29219595 26.875 37.3125 C19.03884593 28.17337885 9.45566583 19.44144115 0 12 C-0.33 12 -0.66 12 -1 12 Z " fill="#FEFBF8" transform="translate(255,106)"/>
<path d="M0 0 C14 0 14 0 18 2 C20.36398846 5.54598268 20.29818374 7.23329099 20.3125 11.4375 C20.32925781 12.57058594 20.34601563 13.70367187 20.36328125 14.87109375 C19.96389341 18.31098259 19.07008538 19.35208591 17 22 C16.95744924 24.01769299 16.95744924 24.01769299 17.625 26.0625 C17.83125 26.8359375 18.0375 27.609375 18.25 28.40625 C18.4975 29.2621875 18.745 30.118125 19 31 C19.54166667 33.02083333 20.08333333 35.04166667 20.625 37.0625 C21.0812105 38.70892303 21.53877773 40.35497391 22 42 C19.69 42 17.38 42 15 42 C14.67386719 40.78441406 14.34773437 39.56882812 14.01171875 38.31640625 C13.5709704 36.73158772 13.12952818 35.14696204 12.6875 33.5625 C12.47416016 32.76005859 12.26082031 31.95761719 12.04101562 31.13085938 C11.82509766 30.36708984 11.60917969 29.60332031 11.38671875 28.81640625 C11.19295654 28.10943604 10.99919434 27.40246582 10.79956055 26.67407227 C10.53570557 26.12162842 10.27185059 25.56918457 10 25 C9.01 24.67 8.02 24.34 7 24 C7 29.94 7 35.88 7 42 C4.69 42 2.38 42 0 42 C0 28.14 0 14.28 0 0 Z " fill="#FEF6F1" transform="translate(229,414)"/>
<path d="M0 0 C1.98 0 3.96 0 6 0 C6.7727205 1.83253872 7.54306961 3.66607742 8.3125 5.5 C8.74175781 6.5209375 9.17101562 7.541875 9.61328125 8.59375 C11.14926487 12.36664499 12.56967366 16.18579643 14 20 C14.33 13.4 14.66 6.8 15 0 C16.98 0 18.96 0 21 0 C21 13.86 21 27.72 21 42 C19.02 42 17.04 42 15 42 C12.36 34.74 9.72 27.48 7 20 C6.67 27.26 6.34 34.52 6 42 C4.02 42 2.04 42 0 42 C0 28.14 0 14.28 0 0 Z " fill="#FEFDFB" transform="translate(115,414)"/>
<path d="M0 0 C1.98 0 3.96 0 6 0 C7.76219373 7.31468577 9.518822 14.63068202 11.26904297 21.94824219 C11.86528444 24.43756027 12.46514374 26.92595517 13.06640625 29.4140625 C13.33324219 30.53554688 13.60007812 31.65703125 13.875 32.8125 C14.09929687 33.74707031 14.32359375 34.68164062 14.5546875 35.64453125 C15 38 15 38 15 42 C13.02 42 11.04 42 9 42 C8.34 39.03 7.68 36.06 7 33 C4.36 33 1.72 33 -1 33 C-1.144375 34.299375 -1.28875 35.59875 -1.4375 36.9375 C-1.875 40.875 -1.875 40.875 -3 42 C-4.99958364 42.04080783 -7.00045254 42.04254356 -9 42 C-6.26931001 27.93465827 -3.2427955 13.956031 0 0 Z " fill="#FEF8F4" transform="translate(266,414)"/>
<path d="M0 0 C1.98 0 3.96 0 6 0 C8.14623795 8.48096179 10.20427542 16.97947958 12.1875 25.5 C12.46013672 26.65242188 12.73277344 27.80484375 13.01367188 28.9921875 C13.39942383 30.65121094 13.39942383 30.65121094 13.79296875 32.34375 C14.0252417 33.33568359 14.25751465 34.32761719 14.49682617 35.34960938 C15 38 15 38 15 42 C13.02 42 11.04 42 9 42 C8.34 39.03 7.68 36.06 7 33 C4.36 33 1.72 33 -1 33 C-1.33 35.97 -1.66 38.94 -2 42 C-4.31 42 -6.62 42 -9 42 C-7.27704066 33.09216452 -5.32302282 24.23555229 -3.375 15.375 C-3.04679098 13.87892468 -2.71866535 12.38283106 -2.390625 10.88671875 C-1.59471052 7.25760122 -0.79767066 3.62873198 0 0 Z " fill="#FEF8F4" transform="translate(153,414)"/>
<path d="M0 0 C1.65 0 3.3 0 5 0 C6.89171207 6.38795525 8.48749125 12.84001879 10.0625 19.3125 C10.33126953 20.38951172 10.60003906 21.46652344 10.87695312 22.57617188 C12.44886437 29.04805581 13.55913888 35.35166512 14 42 C12.02 42 10.04 42 8 42 C7.67 39.03 7.34 36.06 7 33 C4.03 33 1.06 33 -2 33 C-2.33 35.97 -2.66 38.94 -3 42 C-4.98 42 -6.96 42 -9 42 C-8.39447052 36.67946354 -7.55335248 31.52649095 -6.40625 26.2890625 C-6.25466431 25.59485199 -6.10307861 24.90064148 -5.94689941 24.18539429 C-5.62925307 22.73470713 -5.3098599 21.28440142 -4.98876953 19.83447266 C-4.49684159 17.61072249 -4.01172256 15.38556162 -3.52734375 13.16015625 C-1.13702343 2.27404686 -1.13702343 2.27404686 0 0 Z " fill="#FEF9F5" transform="translate(371,414)"/>
<path d="M0 0 C3.0625 2.0625 3.0625 2.0625 5 5 C5.3125 8.8125 5.3125 8.8125 5 12 C3.02 12 1.04 12 -1 12 C-1.33 10.35 -1.66 8.7 -2 7 C-3.66611905 6.957279 -5.33382885 6.95936168 -7 7 C-8.29545448 8.07029129 -8.29545448 8.07029129 -8.11352539 10.59204102 C-8.10828857 11.71795654 -8.10305176 12.84387207 -8.09765625 14.00390625 C-8.09443359 15.21884766 -8.09121094 16.43378906 -8.08789062 17.68554688 C-8.07951172 18.96494141 -8.07113281 20.24433594 -8.0625 21.5625 C-8.05798828 22.84576172 -8.05347656 24.12902344 -8.04882812 25.45117188 C-8.03699545 28.63416022 -8.02051068 31.81705762 -8 35 C-6.33388095 35.042721 -4.66617115 35.04063832 -3 35 C-1.33657163 33.33657163 -1.63951903 31.2174291 -1.4375 28.9375 C-1.35371094 28.01839844 -1.26992188 27.09929687 -1.18359375 26.15234375 C-1.12300781 25.44207031 -1.06242187 24.73179687 -1 24 C-2.32 24 -3.64 24 -5 24 C-5 22.35 -5 20.7 -5 19 C-1.7 19 1.6 19 5 19 C5.1083667 21.7302389 5.18746694 24.45614543 5.25 27.1875 C5.30027344 28.34088867 5.30027344 28.34088867 5.3515625 29.51757812 C5.42066039 33.54253008 5.31755003 35.49808724 3.109375 38.98828125 C0.42177287 41.55145736 -0.51988158 41.94460172 -4.25 42.375 C-9.19272958 41.88072704 -10.53828301 40.46171699 -14 37 C-16.10090361 32.79819278 -15.26787481 27.3558819 -15.29516602 22.73364258 C-15.31235006 20.70519971 -15.35623375 18.67840006 -15.40039062 16.65039062 C-15.41295898 14.72549805 -15.41295898 14.72549805 -15.42578125 12.76171875 C-15.44036377 11.58569092 -15.45494629 10.40966309 -15.4699707 9.19799805 C-14.90639629 5.36305714 -13.68586386 3.7389874 -11 1 C-7.51339956 -0.74330022 -3.80407065 -0.5706106 0 0 Z " fill="#FEF9F6" transform="translate(348,414)"/>
<path d="M0 0 C1.98 0 3.96 0 6 0 C6.33 11.22 6.66 22.44 7 34 C8.32 34.33 9.64 34.66 11 35 C12.97829072 33.02170928 12.25503932 29.17672973 12.31640625 26.46484375 C12.33718735 25.71159317 12.35796844 24.95834259 12.37937927 24.18226624 C12.44495425 21.7674401 12.50379621 19.35250202 12.5625 16.9375 C12.6056777 15.30402471 12.64929173 13.6705609 12.69335938 12.03710938 C12.80064362 8.02485536 12.90188821 4.01248836 13 0 C14.98 0 16.96 0 19 0 C19.0990984 5.03534236 19.1715758 10.07011342 19.21972656 15.10620117 C19.23980505 16.81821586 19.26707392 18.53016228 19.30175781 20.24194336 C19.35044401 22.70704008 19.37300573 25.1712279 19.390625 27.63671875 C19.41127014 28.39836838 19.43191528 29.16001801 19.45318604 29.94474792 C19.45475467 33.68491609 19.14053729 35.78097498 17.10058594 38.96020508 C14.38286106 41.59927892 13.50741824 41.95213035 9.6875 42.3125 C5.42463889 41.95124058 3.98007946 40.98007946 1 38 C-0.58645357 34.82709287 -0.12078213 31.41174616 -0.09765625 27.9296875 C-0.0962413 27.13345978 -0.09482635 26.33723206 -0.09336853 25.51687622 C-0.08776345 22.9695462 -0.07521014 20.42230353 -0.0625 17.875 C-0.05748565 16.14974085 -0.05292263 14.42448033 -0.04882812 12.69921875 C-0.03779237 8.46611209 -0.02052436 4.23307086 0 0 Z " fill="#FEFBF8" transform="translate(199,414)"/>
<path d="M0 0 C2.3828125 0.515625 2.3828125 0.515625 5.5078125 2.578125 C7.79214767 6.15691677 7.79158941 8.34610051 7.3828125 12.515625 C5.4028125 12.515625 3.4228125 12.515625 1.3828125 12.515625 C1.0528125 10.535625 0.7228125 8.555625 0.3828125 6.515625 C-1.5971875 7.175625 -3.5771875 7.835625 -5.6171875 8.515625 C-5.6171875 10.495625 -5.6171875 12.475625 -5.6171875 14.515625 C-4.46089844 15.13050781 -4.46089844 15.13050781 -3.28125 15.7578125 C-2.27835937 16.29664063 -1.27546875 16.83546875 -0.2421875 17.390625 C0.75554687 17.92429687 1.75328125 18.45796875 2.78125 19.0078125 C5.3828125 20.515625 5.3828125 20.515625 7.3828125 22.515625 C7.68359375 25.37890625 7.68359375 25.37890625 7.6953125 28.828125 C7.71207031 29.95863281 7.72882813 31.08914063 7.74609375 32.25390625 C7.34704344 35.83677728 6.54177095 37.65892354 4.3828125 40.515625 C0.69783454 42.97227697 -2.33690536 43.21648991 -6.6171875 42.515625 C-9.4272221 40.72198589 -11.12659218 39.49681565 -12.6171875 36.515625 C-12.6571795 34.51602488 -12.66065549 32.51515258 -12.6171875 30.515625 C-10.6371875 30.515625 -8.6571875 30.515625 -6.6171875 30.515625 C-5.9571875 32.165625 -5.2971875 33.815625 -4.6171875 35.515625 C-2.1421875 35.020625 -2.1421875 35.020625 0.3828125 34.515625 C0.3828125 31.545625 0.3828125 28.575625 0.3828125 25.515625 C-0.30425781 25.21269531 -0.99132812 24.90976562 -1.69921875 24.59765625 C-8.94267992 21.2298095 -8.94267992 21.2298095 -11.7421875 18.265625 C-13.21709327 13.63020686 -13.70237715 9.20119534 -11.84375 4.6015625 C-8.76627074 -0.00374335 -5.0971212 -0.33473632 0 0 Z " fill="#FEFAF6" transform="translate(405.6171875,413.484375)"/>
<path d="M0 0 C6.93 0 13.86 0 21 0 C21 1.98 21 3.96 21 6 C18.69 6 16.38 6 14 6 C14 17.88 14 29.76 14 42 C11.69 42 9.38 42 7 42 C7 30.12 7 18.24 7 6 C4.69 6 2.38 6 0 6 C0 4.02 0 2.04 0 0 Z " fill="#FEF0E6" transform="translate(170,414)"/>
<path d="M0 0 C2.31 0 4.62 0 7 0 C7 11.55 7 23.1 7 35 C10.63 35 14.26 35 18 35 C19 36 19 36 19 42 C12.73 42 6.46 42 0 42 C0 28.14 0 14.28 0 0 Z " fill="#FEEEE3" transform="translate(289,414)"/>
<path d="M0 0 C2.33294775 -0.04241723 4.66702567 -0.04092937 7 0 C8.66684015 1.66684015 8.21072764 3.65643069 8.25 5.9375 C8.28867188 7.28134766 8.28867188 7.28134766 8.328125 8.65234375 C8.21984375 9.42707031 8.1115625 10.20179688 8 11 C5 13 5 13 0 13 C0 8.71 0 4.42 0 0 Z " fill="#F5873B" transform="translate(235,420)"/>
<path d="M0 0 C2.18994248 3.28491373 2.35277339 4.83095639 2.625 8.6875 C2.69976562 9.68136719 2.77453125 10.67523438 2.8515625 11.69921875 C2.90054687 12.45847656 2.94953125 13.21773438 3 14 C1.35 14 -0.3 14 -2 14 C-1.85795259 12.41632253 -1.71119847 10.83306682 -1.5625 9.25 C-1.48128906 8.36828125 -1.40007812 7.4865625 -1.31640625 6.578125 C-1.03761535 4.30649548 -0.61209423 2.20148177 0 0 Z " fill="#F68F47" transform="translate(373,427)"/>
<path d="M0 0 C0.33 0 0.66 0 1 0 C1.33820166 1.5823006 1.67035939 3.16589375 2 4.75 C2.185625 5.63171875 2.37125 6.5134375 2.5625 7.421875 C3 10 3 10 3 14 C1.35 14 -0.3 14 -2 14 C-1.85970581 11.8537974 -1.71261836 9.70803782 -1.5625 7.5625 C-1.48128906 6.36753906 -1.40007812 5.17257812 -1.31640625 3.94140625 C-1 1 -1 1 0 0 Z " fill="#F69049" transform="translate(269,427)"/>
<path d="M0 0 C0.33 0 0.66 0 1 0 C1.66 4.62 2.32 9.24 3 14 C1.35 14 -0.3 14 -2 14 C-1.85970581 11.8537974 -1.71261836 9.70803782 -1.5625 7.5625 C-1.48128906 6.36753906 -1.40007812 5.17257812 -1.31640625 3.94140625 C-1 1 -1 1 0 0 Z " fill="#F58B42" transform="translate(156,427)"/>
<path d="M0 0 C0.99 1.32 1.98 2.64 3 4 C2.67 4.99 2.34 5.98 2 7 C1.85596652 8.33363703 1.75409577 9.67218046 1.68359375 11.01171875 C1.64169922 11.76904297 1.59980469 12.52636719 1.55664062 13.30664062 C1.51732422 14.09232422 1.47800781 14.87800781 1.4375 15.6875 C1.37272461 16.88342773 1.37272461 16.88342773 1.30664062 18.10351562 C1.20072632 20.06881447 1.09987449 22.03438496 1 24 C0.67 24 0.34 24 0 24 C0 16.08 0 8.16 0 0 Z " fill="#F79856" transform="translate(121,432)"/>
</svg>
