<?xml version="1.0" encoding="UTF-8"?>
<svg version="1.1" xmlns="http://www.w3.org/2000/svg" width="521" height="595">
<path d="M0 0 C1.93527142 0.95454667 3.8329214 1.98709091 5.69921875 3.0703125 C7.36911865 4.03239624 7.36911865 4.03239624 9.07275391 5.01391602 C10.27773761 5.71749364 11.48265113 6.4211915 12.6875 7.125 C13.94411816 7.85213915 15.20112306 8.57861033 16.45849609 9.30444336 C19.04627864 10.7996765 21.63175689 12.2987785 24.21533203 13.80126953 C28.78153198 16.45609767 33.3593331 19.09067624 37.93676758 21.72607422 C42.22090654 24.19374351 46.50148784 26.66755173 50.78222656 29.14111328 C56.18670645 32.26324605 61.59347412 35.38141204 67 38.5 C69.1666775 39.74998122 71.33334417 40.99998121 73.5 42.25 C75.10875 43.178125 75.10875 43.178125 76.75 44.125 C106 61 135.25 77.875 164.5 94.75 C165.57266113 95.36883057 166.64532227 95.98766113 167.75048828 96.62524414 C169.91557071 97.87435518 172.08060982 99.12354129 174.24560547 100.37280273 C179.68615706 103.51202309 185.12747216 106.64990563 190.5703125 109.78515625 C201.39364167 116.02127925 212.20821351 122.27191602 223 128.5625 C223.9605127 129.12203369 224.92102539 129.68156738 225.91064453 130.25805664 C226.82700684 130.79293701 227.74336914 131.32781738 228.6875 131.87890625 C229.47511719 132.3385376 230.26273437 132.79816895 231.07421875 133.27172852 C232.03972656 133.84205811 233.00523437 134.4123877 234 135 C234.80221147 135.35404408 235.60442294 135.70808815 236.43094385 136.07286084 C243.43041791 139.49599316 243.43041791 139.49599316 244.92275357 143.43657184 C245.26528457 146.53535514 245.28514189 149.50018701 245.20254517 152.61715698 C245.21536154 154.3828161 245.21536154 154.3828161 245.22843683 156.18414509 C245.24204895 159.44432806 245.21087079 162.70052077 245.16065621 165.96023178 C245.11742255 169.4775386 245.13208846 172.99466343 245.13967896 176.51216125 C245.14491971 182.60375813 245.11357829 188.694283 245.05730057 194.7856102 C244.9759875 203.59242402 244.94998224 212.3987201 244.93742065 221.20586862 C244.91554061 235.49496141 244.84900932 249.78348296 244.75439453 264.07226562 C244.66258745 277.95146834 244.59181185 291.83051584 244.54931641 305.70996094 C244.54668917 306.56565233 244.54406194 307.42134372 244.54135509 308.30296515 C244.5283046 312.59576882 244.51566755 316.88857358 244.50323606 321.18137908 C244.3995884 356.78799327 244.22347491 392.39394392 244 428 C243.21529327 428.44770248 242.43058655 428.89540497 241.62210083 429.35667419 C238.64887394 431.05334828 235.67592725 432.75051143 232.70315552 434.44798279 C231.42807644 435.17593502 230.152893 435.90370449 228.87759399 436.63127136 C220.51888972 441.40017502 212.18161662 446.20319338 203.875 451.0625 C202.85054779 451.66165726 201.82609558 452.26081451 200.77059937 452.87812805 C199.85114532 453.41592392 198.93169128 453.95371979 197.984375 454.5078125 C188.44177067 460.08429156 178.85942207 465.59211491 169.28222656 471.10888672 C163.85340058 474.23680148 158.42680719 477.36858448 153 480.5 C150.83334417 481.75001879 148.6666775 483.00001878 146.5 484.25 C145.4275 484.86875 144.355 485.4875 143.25 486.125 C55.50000001 536.75 55.50000001 536.75 52.24658203 538.62695312 C50.09128689 539.8704051 47.93601327 541.11389436 45.78076172 542.35742188 C40.77662326 545.24462875 35.7722948 548.1315043 30.76715088 551.01696777 C29.01658759 552.02619104 27.26609589 553.03553836 25.515625 554.04492188 C23.33607835 555.3016766 21.15640168 556.55820586 18.9765625 557.81445312 C17.97625 558.39130859 16.9759375 558.96816406 15.9453125 559.5625 C14.96852539 560.119375 13.99173828 560.67625 12.98535156 561.25 C10.89298975 562.47653332 8.82891001 563.75200427 6.78808594 565.0625 C5.74168945 565.7225 4.69529297 566.3825 3.6171875 567.0625 C2.68245605 567.67222656 1.74772461 568.28195312 0.78466797 568.91015625 C-2 570 -2 570 -5.01611328 569.36791992 C-7.89648079 568.04745689 -10.6251479 566.65167171 -13.359375 565.05078125 C-14.37902344 564.4578125 -15.39867187 563.86484375 -16.44921875 563.25390625 C-17.53847656 562.61324219 -18.62773437 561.97257813 -19.75 561.3125 C-20.90720972 560.63743361 -22.06476857 559.96296538 -23.22265625 559.2890625 C-25.62570582 557.88984195 -28.0272392 556.48807065 -30.42773438 555.08447266 C-35.93786812 551.86550635 -41.47007617 548.68480155 -47 545.5 C-49.16676979 544.25017876 -51.33343615 543.0001782 -53.5 541.75 C-55.10875 540.821875 -55.10875 540.821875 -56.75 539.875 C-126.625 499.5625 -126.625 499.5625 -196.5 459.25 C-197.57386963 458.6305249 -198.64773926 458.0110498 -199.75415039 457.37280273 C-201.90721037 456.13052194 -204.06004478 454.88785012 -206.21264648 453.64477539 C-211.24101461 450.74163888 -216.27139814 447.84221133 -221.31021118 444.95724487 C-223.08432545 443.94122816 -224.85769919 442.92393072 -226.63085938 441.90625 C-228.84815314 440.63417708 -231.06681075 439.36447715 -233.28710938 438.09765625 C-234.29708984 437.51757812 -235.30707031 436.9375 -236.34765625 436.33984375 C-237.22429932 435.83831787 -238.10094238 435.33679199 -239.00415039 434.82006836 C-239.99278076 434.2194458 -240.98141113 433.61882324 -242 433 C-242.73367717 432.64255719 -243.46735434 432.28511437 -244.22326416 431.91683996 C-250.48810311 428.50016805 -250.48810311 428.50016805 -251.82906163 424.57034707 C-252.13817594 421.48862749 -252.15640516 418.51744536 -252.08229065 415.42080688 C-252.08998047 414.24778436 -252.0976703 413.07476184 -252.10559314 411.86619318 C-252.11784274 408.61768991 -252.08978192 405.37243082 -252.04459059 402.12431121 C-252.00567945 398.6192739 -252.01887974 395.11438447 -252.02571106 391.60919189 C-252.03042762 385.53895963 -252.00222069 379.46959878 -251.95157051 373.39958572 C-251.87838812 364.62355241 -251.85498384 355.84793995 -251.84367859 347.07163458 C-251.82398673 332.83251106 -251.76410883 318.59385189 -251.67895508 304.35498047 C-251.59632838 290.52427492 -251.53263041 276.69369554 -251.49438477 262.86279297 C-251.49202025 262.01008857 -251.48965574 261.15738418 -251.48721958 260.27884026 C-251.47547414 256.00102048 -251.46410079 251.72319981 -251.45291245 247.44537854 C-251.35963011 211.96325469 -251.20112824 176.4816702 -251 141 C-250.00659591 140.43917378 -250.00659591 140.43917378 -248.99312305 139.86701775 C-245.96568049 138.15761923 -242.93852647 136.44771038 -239.91137695 134.73779297 C-238.86953499 134.14963303 -237.82769302 133.56147308 -236.75428009 132.95549011 C-229.86684619 129.06443584 -223.00612419 125.13553799 -216.1875 121.125 C-204.58184858 114.32899282 -192.93605309 107.60409117 -181.28222656 100.89111328 C-175.85340058 97.76319852 -170.42680719 94.63141552 -165 91.5 C-162.83334417 90.24998121 -160.6666775 88.99998122 -158.5 87.75 C-157.4275 87.13125 -156.355 86.5125 -155.25 85.875 C-67.5 35.25 -67.5 35.25 -64.24780273 33.3737793 C-62.08840605 32.1279423 -59.92906331 30.88201182 -57.76977539 29.63598633 C-52.24232403 26.44651047 -46.71384879 23.25883115 -41.18359375 20.07421875 C-40.06299561 19.42839844 -38.94239746 18.78257813 -37.7878418 18.1171875 C-35.58066654 16.84592661 -33.37251865 15.5763527 -31.16333008 14.30859375 C-26.32815516 11.52802468 -21.51554587 8.7250086 -16.765625 5.80078125 C-15.59108765 5.08402222 -15.59108765 5.08402222 -14.39282227 4.3527832 C-12.97401274 3.48246066 -11.56232816 2.60035674 -10.15991211 1.70385742 C-6.22999676 -0.69869969 -4.38584203 -1.30654137 0 0 Z " fill="#EEC821" transform="translate(264,11)"/>
<path d="M0 0 C2 1 2 1 3.078125 3.859375 C3.4771149 5.15370097 3.86700166 6.45085223 4.25 7.75 C4.57097656 8.80453369 4.57097656 8.80453369 4.8984375 9.88037109 C6.40658962 14.87829189 7.82595663 19.90055271 9.23901367 24.92602539 C13.88145711 45.54271493 13.88145711 45.54271493 26.80859375 61.16796875 C32.87043407 63.4695231 40.1558139 63.10429698 46.12890625 60.78515625 C52.63844051 57.10133194 58.4934762 52.456908 64.3515625 47.828125 C69.38749867 43.87759319 74.6144733 40.18730469 79.82080078 36.46630859 C83.63071399 33.73700695 87.37634013 30.97657775 91 28 C91.66 28.33 92.32 28.66 93 29 C92.78907715 29.5168335 92.5781543 30.03366699 92.36083984 30.56616211 C88.36241604 40.3908296 84.44316797 50.21811188 81.02246094 60.26098633 C79.74363526 63.99741616 78.30468782 67.55419513 76.625 71.125 C74.08532464 77.33546663 74.00739824 84.43131188 75 91 C77.02559691 94.71359434 78.80775843 97.40387922 82.625 99.3125 C85.3125 100.65625 85.3125 100.65625 88 102 C89.94044277 102.09128293 91.8840756 102.11752248 93.82666016 102.11352539 C95.65833237 102.11341209 95.65833237 102.11341209 97.52700806 102.11329651 C98.86435995 102.10818952 100.20171143 102.10297352 101.5390625 102.09765625 C102.90383859 102.0957914 104.26861534 102.09436781 105.63339233 102.09336853 C109.22715093 102.08954863 112.82086917 102.07972283 116.41461182 102.06866455 C120.08108982 102.05843911 123.74757435 102.05386848 127.4140625 102.04882812 C134.60939341 102.0381001 141.80469105 102.02102999 149 102 C145.76468754 105.34621509 142.412578 107.74559524 138.4375 110.125 C131.13452514 114.62530196 123.87876218 119.19933909 116.69265747 123.88397217 C115.49284895 124.66190077 114.28885651 125.43341885 113.08053589 126.19805908 C105.98844018 130.69246643 99.46536826 135.04198397 96 143 C94.86825103 148.60835159 95.43558612 152.74088636 98.375 157.6875 C100.81264178 160.84754266 103.26566596 163.09941191 106.55859375 165.34375 C107.88358887 166.24710083 107.88358887 166.24710083 109.23535156 167.16870117 C113.68038329 170.11308328 118.17368232 172.97500227 122.6875 175.8125 C129.45170827 180.09336115 136.20228131 184.39000818 142.875 188.8125 C143.8199231 189.43378784 143.8199231 189.43378784 144.78393555 190.06762695 C146.20806532 191.01752172 147.60744655 192.00438935 149 193 C149 193.33 149 193.66 149 194 C147.91458168 193.99333817 147.91458168 193.99333817 146.80723572 193.98654175 C139.96643083 193.94636071 133.12564373 193.91596273 126.28475094 193.89637566 C122.76831438 193.885967 119.25197586 193.87186161 115.7355957 193.84912109 C111.68700249 193.82310451 107.63851124 193.8135031 103.58984375 193.8046875 C102.33541977 193.79436493 101.08099579 193.78404236 99.78855896 193.77340698 C92.1412602 193.77242856 86.2417841 193.81802993 79.75 198.1875 C75.60637015 202.42530326 74.20032573 205.99471923 73.61328125 211.87109375 C73.70967181 218.63633379 76.56193669 224.6311822 79.0625 230.8125 C79.82333387 232.74154892 80.57858927 234.67271855 81.33337402 236.60414124 C81.83668379 237.89152226 82.34164222 239.17825998 82.8482666 240.46434021 C85.40717038 246.97674612 87.71303504 253.56681824 89.98071289 260.18481445 C91.31679205 264.16287329 91.31679205 264.16287329 93 268 C89.34074464 266.34231324 86.17704963 264.0954954 82.9375 261.75 C82.33897217 261.32033936 81.74044434 260.89067871 81.1237793 260.44799805 C77.47460549 257.81887434 73.85263256 255.15468038 70.2421875 252.47265625 C51.65878653 237.541596 51.65878653 237.541596 29 234 C25.40715233 235.28335544 25.40715233 235.28335544 23 238 C22.55809326 238.43908691 22.11618652 238.87817383 21.66088867 239.33056641 C15.42161117 246.51015489 13.47763847 255.95752245 10.8125 264.875 C10.28857743 266.58508588 9.76319741 268.29472594 9.23632812 270.00390625 C7.46056307 275.7858483 5.68881298 281.56794683 4.04052734 287.38769531 C3.78352051 288.29358398 3.52651367 289.19947266 3.26171875 290.1328125 C3.05893311 290.8767627 2.85614746 291.62071289 2.6472168 292.38720703 C2 294 2 294 0 295 C-0.40726318 293.68733154 -0.40726318 293.68733154 -0.82275391 292.34814453 C-3.23113616 284.59301099 -5.65123143 276.84171058 -8.08862305 269.09564209 C-9.33919042 265.11828821 -10.57234934 261.13631231 -11.7890625 257.1484375 C-15.62557478 244.72934748 -15.62557478 244.72934748 -24.26171875 235.33984375 C-27.60220949 233.70533829 -30.0390984 233.53298579 -33.75 233.5 C-34.89984375 233.4690625 -36.0496875 233.438125 -37.234375 233.40625 C-45.61376481 234.72748159 -52.31724145 240.49462695 -58.9375 245.5 C-60.59322991 246.73507253 -62.2494943 247.96942883 -63.90625 249.203125 C-64.74414062 249.82896484 -65.58203125 250.45480469 -66.4453125 251.09960938 C-70.58705874 254.18058728 -74.7583784 257.21999744 -78.9375 260.25 C-79.68829834 260.79849609 -80.43909668 261.34699219 -81.21264648 261.91210938 C-82.26560913 262.67491211 -82.26560913 262.67491211 -83.33984375 263.453125 C-83.95206787 263.89817383 -84.56429199 264.34322266 -85.19506836 264.80175781 C-87.06612853 266.04390083 -88.97282314 267.03768476 -91 268 C-88.41542742 258.51730255 -84.88361466 249.38059811 -81.4375 240.1875 C-80.84151848 238.5892965 -80.24581331 236.99098991 -79.65039062 235.39257812 C-75.27176391 223.65597791 -75.27176391 223.65597791 -73.83764648 220.19433594 C-72.10954656 215.66732863 -72.47775847 210.75175317 -73 206 C-75.57456035 200.66017113 -79.24161581 197.08550145 -84.7829895 194.90481567 C-88.06159653 193.98267537 -90.70113485 193.75837397 -94.09716797 193.77294922 C-95.27793915 193.77310028 -96.45871033 193.77325134 -97.67526245 193.77340698 C-99.56464035 193.78889084 -99.56464035 193.78889084 -101.4921875 193.8046875 C-102.79326447 193.8075174 -104.09434143 193.81034729 -105.43484497 193.81326294 C-108.8773582 193.82086325 -112.31970003 193.84048027 -115.762146 193.8626709 C-119.28151125 193.88320739 -122.80090447 193.89228127 -126.3203125 193.90234375 C-133.21361163 193.92372998 -140.10679757 193.9578219 -147 194 C-143.57733173 190.45449534 -139.90734661 187.85856964 -135.75 185.25 C-134.23750532 184.28246189 -132.72583732 183.3136307 -131.21484375 182.34375 C-130.38968262 181.81523437 -129.56452148 181.28671875 -128.71435547 180.7421875 C-123.56383675 177.43636797 -118.43073655 174.10558253 -113.3125 170.75 C-112.28543945 170.0890332 -111.25837891 169.42806641 -110.20019531 168.74707031 C-99.95574056 162.11303767 -99.95574056 162.11303767 -94.4375 151.625 C-93.6203748 146.50492824 -94.38579959 142.48033732 -97 138 C-103.13123713 130.56234915 -112.33406936 125.73748288 -120.39599609 120.65234375 C-125.43587225 117.45434245 -130.43493147 114.19341826 -135.4375 110.9375 C-136.45086426 110.28193115 -137.46422852 109.6263623 -138.50830078 108.95092773 C-139.45302246 108.33677002 -140.39774414 107.7226123 -141.37109375 107.08984375 C-142.21599365 106.54191162 -143.06089355 105.99397949 -143.93139648 105.42944336 C-146 104 -146 104 -148 102 C-146.9024514 102.01332367 -146.9024514 102.01332367 -145.7827301 102.0269165 C-138.85432063 102.10738841 -131.9259819 102.16812907 -124.99722385 102.20724869 C-121.43585171 102.22803754 -117.87486886 102.25619285 -114.3137207 102.30175781 C-110.21041331 102.35392533 -106.10750861 102.37301694 -102.00390625 102.390625 C-100.73793106 102.41127014 -99.47195587 102.43191528 -98.1676178 102.45318604 C-89.72765692 102.45530996 -83.20067217 101.44670537 -76.5625 96 C-72.33844004 90.59320325 -72.33717839 85.67016681 -73 79 C-74.92908296 70.09387447 -78.6710017 61.74083173 -82.1875 53.37109375 C-84.00329849 49.02934812 -85.7131754 44.65276273 -87.375 40.25 C-87.62556152 39.59475342 -87.87612305 38.93950684 -88.13427734 38.2644043 C-89.40576267 34.86891025 -90.41243224 31.58006401 -91 28 C-85.56360493 30.93437752 -80.79147961 34.31540565 -75.9375 38.125 C-68.42250553 43.95006688 -60.77177921 49.52311341 -53 55 C-52.12069824 55.65355469 -52.12069824 55.65355469 -51.22363281 56.3203125 C-43.4653744 62.04794203 -36.67926847 63.22494697 -27 62 C-20.36828854 59.23763321 -17.74632428 54.31340484 -15 48 C-13.76941216 44.80321388 -12.68292679 41.57005215 -11.625 38.3125 C-11.17991089 36.96176392 -11.17991089 36.96176392 -10.72583008 35.58374023 C-8.01821048 27.26485467 -5.6057408 18.86880238 -3.26171875 10.44140625 C-2.27861703 6.92227307 -1.19617028 3.45373108 0 0 Z " fill="#EEC823" transform="translate(260,98)"/>
<path d="M0 0 C11.31074621 8.68635738 20.33765856 21.81894805 23.0703125 36.00390625 C24.40668568 47.8194008 23.98537778 58.73075132 19.390625 69.8359375 C18.98972656 70.84011719 18.58882813 71.84429687 18.17578125 72.87890625 C11.03247555 88.88405208 -1.88214685 98.33849835 -17.78515625 104.890625 C-30.62049953 109.18682566 -47.37371824 108.34036884 -59.609375 102.8359375 C-75.88135851 94.66035455 -86.54255272 83.23236765 -92.609375 65.8359375 C-92.97289062 64.96710938 -93.33640625 64.09828125 -93.7109375 63.203125 C-97.69148649 48.28471966 -95.07050098 32.36101667 -88.10546875 18.9375 C-80.017552 5.0223854 -67.48340771 -5.48031095 -51.86328125 -9.65625 C-50.74759766 -9.90761719 -50.74759766 -9.90761719 -49.609375 -10.1640625 C-48.88234375 -10.34324219 -48.1553125 -10.52242187 -47.40625 -10.70703125 C-29.88247431 -13.57055326 -14.62545354 -10.02763132 0 0 Z " fill="#EEC821" transform="translate(296.609375,198.1640625)"/>
<path d="M0 0 C2 1 2 1 3.078125 3.859375 C3.4771149 5.15370097 3.86700166 6.45085223 4.25 7.75 C4.57097656 8.80453369 4.57097656 8.80453369 4.8984375 9.88037109 C6.40658962 14.87829189 7.82595663 19.90055271 9.23901367 24.92602539 C13.88145711 45.54271493 13.88145711 45.54271493 26.80859375 61.16796875 C32.87043407 63.4695231 40.1558139 63.10429698 46.12890625 60.78515625 C52.63844051 57.10133194 58.4934762 52.456908 64.3515625 47.828125 C69.38749867 43.87759319 74.6144733 40.18730469 79.82080078 36.46630859 C83.63071399 33.73700695 87.37634013 30.97657775 91 28 C91.66 28.33 92.32 28.66 93 29 C92.78907715 29.5168335 92.5781543 30.03366699 92.36083984 30.56616211 C88.36241604 40.3908296 84.44316797 50.21811188 81.02246094 60.26098633 C79.74363526 63.99741616 78.30468782 67.55419513 76.625 71.125 C74.08532464 77.33546663 74.00739824 84.43131188 75 91 C77.02559691 94.71359434 78.80775843 97.40387922 82.625 99.3125 C85.3125 100.65625 85.3125 100.65625 88 102 C89.94044277 102.09128293 91.8840756 102.11752248 93.82666016 102.11352539 C95.65833237 102.11341209 95.65833237 102.11341209 97.52700806 102.11329651 C98.86435995 102.10818952 100.20171143 102.10297352 101.5390625 102.09765625 C102.90383859 102.0957914 104.26861534 102.09436781 105.63339233 102.09336853 C109.22715093 102.08954863 112.82086917 102.07972283 116.41461182 102.06866455 C120.08108982 102.05843911 123.74757435 102.05386848 127.4140625 102.04882812 C134.60939341 102.0381001 141.80469105 102.02102999 149 102 C145.76468754 105.34621509 142.412578 107.74559524 138.4375 110.125 C131.13452514 114.62530196 123.87876218 119.19933909 116.69265747 123.88397217 C115.49284895 124.66190077 114.28885651 125.43341885 113.08053589 126.19805908 C105.98844018 130.69246643 99.46536826 135.04198397 96 143 C94.86825103 148.60835159 95.43558612 152.74088636 98.375 157.6875 C100.81264178 160.84754266 103.26566596 163.09941191 106.55859375 165.34375 C107.88358887 166.24710083 107.88358887 166.24710083 109.23535156 167.16870117 C113.68038329 170.11308328 118.17368232 172.97500227 122.6875 175.8125 C129.45170827 180.09336115 136.20228131 184.39000818 142.875 188.8125 C143.8199231 189.43378784 143.8199231 189.43378784 144.78393555 190.06762695 C146.20806532 191.01752172 147.60744655 192.00438935 149 193 C149 193.33 149 193.66 149 194 C147.91458168 193.99333817 147.91458168 193.99333817 146.80723572 193.98654175 C139.96643083 193.94636071 133.12564373 193.91596273 126.28475094 193.89637566 C122.76831438 193.885967 119.25197586 193.87186161 115.7355957 193.84912109 C111.68700249 193.82310451 107.63851124 193.8135031 103.58984375 193.8046875 C102.33541977 193.79436493 101.08099579 193.78404236 99.78855896 193.77340698 C92.1412602 193.77242856 86.2417841 193.81802993 79.75 198.1875 C75.60637015 202.42530326 74.20032573 205.99471923 73.61328125 211.87109375 C73.70967181 218.63633379 76.56193669 224.6311822 79.0625 230.8125 C79.82333387 232.74154892 80.57858927 234.67271855 81.33337402 236.60414124 C81.83668379 237.89152226 82.34164222 239.17825998 82.8482666 240.46434021 C85.40717038 246.97674612 87.71303504 253.56681824 89.98071289 260.18481445 C91.31679205 264.16287329 91.31679205 264.16287329 93 268 C89.34074464 266.34231324 86.17704963 264.0954954 82.9375 261.75 C82.33897217 261.32033936 81.74044434 260.89067871 81.1237793 260.44799805 C77.47460549 257.81887434 73.85263256 255.15468038 70.2421875 252.47265625 C51.65878653 237.541596 51.65878653 237.541596 29 234 C25.40715233 235.28335544 25.40715233 235.28335544 23 238 C22.55809326 238.43908691 22.11618652 238.87817383 21.66088867 239.33056641 C15.42161117 246.51015489 13.47763847 255.95752245 10.8125 264.875 C10.28857743 266.58508588 9.76319741 268.29472594 9.23632812 270.00390625 C7.46056307 275.7858483 5.68881298 281.56794683 4.04052734 287.38769531 C3.78352051 288.29358398 3.52651367 289.19947266 3.26171875 290.1328125 C3.05893311 290.8767627 2.85614746 291.62071289 2.6472168 292.38720703 C2 294 2 294 0 295 C-0.40726318 293.68733154 -0.40726318 293.68733154 -0.82275391 292.34814453 C-3.23113616 284.59301099 -5.65123143 276.84171058 -8.08862305 269.09564209 C-9.33919042 265.11828821 -10.57234934 261.13631231 -11.7890625 257.1484375 C-15.62557478 244.72934748 -15.62557478 244.72934748 -24.26171875 235.33984375 C-27.60220949 233.70533829 -30.0390984 233.53298579 -33.75 233.5 C-34.89984375 233.4690625 -36.0496875 233.438125 -37.234375 233.40625 C-45.61376481 234.72748159 -52.31724145 240.49462695 -58.9375 245.5 C-60.59322991 246.73507253 -62.2494943 247.96942883 -63.90625 249.203125 C-64.74414062 249.82896484 -65.58203125 250.45480469 -66.4453125 251.09960938 C-70.58705874 254.18058728 -74.7583784 257.21999744 -78.9375 260.25 C-79.68829834 260.79849609 -80.43909668 261.34699219 -81.21264648 261.91210938 C-82.26560913 262.67491211 -82.26560913 262.67491211 -83.33984375 263.453125 C-83.95206787 263.89817383 -84.56429199 264.34322266 -85.19506836 264.80175781 C-87.06612853 266.04390083 -88.97282314 267.03768476 -91 268 C-88.41542742 258.51730255 -84.88361466 249.38059811 -81.4375 240.1875 C-80.84151848 238.5892965 -80.24581331 236.99098991 -79.65039062 235.39257812 C-75.27176391 223.65597791 -75.27176391 223.65597791 -73.83764648 220.19433594 C-72.10954656 215.66732863 -72.47775847 210.75175317 -73 206 C-75.57456035 200.66017113 -79.24161581 197.08550145 -84.7829895 194.90481567 C-88.06159653 193.98267537 -90.70113485 193.75837397 -94.09716797 193.77294922 C-95.27793915 193.77310028 -96.45871033 193.77325134 -97.67526245 193.77340698 C-99.56464035 193.78889084 -99.56464035 193.78889084 -101.4921875 193.8046875 C-102.79326447 193.8075174 -104.09434143 193.81034729 -105.43484497 193.81326294 C-108.8773582 193.82086325 -112.31970003 193.84048027 -115.762146 193.8626709 C-119.28151125 193.88320739 -122.80090447 193.89228127 -126.3203125 193.90234375 C-133.21361163 193.92372998 -140.10679757 193.9578219 -147 194 C-143.57733173 190.45449534 -139.90734661 187.85856964 -135.75 185.25 C-134.23750532 184.28246189 -132.72583732 183.3136307 -131.21484375 182.34375 C-130.38968262 181.81523437 -129.56452148 181.28671875 -128.71435547 180.7421875 C-123.56383675 177.43636797 -118.43073655 174.10558253 -113.3125 170.75 C-112.28543945 170.0890332 -111.25837891 169.42806641 -110.20019531 168.74707031 C-99.95574056 162.11303767 -99.95574056 162.11303767 -94.4375 151.625 C-93.6203748 146.50492824 -94.38579959 142.48033732 -97 138 C-103.13123713 130.56234915 -112.33406936 125.73748288 -120.39599609 120.65234375 C-125.43587225 117.45434245 -130.43493147 114.19341826 -135.4375 110.9375 C-136.45086426 110.28193115 -137.46422852 109.6263623 -138.50830078 108.95092773 C-139.45302246 108.33677002 -140.39774414 107.7226123 -141.37109375 107.08984375 C-142.21599365 106.54191162 -143.06089355 105.99397949 -143.93139648 105.42944336 C-146 104 -146 104 -148 102 C-146.9024514 102.01332367 -146.9024514 102.01332367 -145.7827301 102.0269165 C-138.85432063 102.10738841 -131.9259819 102.16812907 -124.99722385 102.20724869 C-121.43585171 102.22803754 -117.87486886 102.25619285 -114.3137207 102.30175781 C-110.21041331 102.35392533 -106.10750861 102.37301694 -102.00390625 102.390625 C-100.73793106 102.41127014 -99.47195587 102.43191528 -98.1676178 102.45318604 C-89.72765692 102.45530996 -83.20067217 101.44670537 -76.5625 96 C-72.33844004 90.59320325 -72.33717839 85.67016681 -73 79 C-74.92908296 70.09387447 -78.6710017 61.74083173 -82.1875 53.37109375 C-84.00329849 49.02934812 -85.7131754 44.65276273 -87.375 40.25 C-87.62556152 39.59475342 -87.87612305 38.93950684 -88.13427734 38.2644043 C-89.40576267 34.86891025 -90.41243224 31.58006401 -91 28 C-85.56360493 30.93437752 -80.79147961 34.31540565 -75.9375 38.125 C-68.42250553 43.95006688 -60.77177921 49.52311341 -53 55 C-52.12069824 55.65355469 -52.12069824 55.65355469 -51.22363281 56.3203125 C-43.4653744 62.04794203 -36.67926847 63.22494697 -27 62 C-20.36828854 59.23763321 -17.74632428 54.31340484 -15 48 C-13.76941216 44.80321388 -12.68292679 41.57005215 -11.625 38.3125 C-11.17991089 36.96176392 -11.17991089 36.96176392 -10.72583008 35.58374023 C-8.01821048 27.26485467 -5.6057408 18.86880238 -3.26171875 10.44140625 C-2.27861703 6.92227307 -1.19617028 3.45373108 0 0 Z M0 26 C-0.28665527 26.92111572 -0.28665527 26.92111572 -0.57910156 27.86083984 C-1.46529928 30.70019174 -2.357617 33.53758629 -3.25 36.375 C-3.55035156 37.34050781 -3.85070312 38.30601562 -4.16015625 39.30078125 C-11.1103348 61.33432603 -11.1103348 61.33432603 -19.05859375 66.28125 C-23.92498566 68.78141465 -28.109051 70.16448141 -33.625 70.25 C-34.60726562 70.27578125 -35.58953125 70.3015625 -36.6015625 70.328125 C-44.88885898 69.52797224 -50.93362483 66.09923034 -57.5 61.1875 C-58.9772748 60.11247033 -60.45513427 59.0382436 -61.93359375 57.96484375 C-62.63210449 57.4529248 -63.33061523 56.94100586 -64.05029297 56.41357422 C-67.62192263 53.82407563 -71.30883038 51.41374502 -75 49 C-73.49158821 53.65111118 -71.92192625 58.26426414 -70.17578125 62.83203125 C-62.10723044 84.17178186 -62.10723044 84.17178186 -67.0625 95.375 C-71.10795696 102.42629928 -76.36015409 106.23619123 -83.86352539 109.15283203 C-90.3014698 110.89173349 -96.99811808 110.68671865 -103.625 110.75 C-105.1211274 110.77821658 -106.61722343 110.80815176 -108.11328125 110.83984375 C-111.74204048 110.9130276 -115.37067002 110.96301157 -119 111 C-116.24632584 113.85335468 -113.6946749 116.43370264 -110.2578125 118.4296875 C-109.58717773 118.82865234 -108.91654297 119.22761719 -108.22558594 119.63867188 C-107.53239258 120.04666016 -106.83919922 120.45464844 -106.125 120.875 C-96.6876275 126.64394012 -89.72745537 131.7372137 -87 143 C-86.02508862 150.04511433 -86.42524031 155.88817931 -90.35546875 161.9296875 C-96.28430252 169.39353998 -104.15556892 174.2400062 -112.14746094 179.23193359 C-112.8593457 179.67746582 -113.57123047 180.12299805 -114.3046875 180.58203125 C-114.94390137 180.97624268 -115.58311523 181.3704541 -116.24169922 181.77661133 C-118.04483671 183.03119644 -119.49746384 184.40294108 -121 186 C-120.08299316 185.98428955 -119.16598633 185.9685791 -118.22119141 185.95239258 C-114.77321559 185.90083609 -111.3256577 185.86344446 -107.87744141 185.83520508 C-106.39365111 185.82024816 -104.90990401 185.79987505 -103.42626953 185.77368164 C-92.38025335 185.58374677 -81.98062195 185.69019144 -73 193 C-66.78145054 199.50778432 -64.25008312 205.36784281 -64.44140625 214.28125 C-65.55370293 221.68619017 -68.43284585 228.60859768 -71.09619141 235.57568359 C-72.50286157 239.34884261 -73.75789626 243.17003616 -75 247 C-69.05345931 243.35949969 -63.34103332 239.56630144 -57.8125 235.3125 C-48.46732317 228.18831974 -40.80456964 225.19247347 -29 226 C-22.02007188 227.34310738 -16.92397056 230.3085831 -12.51171875 235.87890625 C-7.40573736 243.46531271 -5.17271791 252.20070348 -2.63085938 260.88476562 C-1.81753989 263.611778 -0.92064529 266.30754678 0 269 C2.37220629 268.10290163 2.37220629 268.10290163 3.11328125 264.859375 C3.51841864 263.4911701 3.91777827 262.12124604 4.3125 260.75 C4.75775596 259.28434531 5.20571395 257.81950899 5.65625 256.35546875 C5.99462891 255.25404541 5.99462891 255.25404541 6.33984375 254.13037109 C9.74049378 243.15623199 13.47640162 233.09767676 24.1875 227.4375 C31.42885175 224.72823564 39.65735006 224.86047453 46.9375 227.375 C53.88661456 230.54914694 59.93141493 235.42063826 66 240 C66.88171875 240.65484375 67.7634375 241.3096875 68.671875 241.984375 C70.45559035 243.31267367 72.2293636 244.65431633 74 246 C74.66 245.67 75.32 245.34 76 245 C75.79842285 244.42556152 75.5968457 243.85112305 75.38916016 243.25927734 C74.46729492 240.63135248 73.54614184 238.00317851 72.625 235.375 C72.14933594 234.01955078 72.14933594 234.01955078 71.6640625 232.63671875 C71.04643889 230.87391802 70.43170086 229.11010323 69.82006836 227.34521484 C69.16529086 225.47269545 68.48360997 223.60959059 67.79296875 221.75 C65.49514437 213.78119032 66.32588414 205.34823171 70 198 C74.06372037 191.27923169 81.67176199 188.06166766 89 186 C91.7130741 185.83798903 94.31555684 185.76546947 97.0234375 185.8046875 C98.14270126 185.80893234 98.14270126 185.80893234 99.28457642 185.81326294 C101.64821988 185.82438313 104.01147268 185.84947179 106.375 185.875 C107.98567158 185.88504038 109.59634915 185.89416438 111.20703125 185.90234375 C115.13816944 185.9242956 119.06901867 185.95876815 123 186 C119.99921274 183.55530268 116.98677305 181.24688456 113.75 179.125 C112.58984375 178.35929687 112.58984375 178.35929687 111.40625 177.578125 C110.21515625 176.79695313 110.21515625 176.79695313 109 176 C95.23974763 166.9754189 95.23974763 166.9754189 92.25 161.9375 C91.63898438 160.93009766 91.63898438 160.93009766 91.015625 159.90234375 C87.76014262 153.80457483 88.3307516 146.68572391 89 140 C93.01646137 127.33532819 107.23401563 120.65980867 117.91943359 114.18554688 C119.62766588 113.14752814 121.3160861 112.07702108 123 111 C123 110.67 123 110.34 123 110 C122.0527002 110.01571045 121.10540039 110.0314209 120.12939453 110.04760742 C116.56960427 110.09914501 113.01021817 110.13654675 109.45019531 110.16479492 C107.91790457 110.17975744 106.38565571 110.20013497 104.85351562 110.22631836 C93.52729898 110.4148422 82.89811914 110.37166095 73.76171875 102.7734375 C68.55393185 97.531009 66.69194671 92.63716242 66.4375 85.25 C66.85985 74.32755966 71.01958647 64.61386142 75.046875 54.58203125 C76.11543241 52.14601375 76.11543241 52.14601375 76 50 C72.09823958 51.72984452 68.79707604 54.23998323 65.375 56.75 C53.69120553 65.19303396 44.01844316 71.67853188 29 70 C21.67528743 67.81881828 15.96404504 63.52557784 12 57 C8.16436718 48.44145543 5.40939499 39.49110683 2.859375 30.4765625 C2.15439918 27.86358465 2.15439918 27.86358465 0 26 Z " fill="#FEFCF7" transform="translate(260,98)"/>
<path d="M0 0 C13.80978599 11.1317962 22.7330715 25.97938099 25.98242188 43.40771484 C26.97796627 53.87152185 26.9109224 63.78344539 23.29492188 73.72021484 C22.93140625 74.71923828 22.56789063 75.71826172 22.19335938 76.74755859 C15.29613342 94.39110758 2.96400522 107.48845174 -14.12695312 115.65771484 C-32.00120608 123.02407364 -51.47886832 122.60251283 -69.18164062 115.28271484 C-86.70772805 106.58241369 -99.05753612 91.22677114 -105.51757812 72.90771484 C-111.23128009 55.55883797 -107.93287249 36.94973826 -100.08007812 20.97021484 C-90.66358446 4.89681692 -74.73068424 -6.96596185 -56.95507812 -12.21728516 C-37.14728074 -16.43171013 -16.22555123 -12.17845641 0 0 Z M-83.70507812 12.72021484 C-84.66027344 13.64253906 -84.66027344 13.64253906 -85.63476562 14.58349609 C-96.81718386 26.18836124 -100.18912212 40.78899537 -100.20922852 56.375 C-99.94066826 70.17502646 -95.40866116 80.96989881 -86.70507812 91.72021484 C-85.78275391 92.95191406 -85.78275391 92.95191406 -84.84179688 94.20849609 C-76.28687762 104.26482714 -62.61476684 111.75523291 -49.38378906 112.92553711 C-31.05952939 113.65042435 -15.77124403 110.75703809 -1.39257812 98.47021484 C9.41035113 88.06998797 17.90429174 74.05175291 18.49804688 58.71630859 C18.81813471 40.36259282 14.49595574 25.46248357 1.61401367 11.83105469 C-8.70231226 1.46776521 -22.66954673 -5.3664666 -37.35180664 -5.84008789 C-55.81562292 -5.85567209 -70.58041656 -0.56450357 -83.70507812 12.72021484 Z " fill="#FEFCF6" transform="translate(301.705078125,192.27978515625)"/>
<path d="M0 0 C2.81556994 0.53005669 4.69860307 1.59153773 6.9296875 3.36328125 C10.081204 8.090556 9.26356826 13.14319727 9.24536133 18.70507812 C9.24220899 20.72451126 9.26563948 22.7424675 9.29101562 24.76171875 C9.29166016 26.04046875 9.29230469 27.31921875 9.29296875 28.63671875 C9.29594971 29.80638184 9.29893066 30.97604492 9.30200195 32.18115234 C8.88938541 35.70773862 8.05669843 37.54660597 5.9296875 40.36328125 C2.90761355 42.37799722 2.01242051 42.70047159 -1.4453125 42.80078125 C-2.19554687 42.84074219 -2.94578125 42.88070312 -3.71875 42.921875 C-7.32351139 42.06559447 -8.74911064 40.19591431 -11.0703125 37.36328125 C-11.71728516 33.9375 -11.71728516 33.9375 -11.734375 30.05078125 C-11.73915863 29.35944092 -11.74394226 28.66810059 -11.74887085 27.95581055 C-11.75225986 26.50013949 -11.743127 25.04439129 -11.72216797 23.58886719 C-11.69537796 21.36870628 -11.72193897 19.15359864 -11.75390625 16.93359375 C-11.75060196 15.51431183 -11.74419531 14.09503304 -11.734375 12.67578125 C-11.72873535 11.39316406 -11.7230957 10.11054688 -11.71728516 8.7890625 C-10.45451809 2.10259174 -6.35697113 -0.41979998 0 0 Z " fill="#FEFCF6" transform="translate(233.0703125,411.63671875)"/>
<path d="M0 0 C13 0 13 0 18 3 C20.87664482 7.21036196 20.69987482 12.09318532 20 17 C19.236875 18.051875 18.47375 19.10375 17.6875 20.1875 C16.42452278 21.79885859 16.42452278 21.79885859 16 24 C16.93932423 28.05597606 18.25409072 31.80193244 19.765625 35.671875 C21 39 21 39 21 42 C18.125 42.1875 18.125 42.1875 15 42 C12.13430385 37.70145578 11.35444332 33.03095373 10.09765625 28.0546875 C9.55431641 26.54261719 9.55431641 26.54261719 9 25 C8.01 24.67 7.02 24.34 6 24 C6 29.94 6 35.88 6 42 C4.02 42 2.04 42 0 42 C0 28.14 0 14.28 0 0 Z " fill="#FEFCF6" transform="translate(310,412)"/>
<path d="M0 0 C1.98 0 3.96 0 6 0 C8.41877418 8.42935747 10.36700921 16.92346561 12.1875 25.5 C12.46013672 26.76070313 12.73277344 28.02140625 13.01367188 29.3203125 C13.27083984 30.52429688 13.52800781 31.72828125 13.79296875 32.96875 C14.0252417 34.05607422 14.25751465 35.14339844 14.49682617 36.26367188 C15 39 15 39 15 42 C13.02 42 11.04 42 9 42 C8.34 39.03 7.68 36.06 7 33 C4.36 33 1.72 33 -1 33 C-1.33 35.97 -1.66 38.94 -2 42 C-3.98 42 -5.96 42 -8 42 C-7.28565416 33.1561973 -5.31722558 24.58904563 -3.4375 15.9375 C-3.10441132 14.38875922 -2.77172562 12.83993172 -2.43945312 11.29101562 C-1.63094689 7.5263273 -0.81698826 3.76285631 0 0 Z " fill="#FEFCF5" transform="translate(286,412)"/>
<path d="M0 0 C3.16872216 0.68885264 4.96142228 2.13674555 7.15625 4.46875 C8.51064668 7.17754335 8.22126451 9.47808268 8.15625 12.46875 C6.17625 12.46875 4.19625 12.46875 2.15625 12.46875 C1.49625 10.81875 0.83625 9.16875 0.15625 7.46875 C-1.49375 7.79875 -3.14375 8.12875 -4.84375 8.46875 C-4.84375 10.77875 -4.84375 13.08875 -4.84375 15.46875 C-4.15667969 15.78328125 -3.46960938 16.0978125 -2.76171875 16.421875 C-1.86066406 16.84984375 -0.95960938 17.2778125 -0.03125 17.71875 C1.30873047 18.34523438 1.30873047 18.34523438 2.67578125 18.984375 C5.36211943 20.59194746 6.63976855 21.74105284 8.15625 24.46875 C8.99748743 29.48585973 9.11900505 34.71489201 6.28125 39.09375 C4.14295012 41.48361457 3.28521051 42.3134902 0.16796875 42.7421875 C-4.11402177 42.92929969 -6.21883572 42.89837856 -9.84375 40.40625 C-12.16052426 37.0034878 -12.60413724 34.542167 -12.84375 30.46875 C-10.53375 30.46875 -8.22375 30.46875 -5.84375 30.46875 C-5.51375 32.11875 -5.18375 33.76875 -4.84375 35.46875 C-3.19375 35.46875 -1.54375 35.46875 0.15625 35.46875 C1.6345726 32.51210481 1.21657783 29.72645263 1.15625 26.46875 C0.38539063 26.07042969 -0.38546875 25.67210937 -1.1796875 25.26171875 C-2.18257812 24.73191406 -3.18546875 24.20210938 -4.21875 23.65625 C-5.21648437 23.13417969 -6.21421875 22.61210937 -7.2421875 22.07421875 C-9.84375 20.46875 -9.84375 20.46875 -11.84375 17.46875 C-12.59459346 12.43414703 -12.90996178 7.11073801 -9.90625 2.78125 C-6.31377096 0.06856174 -4.39658016 -0.29310534 0 0 Z " fill="#FEFCF7" transform="translate(203.84375,411.53125)"/>
<path d="M0 0 C1.98 0 3.96 0 6 0 C6 11.88 6 23.76 6 36 C9.96 36 13.92 36 18 36 C18 37.98 18 39.96 18 42 C12.06 42 6.12 42 0 42 C0 28.14 0 14.28 0 0 Z " fill="#FEFCF7" transform="translate(253,412)"/>
<path d="M0 0 C4.55555556 0.55555556 4.55555556 0.55555556 6 2 C6.25342236 6.30647636 6.18522638 10.62445054 6.1875 14.9375 C6.19974609 16.15630859 6.21199219 17.37511719 6.22460938 18.63085938 C6.22750977 20.37399414 6.22750977 20.37399414 6.23046875 22.15234375 C6.23457764 23.22476318 6.23868652 24.29718262 6.24291992 25.40209961 C6 28 6 28 4 30 C-0.55555556 29.44444444 -0.55555556 29.44444444 -2 28 C-2.25342236 23.69352364 -2.18522638 19.37554946 -2.1875 15.0625 C-2.20586914 13.23428711 -2.20586914 13.23428711 -2.22460938 11.36914062 C-2.22654297 10.20705078 -2.22847656 9.04496094 -2.23046875 7.84765625 C-2.23457764 6.77523682 -2.23868652 5.70281738 -2.24291992 4.59790039 C-2 2 -2 2 0 0 Z " fill="#EEC92B" transform="translate(230,418)"/>
<path d="M0 0 C2.3431213 0.25561323 4.67843403 0.59270772 7 1 C8.52491998 4.04983996 8.23562548 6.6423369 8 10 C6.8125 11.9375 6.8125 11.9375 5 13 C3.35 13 1.7 13 0 13 C0 8.71 0 4.42 0 0 Z " fill="#EECA2C" transform="translate(316,418)"/>
<path d="M0 0 C2.39073445 3.82517513 2.55966552 7.59665524 3 12 C1.35 12 -0.3 12 -2 12 C-2.17835515 7.45194365 -1.99785435 4.1205746 0 0 Z " fill="#EFCC37" transform="translate(289,427)"/>
</svg>
