<?xml version="1.0" encoding="UTF-8"?>
<svg version="1.1" xmlns="http://www.w3.org/2000/svg" width="521" height="595">
<path d="M0 0 C0.91056152 0.51618896 1.82112305 1.03237793 2.75927734 1.56420898 C5.52589265 3.13616096 8.26385355 4.75064859 11 6.375 C13.1034897 7.61313001 15.20768605 8.85006006 17.3125 10.0859375 C18.40304687 10.7262793 19.49359375 11.36662109 20.6171875 12.02636719 C26.38746924 15.39292013 32.19444779 18.6948233 38 22 C47.72180742 27.53886005 57.40896202 33.13375712 67.06689453 38.78344727 C77.59084625 44.93766742 88.15380137 51.02369996 98.71777344 57.10888672 C104.14659942 60.23680148 109.57319281 63.36858448 115 66.5 C117.16665583 67.75001879 119.3333225 69.00001878 121.5 70.25 C143.16666667 82.75 164.83333333 95.25 186.5 107.75 C187.57427246 108.3697168 188.64854492 108.98943359 189.75537109 109.62792969 C191.90432957 110.86782537 194.05309523 112.10805529 196.20166016 113.34863281 C201.27724766 116.27872574 206.35473735 119.20536409 211.43914795 122.12011719 C213.8404023 123.49696526 216.24055526 124.87572692 218.640625 126.25463867 C220.33486603 127.22696703 222.03069581 128.1965254 223.7265625 129.16601562 C224.75265625 129.75576172 225.77875 130.34550781 226.8359375 130.953125 C227.73876465 131.47036133 228.6415918 131.98759766 229.57177734 132.52050781 C230.37309082 133.00874023 231.1744043 133.49697266 232 134 C232.69941214 134.42612365 233.39882428 134.8522473 234.11943072 135.29128379 C236 137 236 137 236.50714999 139.19953185 C236.51050977 140.06394037 236.51386954 140.92834889 236.51733112 141.81895161 C236.53760285 143.31673774 236.53760285 143.31673774 236.5582841 144.84478217 C236.55277182 145.94476214 236.54725953 147.04474211 236.5415802 148.17805481 C236.55134799 149.34428066 236.56111578 150.51050652 236.57117957 151.71207255 C236.59410794 154.9547222 236.59898841 158.19682603 236.59619391 161.43953764 C236.59743247 164.9345929 236.6215257 168.42950205 236.64250183 171.92448425 C236.67961917 178.77416044 236.69429494 185.62370868 236.69997636 192.47347669 C236.70460666 198.04069 236.71518191 203.60785913 236.72995567 209.17505455 C236.77094669 224.95348744 236.79400572 240.73181259 236.79583076 256.51029865 C236.79593366 257.36130683 236.79603656 258.21231502 236.79614258 259.08911133 C236.79629076 260.36717951 236.79629076 260.36717951 236.79644194 261.67106726 C236.79917124 275.47955519 236.8453316 289.28751731 236.9109172 303.09583644 C236.97769908 317.2686085 237.01090411 331.44112154 237.00947779 345.61405486 C237.00939842 353.57337598 237.02342825 361.53210523 237.07383156 369.49128151 C237.11651855 376.26846529 237.12821803 383.04481861 237.09956519 389.82209162 C237.08584652 393.28058176 237.08667378 396.7374525 237.12668228 400.19577408 C237.16239373 403.94562097 237.14287163 407.69122245 237.10920715 411.44099426 C237.13269425 412.53428207 237.15618134 413.62756987 237.18038017 414.75398761 C237.03456855 421.95184205 237.03456855 421.95184205 234.0620054 424.96345079 C231.7664324 426.52053124 229.49152453 427.78643119 227 429 C225.67231669 429.75435126 224.34744697 430.51371088 223.02734375 431.28125 C221.6657063 432.02385536 220.3023458 432.76330793 218.9375 433.5 C211.72498842 437.45177903 204.59606568 441.53041377 197.5 445.6875 C189.05731393 450.63168268 180.60196465 455.55228593 172.125 460.4375 C171.04541016 461.05971436 169.96582031 461.68192871 168.85351562 462.32299805 C166.6631748 463.58511517 164.47274498 464.84707785 162.28222656 466.10888672 C156.85340058 469.23680148 151.42680719 472.36858448 146 475.5 C143.83334417 476.75001879 141.6666775 478.00001878 139.5 479.25 C138.4275 479.86875 137.355 480.4875 136.25 481.125 C107 498 77.75 514.875 48.5 531.75 C47.4265332 532.36931396 46.35306641 532.98862793 45.24707031 533.62670898 C43.09019097 534.87104998 40.93329008 536.11535364 38.77636719 537.35961914 C34.36951054 539.90185705 29.96273298 542.44423058 25.55664062 544.98779297 C24.98264023 545.31912735 24.40863983 545.65046173 23.81724548 545.99183655 C22.09013825 546.98915668 20.36354868 547.9873731 18.63696289 548.9855957 C16.40789736 550.27020458 14.17538767 551.54885861 11.93920898 552.82104492 C7.41274175 555.40198332 2.94009575 557.97693639 -1.35546875 560.9296875 C-2.28891113 561.54662476 -2.28891113 561.54662476 -3.24121094 562.17602539 C-4.77646935 563.20461317 -6.27917455 564.28138465 -7.77734375 565.36328125 C-13.35185434 566.4646694 -17.36982896 562.878594 -22 560 C-23.74901627 559.01212523 -25.50285424 558.03273201 -27.26171875 557.0625 C-29.07108673 556.04303957 -30.87965198 555.02215341 -32.6875 554 C-33.67516357 553.4416748 -34.66282715 552.88334961 -35.68041992 552.30810547 C-43.76162596 547.72690555 -51.79257062 543.06286696 -59.80981445 538.37084961 C-70.41811048 532.162804 -81.06716947 526.02620279 -91.71777344 519.89111328 C-97.14659942 516.76319852 -102.57319281 513.63141552 -108 510.5 C-110.16665583 509.24998121 -112.3333225 507.99998122 -114.5 506.75 C-144.83333333 489.25 -175.16666667 471.75 -205.5 454.25 C-206.5739502 453.63044434 -207.64790039 453.01088867 -208.75439453 452.37255859 C-210.9065213 451.13088473 -213.05854073 449.88902478 -215.21044922 448.64697266 C-220.25030977 445.73833177 -225.29117492 442.83148102 -230.33599854 439.93145752 C-232.11749578 438.90724335 -233.89864322 437.88242349 -235.6796875 436.85742188 C-237.91076625 435.57366625 -240.14249573 434.29104061 -242.375 433.00976562 C-243.38820312 432.42646484 -244.40140625 431.84316406 -245.4453125 431.2421875 C-246.32719238 430.7354248 -247.20907227 430.22866211 -248.11767578 429.70654297 C-249.06884277 429.14338379 -250.02000977 428.58022461 -251 428 C-251.65750877 427.71599319 -252.31501755 427.43198638 -252.99245083 427.1393733 C-255.37703147 425.97392109 -257.11581346 424.87969008 -259 423 C-260.23496956 419.23765513 -260.14003616 415.56255766 -260.1100769 411.62854004 C-260.13243475 410.4655443 -260.1547926 409.30254855 -260.17782795 408.10431051 C-260.23133595 404.8792722 -260.24894896 401.65635355 -260.25102401 398.43094444 C-260.26173823 394.95118656 -260.31807193 391.47211266 -260.36795044 387.99273682 C-260.46792798 380.38502014 -260.50791675 372.77769584 -260.53564596 365.16942024 C-260.55322367 360.41546335 -260.58322265 355.66163627 -260.61566544 350.90776062 C-260.70357166 337.73643352 -260.77756971 324.56521913 -260.79691887 311.39359283 C-260.79817227 310.55080193 -260.79942568 309.70801102 -260.80071706 308.839681 C-260.8032153 307.13123544 -260.8057108 305.42278989 -260.80820356 303.71434432 C-260.80946025 302.86630601 -260.81071695 302.01826769 -260.81201172 301.14453125 C-260.81325854 300.29545297 -260.81450535 299.44637469 -260.81578995 298.57156676 C-260.83864693 284.8250252 -260.96241683 271.08142222 -261.13044558 257.33596212 C-261.30171201 243.21158056 -261.39004827 229.08866337 -261.39530957 214.96322393 C-261.40013722 207.03649549 -261.43979999 199.11344099 -261.57058334 191.18769836 C-261.68156835 184.43486681 -261.71607673 177.68693163 -261.65313588 170.93339163 C-261.62326206 167.48920411 -261.62796638 164.05476343 -261.73018646 160.61174774 C-262.22471711 140.50614467 -262.22471711 140.50614467 -256.82719278 134.63756752 C-251.53756366 130.48489399 -245.76935708 127.66109926 -239.57994103 125.09862423 C-236.2072377 123.66241559 -233.20027606 121.89164326 -230.078125 119.9765625 C-228.13611511 118.85816133 -226.19341594 117.74095612 -224.25 116.625 C-222.04685608 115.35680371 -219.84373165 114.08857355 -217.640625 112.8203125 C-216.54298828 112.18899414 -215.44535156 111.55767578 -214.31445312 110.90722656 C-208.87349435 107.77635076 -203.43694752 104.63783458 -198 101.5 C-195.83335502 100.24996242 -193.66668834 98.99996244 -191.5 97.75 C-190.4275 97.13125 -189.355 96.5125 -188.25 95.875 C-74.5 30.25 -74.5 30.25 -71.24780273 28.3737793 C-69.08840605 27.1279423 -66.92906331 25.88201182 -64.76977539 24.63598633 C-59.24232403 21.44651047 -53.71384879 18.25883115 -48.18359375 15.07421875 C-47.06355957 14.42799561 -45.94352539 13.78177246 -44.78955078 13.1159668 C-42.57921798 11.84434125 -40.3654118 10.5787315 -38.14794922 9.31958008 C-33.32002431 6.56651777 -28.58840304 3.78120535 -24.01171875 0.625 C-23.26027588 0.12460205 -22.50883301 -0.3757959 -21.73461914 -0.89135742 C-20.38685398 -1.79927792 -19.06315661 -2.74472715 -17.77514648 -3.7355957 C-11.23896993 -8.06081095 -5.98626131 -3.60929373 0 0 Z " fill="#17ADBB" transform="translate(271,18)"/>
<path d="M0 0 C3.32012093 3.08351461 5.05168908 6.74919951 7.0625 10.75 C16.50567386 29.00188751 29.03744329 45.44976243 42.41796875 60.98828125 C45.57865493 64.67495152 48.63742211 68.43824782 51.69921875 72.20703125 C53.74694795 74.69281457 55.83238979 77.14117612 57.93383789 79.58154297 C81.89385227 107.49175629 104.4858519 139.0649415 104.3125 177.1875 C104.30686035 178.47672363 104.3012207 179.76594727 104.29541016 181.09423828 C103.95929703 207.42088115 93.85112656 230.65916717 75.625 249.6875 C57.16961532 267.54754969 32.0582654 275.38967509 6.73461914 275.3046875 C-0.42371637 275.14697817 -7.09619835 273.89628797 -14 272 C-15.05316406 271.73316406 -16.10632813 271.46632813 -17.19140625 271.19140625 C-42.8885205 264.0971109 -62.45883661 247.44384756 -75.9453125 224.72265625 C-88.18498287 202.01833264 -91.27171648 171.79022193 -84 147 C-76.8819207 125.02726234 -60.63932842 108.17956767 -45.24072266 91.62768555 C-40.58757523 86.60312028 -36.21083006 81.40257442 -32 76 C-31.5683252 75.45150391 -31.13665039 74.90300781 -30.69189453 74.33789062 C-13.59893038 52.46957583 -3.88700425 27.46475375 0 0 Z " fill="#18ADBB" transform="translate(251,107)"/>
<path d="M0 0 C3.32012093 3.08351461 5.05168908 6.74919951 7.0625 10.75 C16.50567386 29.00188751 29.03744329 45.44976243 42.41796875 60.98828125 C45.57865493 64.67495152 48.63742211 68.43824782 51.69921875 72.20703125 C53.74694795 74.69281457 55.83238979 77.14117612 57.93383789 79.58154297 C81.89385227 107.49175629 104.4858519 139.0649415 104.3125 177.1875 C104.30686035 178.47672363 104.3012207 179.76594727 104.29541016 181.09423828 C103.95929703 207.42088115 93.85112656 230.65916717 75.625 249.6875 C57.16961532 267.54754969 32.0582654 275.38967509 6.73461914 275.3046875 C-0.42371637 275.14697817 -7.09619835 273.89628797 -14 272 C-15.05316406 271.73316406 -16.10632813 271.46632813 -17.19140625 271.19140625 C-42.8885205 264.0971109 -62.45883661 247.44384756 -75.9453125 224.72265625 C-88.18498287 202.01833264 -91.27171648 171.79022193 -84 147 C-76.8819207 125.02726234 -60.63932842 108.17956767 -45.24072266 91.62768555 C-40.58757523 86.60312028 -36.21083006 81.40257442 -32 76 C-31.5683252 75.45150391 -31.13665039 74.90300781 -30.69189453 74.33789062 C-13.59893038 52.46957583 -3.88700425 27.46475375 0 0 Z M4 26 C3.71503662 26.80497925 3.71503662 26.80497925 3.42431641 27.6262207 C-6.98725205 56.72609111 -21.92388639 78.72552474 -42.75 101.25 C-47.73768809 106.65694303 -52.44217334 112.22729647 -57 118 C-57.75152344 118.93328125 -58.50304687 119.8665625 -59.27734375 120.828125 C-75.92149232 142.10987395 -80.66085318 163.29257493 -77.64038086 190.20410156 C-76.67657301 196.57141229 -75.1111963 202.49097046 -72.8125 208.5 C-72.50425293 209.31533203 -72.19600586 210.13066406 -71.87841797 210.97070312 C-63.52451816 232.42667762 -48.32628199 249.05644058 -27.359375 258.73046875 C-5.52440085 268.26117486 19.62046307 269.39949093 42 261 C51.02759338 257.4249764 58.80415396 252.52978426 66 246 C66.83144531 245.26136719 67.66289062 244.52273438 68.51953125 243.76171875 C85.77653527 227.56505292 95.57569614 203.81659495 96.38769531 180.34814453 C96.80895353 156.25795645 87.8215196 134.45068343 74 115 C73.47599609 114.26104492 72.95199219 113.52208984 72.41210938 112.76074219 C65.80048651 103.50069211 58.96633005 94.5031668 51.51171875 85.90625 C49.12300294 83.14232377 46.80227846 80.33608108 44.5 77.5 C41.78865935 74.1611229 39.03297829 70.87276888 36.21801758 67.62084961 C25.74913595 55.47344524 16.00194538 42.56819193 7.41796875 29.01953125 C6.15369876 26.87892091 6.15369876 26.87892091 4 26 Z " fill="#F8FBFC" transform="translate(251,107)"/>
<path d="M0 0 C14 0 14 0 17.3125 2.4375 C17.869375 3.283125 18.42625 4.12875 19 5 C19.33 5.33 19.66 5.66 20 6 C20.26650744 10.05973543 20.27129546 14.12318018 20.29516602 18.19091797 C20.31231676 20.22823351 20.35617502 22.26389931 20.40039062 24.30078125 C20.40876953 25.58855469 20.41714844 26.87632812 20.42578125 28.203125 C20.44036377 29.38551758 20.45494629 30.56791016 20.4699707 31.78613281 C19.90071083 35.67898321 18.77456391 37.25437906 16 40 C12 42 12 42 0 42 C0 28.14 0 14.28 0 0 Z " fill="#F0F8F9" transform="translate(252,415)"/>
<path d="M0 0 C0.825 -0.00386719 1.65 -0.00773437 2.5 -0.01171875 C6.1355126 1.00508868 7.61953521 2.79099551 10 5.6875 C10.63110352 9.02148438 10.63110352 9.02148438 10.62890625 12.78125 C10.63131821 13.45039429 10.63373016 14.11953857 10.63621521 14.80895996 C10.63523979 16.21758985 10.62191848 17.62625951 10.59692383 19.03466797 C10.56258798 21.18199807 10.57627926 23.32521249 10.59570312 25.47265625 C10.58880411 26.84637155 10.57913119 28.22007631 10.56640625 29.59375 C10.55009155 31.45483398 10.55009155 31.45483398 10.53344727 33.35351562 C9.91055961 37.24649219 8.74091198 38.90783929 6 41.6875 C2.70641494 43.33429253 -0.46585386 43.43936701 -4 42.6875 C-6.86285486 40.89231726 -8.48787049 38.68963612 -10 35.6875 C-10.85200451 30.81433184 -10.79291371 26.05983258 -10.6875 21.125 C-10.70232422 19.82369141 -10.71714844 18.52238281 -10.73242188 17.18164062 C-10.64043041 6.62426686 -10.64043041 6.62426686 -7.76953125 2.828125 C-4.85029504 0.5717901 -3.6377286 -0.10799507 0 0 Z " fill="#F2F9FA" transform="translate(323,414.3125)"/>
<path d="M0 0 C15 0 15 0 18.4375 2.25 C21.15415009 6.84740785 20.85331517 12.89433088 20 18 C18.59375 20.3671875 18.59375 20.3671875 17 22 C16.34 22 15.68 22 15 22 C15.6496875 23.68029297 15.6496875 23.68029297 16.3125 25.39453125 C16.87526053 26.86708796 17.43774624 28.33974972 18 29.8125 C18.28617187 30.55048828 18.57234375 31.28847656 18.8671875 32.04882812 C19.13789063 32.76103516 19.40859375 33.47324219 19.6875 34.20703125 C19.93886719 34.8616333 20.19023437 35.51623535 20.44921875 36.19067383 C21 38 21 38 21 41 C19.02 41 17.04 41 15 41 C11.79421793 35.60845743 10.93101933 30.15568076 10 24 C8.68 24 7.36 24 6 24 C6 29.61 6 35.22 6 41 C4.02 41 2.04 41 0 41 C0 27.47 0 13.94 0 0 Z " fill="#F9FCFC" transform="translate(283,415)"/>
<path d="M0 0 C2.5 0.125 2.5 0.125 3.5 1.125 C3.60956696 2.66502456 3.68629371 4.20739763 3.75 5.75 C4.9599915 19.8482343 10.80384412 32.70219601 21.5 42.125 C22.12261719 42.67800781 22.74523437 43.23101562 23.38671875 43.80078125 C33.04544985 51.89885562 43.05590307 54.63036598 55.32421875 55.765625 C58.5 56.125 58.5 56.125 59.5 57.125 C59.625 59.625 59.625 59.625 59.5 62.125 C58.5 63.125 58.5 63.125 54.5625 63.3125 C38.35307155 63.05683078 24.70755683 55.98135649 13.14453125 44.859375 C8.67033057 40.05779379 5.35471172 35.01859838 2.5 29.125 C2.13003906 28.3825 1.76007813 27.64 1.37890625 26.875 C-2.56266503 18.55871774 -4.28722466 10.35200527 -3.5 1.125 C-2.5 0.125 -2.5 0.125 0 0 Z " fill="#F4F9FA" transform="translate(204.5,281.875)"/>
<path d="M0 0 C2.31 0 4.62 0 7 0 C7 14.19 7 28.38 7 43 C4.69 43 2.38 43 0 43 C0 36.73 0 30.46 0 24 C-2.31 24 -4.62 24 -7 24 C-7 29.94 -7 35.88 -7 42 C-8.98 42 -10.96 42 -13 42 C-13 28.47 -13 14.94 -13 1 C-11.02 1 -9.04 1 -7 1 C-7 6.61 -7 12.22 -7 18 C-4.69 18 -2.38 18 0 18 C0 12.06 0 6.12 0 0 Z " fill="#F0F8F9" transform="translate(206,414)"/>
<path d="M0 0 C2.31 0 4.62 0 7 0 C8.32 3.96 9.64 7.92 11 12 C12.79068573 9.3139714 13.66055791 7.3373411 14.625 4.3125 C14.88539063 3.50425781 15.14578125 2.69601562 15.4140625 1.86328125 C15.60742188 1.24839844 15.80078125 0.63351562 16 0 C17.98 0 19.96 0 22 0 C21.09824534 5.36306717 19.92346931 10.30536199 17.9375 15.375 C14.91696985 23.93129729 15.17743442 33.02181826 15 42 C12.69 42 10.38 42 8 42 C8.00902344 40.88367188 8.01804688 39.76734375 8.02734375 38.6171875 C7.87080068 25.8028212 4.96053374 14.84844429 0.62670898 2.83154297 C0 1 0 1 0 0 Z " fill="#ECF6F8" transform="translate(221,415)"/>
<path d="M0 0 C1.98 0 3.96 0 6 0 C8.70071153 2.70071153 7.18565282 10.79670964 7.1875 14.4375 C7.19974609 15.70400391 7.21199219 16.97050781 7.22460938 18.27539062 C7.22750977 20.08620117 7.22750977 20.08620117 7.23046875 21.93359375 C7.23457764 23.04790771 7.23868652 24.16222168 7.24291992 25.31030273 C7 28 7 28 5 30 C3.35 30 1.7 30 0 30 C0 20.1 0 10.2 0 0 Z " fill="#25AFBD" transform="translate(258,421)"/>
<path d="M0 0 C2.5 0.125 2.5 0.125 3.5 1.125 C3.75380234 5.59831958 3.68522721 10.0828346 3.6875 14.5625 C3.69974609 15.82900391 3.71199219 17.09550781 3.72460938 18.40039062 C3.72750977 20.21120117 3.72750977 20.21120117 3.73046875 22.05859375 C3.73457764 23.17290771 3.73868652 24.28722168 3.74291992 25.43530273 C3.5 28.125 3.5 28.125 1.5 30.125 C-1.125 29.75 -1.125 29.75 -3.5 29.125 C-3.52465881 25.15569011 -3.54284023 21.18640966 -3.55493164 17.21704102 C-3.55997057 15.86579614 -3.56680177 14.51455674 -3.57543945 13.16333008 C-3.58752419 11.22479566 -3.59269828 9.286222 -3.59765625 7.34765625 C-3.60289307 6.17984619 -3.60812988 5.01203613 -3.61352539 3.80883789 C-3.45973017 0.17298651 -3.45973017 0.17298651 0 0 Z " fill="#1AADBB" transform="translate(323.5,420.875)"/>
<path d="M0 0 C1.98 0 3.96 0 6 0 C8 2 8 2 8.265625 3.875 C8.26046875 4.57625 8.2553125 5.2775 8.25 6 C8.25515625 6.70125 8.2603125 7.4025 8.265625 8.125 C8 10 8 10 6 12 C4.02 12 2.04 12 0 12 C0 8.04 0 4.08 0 0 Z " fill="#1CAEBC" transform="translate(289,421)"/>
</svg>
