<?xml version="1.0" encoding="UTF-8"?>
<svg version="1.1" xmlns="http://www.w3.org/2000/svg" width="521" height="595">
<path d="M0 0 C2.83886719 1.34423828 2.83886719 1.34423828 5.796875 3.0703125 C7.46194092 4.03239624 7.46194092 4.03239624 9.16064453 5.01391602 C10.35717703 5.71747349 11.55362667 6.42117189 12.75 7.125 C14.00192667 7.85236779 15.25437693 8.57883507 16.50732422 9.30444336 C19.08475987 10.79875454 21.6592665 12.29792831 24.23144531 13.80126953 C28.78771651 16.46275434 33.36106808 19.09433611 37.93457031 21.72607422 C41.14832714 23.57592721 44.35968476 25.42987833 47.5703125 27.28515625 C54.04510022 31.02651656 60.52236343 34.76357483 67 38.5 C69.1666775 39.74998122 71.33334417 40.99998121 73.5 42.25 C75.10875 43.178125 75.10875 43.178125 76.75 44.125 C106 61 135.25 77.875 164.5 94.75 C165.57266113 95.36883057 166.64532227 95.98766113 167.75048828 96.62524414 C169.91557071 97.87435518 172.08060982 99.12354129 174.24560547 100.37280273 C179.68615706 103.51202309 185.12747216 106.64990563 190.5703125 109.78515625 C201.39364167 116.02127925 212.20821351 122.27191602 223 128.5625 C223.9605127 129.12203369 224.92102539 129.68156738 225.91064453 130.25805664 C226.82700684 130.79293701 227.74336914 131.32781738 228.6875 131.87890625 C229.47511719 132.3385376 230.26273437 132.79816895 231.07421875 133.27172852 C232.03972656 133.84205811 233.00523437 134.4123877 234 135 C234.80104044 135.35518713 235.60208089 135.71037426 236.42739528 136.07632464 C243.41945144 139.50640322 243.41945144 139.50640322 244.94040787 143.41941893 C245.30954881 146.48878676 245.35711556 149.42721304 245.30348206 152.51863098 C245.32260979 153.68530341 245.34173753 154.85197585 245.36144489 156.05400199 C245.4040799 159.28510005 245.40195218 162.51256289 245.38054192 165.74375737 C245.36819876 169.23086782 245.41328357 172.71731198 245.45072937 176.20417786 C245.51446329 183.03262451 245.52343382 189.86008825 245.51172806 196.68878225 C245.5028099 202.24025638 245.51156467 207.79143225 245.53285027 213.34287071 C245.53582621 214.13321258 245.53880216 214.92355445 245.54186828 215.73784607 C245.54792711 217.34348733 245.55399778 218.94912855 245.56008016 220.55476972 C245.61445851 235.61171097 245.60364623 250.66809232 245.57315593 265.72506513 C245.54731628 279.49301146 245.60356511 293.2591883 245.69864703 307.02678458 C245.79556783 321.1692907 245.83681432 335.31096001 245.81803077 349.45380038 C245.80847312 357.39172151 245.82087485 365.32813717 245.89160347 373.26578712 C245.95121998 380.02469945 245.95815903 386.7811808 245.89765263 393.54012708 C245.8682229 396.98784221 245.86261424 400.43111517 245.92266464 403.87853241 C246.2043697 424.05026388 246.2043697 424.05026388 242.53998256 428.95369506 C239.06157551 432.04672879 235.24706124 433.79908 230.87930763 435.30118978 C227.96258716 436.38575627 225.40423902 438.00737413 222.76171875 439.6328125 C220.73774693 440.79820941 218.71298949 441.96224284 216.6875 443.125 C214.42055224 444.42965157 212.15362576 445.73434013 209.88671875 447.0390625 C208.74509277 447.69551758 207.6034668 448.35197266 206.42724609 449.02832031 C200.94844203 452.18025232 195.47438887 455.34040797 190 458.5 C187.83335774 459.7500423 185.66669103 461.00004224 183.5 462.25 C182.4275 462.86875 181.355 463.4875 180.25 464.125 C66.49999999 529.75 66.49999999 529.75 63.24951172 531.62524414 C61.08442929 532.87435518 58.91939018 534.12354129 56.75439453 535.37280273 C51.31384294 538.51202309 45.87252784 541.64990563 40.4296875 544.78515625 C39.3459082 545.41083496 38.26212891 546.03651367 37.14550781 546.68115234 C34.97973736 547.92700387 32.80984694 549.1657228 30.63574219 550.39697266 C25.13326622 553.52849695 19.77992965 556.76969648 14.5234375 560.30078125 C-0.3781153 570.13598987 -0.3781153 570.13598987 -6.765625 569.8046875 C-9.82981808 568.33180242 -12.3456564 566.63660642 -14.99023438 564.50976562 C-18.20402965 562.09551514 -21.70163979 560.21003486 -25.19482422 558.23168945 C-28.32506665 556.45745184 -31.42582106 554.63913369 -34.5234375 552.80859375 C-40.9517352 549.02101042 -47.40921373 545.28563892 -53.875 541.5625 C-55.49390137 540.62954102 -55.49390137 540.62954102 -57.14550781 539.67773438 C-59.33614966 538.4153306 -61.526905 537.15312377 -63.71777344 535.89111328 C-69.14659942 532.76319852 -74.57319281 529.63141552 -80 526.5 C-82.16665583 525.24998121 -84.3333225 523.99998122 -86.5 522.75 C-99.5 515.25 -112.5 507.75 -125.5 500.25 C-126.57266113 499.63116943 -127.64532227 499.01233887 -128.75048828 498.37475586 C-130.91557071 497.12564482 -133.08060982 495.87645871 -135.24560547 494.62719727 C-140.68615706 491.48797691 -146.12747216 488.35009437 -151.5703125 485.21484375 C-162.02206199 479.19252671 -172.46299548 473.15330663 -182.875 467.0625 C-191.55263057 461.987244 -200.26636308 456.97796071 -209 452 C-218.18597372 446.76216343 -227.35792661 441.50174926 -236.5 436.1875 C-237.50289062 435.60677734 -238.50578125 435.02605469 -239.5390625 434.42773438 C-240.46460938 433.88826172 -241.39015625 433.34878906 -242.34375 432.79296875 C-243.15005859 432.3239917 -243.95636719 431.85501465 -244.78710938 431.37182617 C-245.88249023 430.69277222 -245.88249023 430.69277222 -247 430 C-247.69474047 429.57598174 -248.38948093 429.15196348 -249.10527414 428.71509618 C-251 427 -251 427 -251.51175267 424.80276948 C-251.51728073 423.93944511 -251.52280879 423.07612074 -251.52850437 422.18663502 C-251.55247629 420.69069898 -251.55247629 420.69069898 -251.57693249 419.16454202 C-251.57414868 418.06592629 -251.57136487 416.96731056 -251.5684967 415.83540344 C-251.58108676 414.67058872 -251.59367681 413.505774 -251.60664839 412.30566186 C-251.63733998 409.06690718 -251.64996449 405.828659 -251.6548301 402.58978045 C-251.66428229 399.09874521 -251.69650135 395.60790697 -251.72544861 392.11698914 C-251.79023239 383.68362332 -251.81681061 375.2502924 -251.84036294 366.81672814 C-251.85247698 362.84541406 -251.86921469 358.87412038 -251.88570976 354.90282249 C-251.93930424 341.7015062 -251.98469414 328.50021335 -252.00208378 315.29879475 C-252.0032136 314.45367579 -252.00434343 313.60855683 -252.0055075 312.73782821 C-252.00663607 311.89068106 -252.00776464 311.04353391 -252.0089274 310.17071563 C-252.01122633 308.45406105 -252.01354027 306.73740649 -252.01586914 305.02075195 C-252.01701717 304.16923112 -252.0181652 303.31771028 -252.01934802 302.44038578 C-252.03948986 288.645961 -252.11717672 274.85250489 -252.21952838 261.05846915 C-252.3237556 246.89698707 -252.37913874 232.73599283 -252.38583177 218.57412213 C-252.39074681 210.62224946 -252.41673428 202.67168249 -252.49675179 194.7201786 C-252.56468786 187.94795723 -252.58806467 181.17741741 -252.5535707 174.40491114 C-252.53730772 170.94953795 -252.54194228 167.49757455 -252.60350418 164.04263687 C-252.90393465 143.81895787 -252.90393465 143.81895787 -249.74801898 139.14632201 C-246.32587302 135.88061941 -242.45483798 134.5052403 -238 133 C-235.96203295 131.86299547 -233.94339805 130.68976658 -231.95703125 129.46484375 C-229.90995526 128.28714651 -227.86174178 127.11142462 -225.8125 125.9375 C-224.10957218 124.95848887 -222.4066462 123.97947453 -220.7038269 123.00027466 C-218.95604539 121.99552701 -217.20779404 120.99160086 -215.45947266 119.98779297 C-209.96860763 116.8327737 -204.48452655 113.66602037 -199 110.5 C-196.83336859 109.24993888 -194.66670186 107.999939 -192.5 106.75 C-191.4275 106.13125 -190.355 105.5125 -189.25 104.875 C-75.5 39.25 -75.5 39.25 -72.24951172 37.37475586 C-70.08442929 36.12564482 -67.91939018 34.87645871 -65.75439453 33.62719727 C-60.31384294 30.48797691 -54.87252784 27.35009437 -49.4296875 24.21484375 C-48.34526367 23.58964844 -47.26083984 22.96445312 -46.14355469 22.3203125 C-43.98131792 21.07478143 -41.81792288 19.83125874 -39.65332031 18.58984375 C-34.14440551 15.42368511 -28.67221281 12.21003736 -23.2421875 8.91015625 C-22.15180176 8.254104 -21.06141602 7.59805176 -19.93798828 6.92211914 C-17.86278516 5.67092645 -15.79553372 4.40641759 -13.73779297 3.12670898 C-12.80854004 2.56927002 -11.87928711 2.01183105 -10.921875 1.4375 C-9.70902832 0.69306641 -9.70902832 0.69306641 -8.47167969 -0.06640625 C-5.18971008 -1.30605973 -3.36365197 -0.92962824 0 0 Z " fill="#C5976A" transform="translate(264,13)"/>
<path d="M0 0 C3.125 -0.1875 3.125 -0.1875 6 0 C6.62491333 1.13707397 6.62491333 1.13707397 7.26245117 2.29711914 C8.88116921 5.24090872 10.50113665 8.18400462 12.12182617 11.12670898 C12.80946545 12.37580218 13.49667192 13.62513378 14.18334961 14.87475586 C14.50891846 15.46716064 14.8344873 16.05956543 15.16992188 16.66992188 C15.66878151 17.5840963 15.66878151 17.5840963 16.17771912 18.51673889 C16.89312537 19.80342908 17.62755858 21.07968492 18.3785553 22.34593201 C20.79912537 26.49075648 22.5785665 30.52141766 24.14428711 35.06469727 C26.68386918 41.68380989 29.24415239 47.60623643 35 52 C46.01200898 55.65176276 58.19065298 54.49042123 69.61608887 53.92626953 C73.91231048 53.73618747 78.2102418 53.66664251 82.50976562 53.59179688 C87.33448102 53.5061792 92.15530768 53.41010345 96.97685242 53.21089172 C98.06882683 53.16968956 98.06882683 53.16968956 99.18286133 53.12765503 C101.14741 53.05122603 103.11153592 52.96414061 105.0756073 52.876297 C108 53 108 53 110 55 C109.75 58.5625 109.75 58.5625 109 62 C105.99686252 63.50156874 103.20932478 63.09281204 99.875 63.0625 C98.59367188 63.05347656 97.31234375 63.04445312 95.9921875 63.03515625 C94.51105469 63.01775391 94.51105469 63.01775391 93 63 C93.02320313 64.20398438 93.04640625 65.40796875 93.0703125 66.6484375 C93.08906863 68.22395215 93.10726899 69.79947348 93.125 71.375 C93.14175781 72.1690625 93.15851563 72.963125 93.17578125 73.78125 C93.19335473 75.85492015 93.10335168 77.92883241 93 80 C91 82 91 82 88.5 82.25 C86 82 86 82 84 80 C84 74.39 84 68.78 84 63 C68.49 63 52.98 63 37 63 C37 82.14 37 101.28 37 121 C42.01832031 120.96519531 47.03664063 120.93039063 52.20703125 120.89453125 C55.38347515 120.87920526 58.55987357 120.86476364 61.73632812 120.85351562 C66.7797999 120.83557188 71.82310852 120.81432918 76.86645508 120.77368164 C80.93186419 120.74112043 84.99709836 120.72315387 89.06262779 120.71536827 C90.61481163 120.7098189 92.16698573 120.69898245 93.71909523 120.68280983 C95.89082259 120.66107793 98.06182424 120.6580312 100.23364258 120.65942383 C101.47052322 120.65276199 102.70740387 120.64610016 103.98176575 120.63923645 C107 121 107 121 108.90336609 122.36112976 C110.45284369 124.67675461 110.34913899 126.27671591 110 129 C108 131 108 131 104.5234375 131.1953125 C103.14049032 131.18201493 101.75761346 131.15816232 100.375 131.125 C99.66859375 131.11597656 98.9621875 131.10695312 98.234375 131.09765625 C96.48943902 131.07407603 94.74467705 131.03820461 93 131 C93.02320313 132.27617187 93.04640625 133.55234375 93.0703125 134.8671875 C93.08906829 136.5364525 93.10726869 138.2057238 93.125 139.875 C93.14175781 140.71675781 93.15851563 141.55851563 93.17578125 142.42578125 C93.18222656 143.23144531 93.18867188 144.03710938 93.1953125 144.8671875 C93.20578613 145.61081543 93.21625977 146.35444336 93.22705078 147.12060547 C93 149 93 149 91 151 C88.5 151.3125 88.5 151.3125 86 151 C84 148 84 148 84 131 C69.48 131 54.96 131 40 131 C48.1249334 150.01076649 56.28992872 169.00035794 64.56826782 187.94464111 C70.40982572 201.31567731 76.18791732 214.71278711 81.91601562 228.1328125 C82.20204651 228.80208771 82.48807739 229.47136292 82.78277588 230.16091919 C83.34406939 231.47589039 83.90379371 232.79153263 84.46185303 234.10787964 C85.91927838 237.53297423 87.41955128 240.93111526 88.98339844 244.30908203 C89.30871552 245.02173721 89.63403259 245.7343924 89.96920776 246.46864319 C90.58887948 247.82205482 91.21880601 249.17084022 91.8611145 250.51365662 C93.81987699 254.8204215 94.56605014 258.28473674 94 263 C91 265 91 265 89.10083008 264.81469727 C86.56709033 263.83211858 84.6070177 262.53543061 82.38671875 260.96484375 C81.48050781 260.32869141 80.57429687 259.69253906 79.640625 259.03710938 C78.66609375 258.34423828 77.6915625 257.65136719 76.6875 256.9375 C74.59776741 255.4672899 72.50792052 253.99724226 70.41796875 252.52734375 C69.34981934 251.77308105 68.28166992 251.01881836 67.18115234 250.24169922 C62.30356315 246.80455233 57.40142876 243.40301854 52.5 240 C50.59493607 238.67464591 48.6899887 237.34912425 46.78515625 236.0234375 C42.83630481 233.27623519 38.88554595 230.5318022 34.93359375 227.7890625 C24.57208794 220.59503762 14.23219275 213.37710951 4 206 C-5.74933968 211.94799164 -15.0254762 218.56000031 -24.35498047 225.13720703 C-28.5633255 228.10099442 -32.78202072 231.0499487 -37 234 C-38.65889228 235.1614039 -40.31774633 236.3228624 -41.9765625 237.484375 C-45.38673824 239.87163138 -48.79836513 242.25679597 -52.2109375 244.640625 C-53.06800293 245.2399585 -53.92506836 245.83929199 -54.80810547 246.45678711 C-56.50096444 247.63940544 -58.19527064 248.81995518 -59.89111328 249.99829102 C-63.69657911 252.6495408 -67.46584114 255.32697564 -71.15625 258.13671875 C-71.78998535 258.61270508 -72.4237207 259.08869141 -73.07666016 259.57910156 C-74.23351723 260.45294798 -75.38009062 261.3406692 -76.51318359 262.24511719 C-79.35865617 264.38124959 -80.71125558 265.01596587 -84.3203125 264.81640625 C-87 264 -87 264 -88 263 C-88.36964973 258.31691743 -87.51505509 255.16558648 -85.61328125 250.90625 C-85.09378906 249.72675781 -84.57429688 248.54726563 -84.0390625 247.33203125 C-83.463629 246.05464816 -82.88810566 244.77730553 -82.3125 243.5 C-81.71888588 242.16067252 -81.12645855 240.82081848 -80.53515625 239.48046875 C-79.30618208 236.69715635 -78.07213928 233.91617613 -76.83447266 231.13671875 C-74.28130461 225.3927196 -71.7905453 219.62192836 -69.29940796 213.85083008 C-67.95258456 210.73259585 -66.6010369 207.61641035 -65.25 204.5 C-64.70831107 203.25000965 -64.16664439 202.00000965 -63.625 200.75 C-62.54166667 198.25 -61.45833333 195.75 -60.375 193.25 C-60.10693039 192.63137589 -59.83886078 192.01275177 -59.56266785 191.37538147 C-59.0204474 190.12410743 -58.47822123 188.87283587 -57.93598938 187.62156677 C-56.5902489 184.51607976 -55.24460453 181.41055118 -53.89916992 178.30493164 C-51.3613236 172.44719311 -48.82246046 166.58990077 -46.28042603 160.73397827 C-45.07982213 157.96807102 -43.87973477 155.2019398 -42.6796875 152.43579102 C-42.10751756 151.11731946 -41.53509459 149.79895767 -40.96240234 148.48071289 C-40.16830437 146.65278482 -39.37514826 144.82444766 -38.58203125 142.99609375 C-38.13061768 141.95638428 -37.6792041 140.9166748 -37.21411133 139.84545898 C-36.10500133 137.24608698 -35.04958841 134.62397103 -34 132 C-48.52 131.67 -63.04 131.34 -78 131 C-78 136.94 -78 142.88 -78 149 C-80 151 -80 151 -82.5 151.3125 C-83.7375 151.1578125 -83.7375 151.1578125 -85 151 C-87.03120707 147.95318939 -87.24659875 147.39881676 -87.1953125 143.98828125 C-87.18886719 143.23095703 -87.18242187 142.47363281 -87.17578125 141.69335938 C-87.15902344 140.90767578 -87.14226562 140.12199219 -87.125 139.3125 C-87.11597656 138.51521484 -87.10695312 137.71792969 -87.09765625 136.89648438 C-87.07411585 134.930861 -87.03824547 132.96539225 -87 131 C-88.05960938 131.03480469 -89.11921875 131.06960937 -90.2109375 131.10546875 C-91.59894252 131.13360399 -92.98696463 131.16090443 -94.375 131.1875 C-95.07367188 131.21263672 -95.77234375 131.23777344 -96.4921875 131.26367188 C-98.5234375 131.29296875 -98.5234375 131.29296875 -102 131 C-104 128 -104 128 -103.75 125.4375 C-103 123 -103 123 -101 121 C-98.0640564 120.75949097 -98.0640564 120.75949097 -94.25537109 120.77294922 C-93.56257553 120.77265717 -92.86977997 120.77236511 -92.1559906 120.77206421 C-89.86167966 120.77345969 -87.56769184 120.78903081 -85.2734375 120.8046875 C-83.68446022 120.80841686 -82.09548064 120.8112642 -80.50650024 120.81326294 C-76.32085846 120.82090547 -72.1353551 120.84055919 -67.94976807 120.8626709 C-62.9296047 120.88670961 -57.9093951 120.89590737 -52.88919067 120.90757751 C-45.25936412 120.92698332 -37.6298414 120.96530138 -30 121 C-30 101.86 -30 82.72 -30 63 C-45.84 63 -61.68 63 -78 63 C-78 68.94 -78 74.88 -78 81 C-81.465 81.495 -81.465 81.495 -85 82 C-87 80 -87 80 -87.1953125 76.0859375 C-87.18200376 74.51550649 -87.15813602 72.94513779 -87.125 71.375 C-87.11597656 70.57320313 -87.10695312 69.77140625 -87.09765625 68.9453125 C-87.07406223 66.96341477 -87.03819065 64.98167019 -87 63 C-87.97582031 63.03480469 -88.95164063 63.06960937 -89.95703125 63.10546875 C-91.86548828 63.14607422 -91.86548828 63.14607422 -93.8125 63.1875 C-95.70935547 63.23970703 -95.70935547 63.23970703 -97.64453125 63.29296875 C-101 63 -101 63 -102.9296875 61.6484375 C-104.43965521 59.32286679 -104.34778158 57.71269629 -104 55 C-102 53 -102 53 -98.95016479 52.75949097 C-97.64000397 52.76393219 -96.32984314 52.76837341 -94.97998047 52.77294922 C-94.25792419 52.77265717 -93.53586792 52.77236511 -92.79193115 52.77206421 C-90.40022858 52.77345992 -88.00883579 52.78903217 -85.6171875 52.8046875 C-83.9609494 52.80841678 -82.30470911 52.81126415 -80.64846802 52.81326294 C-76.2852776 52.82090611 -71.92221993 52.8405604 -67.55908203 52.8626709 C-63.10841671 52.88311465 -58.65772997 52.8922615 -54.20703125 52.90234375 C-45.47129319 52.92380571 -36.7356631 52.95794982 -28 53 C-27.54021255 51.83457924 -27.54021255 51.83457924 -27.07113647 50.64561462 C-26.03763661 48.09295919 -24.87463815 45.6947489 -23.6015625 43.25390625 C-23.1276709 42.34415039 -22.6537793 41.43439453 -22.16552734 40.49707031 C-21.65715332 39.52866211 -21.1487793 38.56025391 -20.625 37.5625 C-19.83730225 36.05768066 -19.83730225 36.05768066 -19.03369141 34.52246094 C-15.20495175 27.23363292 -11.3130825 19.98029047 -7.375 12.75 C-6.86662598 11.81615479 -6.35825195 10.88230957 -5.83447266 9.92016602 C-3.97761964 6.52814193 -2.14645792 3.21968688 0 0 Z " fill="#FDFCFB" transform="translate(256,107)"/>
<path d="M0 0 C1.35568336 0.00333092 1.35568336 0.00333092 2.73875427 0.00672913 C3.75973709 0.00680466 4.78071991 0.00688019 5.8326416 0.00695801 C6.94304306 0.01211929 8.05344452 0.01728058 9.19749451 0.02259827 C10.89336952 0.02472069 10.89336952 0.02472069 12.62350464 0.02688599 C16.25105891 0.03250433 19.8785525 0.04505994 23.50608826 0.05775452 C25.95856133 0.06276715 28.41103536 0.06733047 30.86351013 0.07142639 C36.89022371 0.08247971 42.91690165 0.09923568 48.94358826 0.12025452 C50.37866063 3.30767506 51.81348887 6.49520545 53.24827576 9.68275452 C53.85288635 11.02563538 53.85288635 11.02563538 54.4697113 12.39564514 C63.02655534 31.40698529 63.02655534 31.40698529 62.71458435 34.08900452 C61.72442437 36.69765907 60.607879 37.41202243 58.28733826 38.93275452 C57.5197821 39.44547913 56.75222595 39.95820374 55.96141052 40.48646545 C54.7150885 41.29519104 54.7150885 41.29519104 53.44358826 42.12025452 C51.71214453 43.26982906 49.98169723 44.4209056 48.25218201 45.57337952 C47.37030212 46.15796936 46.48842224 46.7425592 45.57981873 47.34486389 C40.76391219 50.58817491 36.06585004 54.00092389 31.37718201 57.42494202 C30.71976013 57.89673889 30.06233826 58.36853577 29.38499451 58.85462952 C28.52950012 59.47676331 28.52950012 59.47676331 27.65672302 60.11146545 C25.69605988 61.266013 24.20923025 61.85805692 21.94358826 62.12025452 C19.28280312 60.53049643 16.90947203 58.91292477 14.44358826 57.05775452 C12.93246448 55.95537597 11.42071786 54.85385084 9.90843201 53.75306702 C9.10905212 53.16557678 8.30967224 52.57808655 7.48606873 51.97279358 C3.03647808 48.73066819 -1.48092967 45.5857102 -5.99391174 42.43275452 C-6.86402893 41.82101379 -7.73414612 41.20927307 -8.63063049 40.57899475 C-9.44016174 40.01124329 -10.24969299 39.44349182 -11.08375549 38.85853577 C-11.8029718 38.3536261 -12.52218811 37.84871643 -13.26319885 37.32850647 C-15.04314375 36.07317528 -15.04314375 36.07317528 -17.05641174 35.12025452 C-14.69544216 27.53945422 -11.65740782 20.37034466 -8.43141174 13.12025452 C-7.92867737 11.97685608 -7.42594299 10.83345764 -6.90797424 9.65541077 C-2.70711468 0.15830622 -2.70711468 0.15830622 0 0 Z " fill="#C5976B" transform="translate(236.05641174316406,237.87974548339844)"/>
<path d="M0 0 C15.84 0 31.68 0 48 0 C48 19.14 48 38.28 48 58 C32.16 58 16.32 58 0 58 C0 38.86 0 19.72 0 0 Z " fill="#C5976B" transform="translate(235,170)"/>
<path d="M0 0 C4.43715887 0.91040344 7.61174947 3.29365421 11.25 5.875 C12.67174949 6.86866919 14.09362856 7.86215299 15.515625 8.85546875 C16.61487305 9.62769775 16.61487305 9.62769775 17.73632812 10.41552734 C21.47353959 13.03141414 25.2378311 15.60770276 29 18.1875 C30.35429395 19.11830442 31.70847253 20.04927673 33.0625 20.98046875 C34.031875 21.64691406 35.00125 22.31335938 36 23 C34.48907269 27.49138665 30.90136279 29.40820071 27.125 31.875 C25.66724764 32.85178927 24.21025137 33.8297076 22.75390625 34.80859375 C21.5939917 35.58372314 21.5939917 35.58372314 20.41064453 36.37451172 C16.25715359 39.17519459 12.16167685 42.05816524 8.0625 44.9375 C7.22299805 45.52587646 6.38349609 46.11425293 5.51855469 46.72045898 C-0.74096542 51.10922794 -6.98885334 55.51439937 -13.23193359 59.92651367 C-18.47708174 63.63332991 -23.73277756 67.32459172 -29 71 C-29.33 70.34 -29.66 69.68 -30 69 C-29.21826172 66.77050781 -29.21826172 66.77050781 -27.9296875 63.953125 C-27.45152588 62.89488525 -26.97336426 61.83664551 -26.48071289 60.74633789 C-25.95082764 59.59254639 -25.42094238 58.43875488 -24.875 57.25 C-23.76557164 54.79617231 -22.65755222 52.34174266 -21.55078125 49.88671875 C-21.26180466 49.24782211 -20.97282806 48.60892548 -20.6750946 47.95066833 C-17.68329175 41.32711938 -14.78212143 34.66517501 -11.89776611 27.9942627 C-11.08467044 26.11377471 -10.26974125 24.23408978 -9.45458984 22.35449219 C-6.24126258 14.92818099 -3.09082055 7.47812336 0 0 Z " fill="#C5986C" transform="translate(214,282)"/>
<path d="M0 0 C5.893051 12.94339367 11.60834905 25.95909828 17.24169922 39.01708984 C20.69852643 47.02544649 24.19428269 55.01449357 27.81665039 62.94970703 C30 67.78576356 30 67.78576356 30 70 C25.55547576 68.50464605 22.1285398 66.0587791 18.4375 63.25 C12.4667085 58.79036697 6.42609457 54.44930341 0.3125 50.1875 C-0.52047607 49.60661621 -1.35345215 49.02573242 -2.21166992 48.42724609 C-3.92681159 47.23186913 -5.64222821 46.03688656 -7.35791016 44.84228516 C-10.07900865 42.94490859 -12.79596109 41.04173088 -15.51171875 39.13671875 C-16.40995361 38.50677002 -17.30818848 37.87682129 -18.23364258 37.2277832 C-19.94856939 36.02484582 -21.663264 34.82157731 -23.37768555 33.61791992 C-27.55211708 30.6925852 -31.74397476 27.80541857 -36 25 C-31.7784117 20.39307402 -26.99515587 17.08331215 -21.8125 13.625 C-20.11162572 12.47838871 -18.41110168 11.3312577 -16.7109375 10.18359375 C-15.89850586 9.63687012 -15.08607422 9.09014648 -14.24902344 8.52685547 C-10.68892015 6.10991171 -7.19717833 3.60181837 -3.71484375 1.07421875 C-2 0 -2 0 0 0 Z " fill="#C5986C" transform="translate(304,282)"/>
<path d="M0 0 C3.91684982 1.30561661 4.12974013 2.62203296 5.9609375 6.25 C6.51523437 7.33410156 7.06953125 8.41820312 7.640625 9.53515625 C8.21296875 10.67855469 8.7853125 11.82195312 9.375 13 C10.50666809 15.22974786 11.63946264 17.4589244 12.7734375 19.6875 C13.31581055 20.76 13.85818359 21.8325 14.41699219 22.9375 C16.23058586 26.44609331 18.15303471 29.87958775 20.13916016 33.29296875 C21 35 21 35 21 37 C7.8 37 -5.4 37 -19 37 C-9.7972973 18.59459459 -9.7972973 18.59459459 -5 9.5 C-4.51144531 8.57058594 -4.02289063 7.64117187 -3.51953125 6.68359375 C-2.34778192 4.45497247 -1.17462365 2.22710723 0 0 Z " fill="#C5986C" transform="translate(258,123)"/>
<path d="M0 0 C0.75925781 -0.04898437 1.51851563 -0.09796875 2.30078125 -0.1484375 C5.94390576 0.65054562 7.35095891 2.52962279 9.6875 5.375 C10.31860352 8.70898438 10.31860352 8.70898438 10.31640625 12.46875 C10.31881821 13.13789429 10.32123016 13.80703857 10.32371521 14.49645996 C10.32273979 15.90508985 10.30941848 17.31375951 10.28442383 18.72216797 C10.25008798 20.86949807 10.26377926 23.01271249 10.28320312 25.16015625 C10.27630411 26.53387155 10.26663119 27.90757631 10.25390625 29.28125 C10.23759155 31.14233398 10.23759155 31.14233398 10.22094727 33.04101562 C9.59805961 36.93399219 8.42841198 38.59533929 5.6875 41.375 C2.53838521 42.94955739 0.16741184 42.72299118 -3.3125 42.375 C-6.28922584 40.60219439 -8.74054007 38.51891985 -10.3125 35.375 C-10.56987715 31.28927091 -10.58349847 27.20183513 -10.60766602 23.10864258 C-10.62485006 21.08019971 -10.66873375 19.05340006 -10.71289062 17.02539062 C-10.72545898 15.10049805 -10.72545898 15.10049805 -10.73828125 13.13671875 C-10.75286377 11.96069092 -10.76744629 10.78466309 -10.7824707 9.57299805 C-10.21889629 5.73805714 -8.99836386 4.1139874 -6.3125 1.375 C-4.04001762 0.23875881 -2.52947236 0.11053157 0 0 Z " fill="#FCFAF8" transform="translate(387.3125,413.625)"/>
<path d="M0 0 C1.98 0 3.96 0 6 0 C8.31 6.27 10.62 12.54 13 19 C15.25471455 15.61792818 16.34844739 12.20809193 17.5625 8.375 C19.87295362 1.12704638 19.87295362 1.12704638 21 0 C22.98 0 24.96 0 27 0 C27 13.86 27 27.72 27 42 C25.02 42 23.04 42 21 42 C20.67 34.74 20.34 27.48 20 20 C18.35 24.62 16.7 29.24 15 34 C13.68 33.67 12.36 33.34 11 33 C9.18545412 28.78286096 8.20764002 24.44239009 7 20 C6.67 27.26 6.34 34.52 6 42 C4.02 42 2.04 42 0 42 C0 28.14 0 14.28 0 0 Z " fill="#FEFDFC" transform="translate(245,414)"/>
<path d="M0 0 C14 0 14 0 18 2 C20.36398846 5.54598268 20.29818374 7.23329099 20.3125 11.4375 C20.32925781 12.57058594 20.34601563 13.70367187 20.36328125 14.87109375 C19.96389341 18.31098259 19.07008538 19.35208591 17 22 C16.95744924 24.01769299 16.95744924 24.01769299 17.625 26.0625 C17.83125 26.8359375 18.0375 27.609375 18.25 28.40625 C18.4975 29.2621875 18.745 30.118125 19 31 C19.54166667 33.02083333 20.08333333 35.04166667 20.625 37.0625 C21.0812105 38.70892303 21.53877773 40.35497391 22 42 C19.69 42 17.38 42 15 42 C14.67386719 40.78441406 14.34773437 39.56882812 14.01171875 38.31640625 C13.5709704 36.73158772 13.12952818 35.14696204 12.6875 33.5625 C12.47416016 32.76005859 12.26082031 31.95761719 12.04101562 31.13085938 C11.82509766 30.36708984 11.60917969 29.60332031 11.38671875 28.81640625 C11.19295654 28.10943604 10.99919434 27.40246582 10.79956055 26.67407227 C10.53570557 26.12162842 10.27185059 25.56918457 10 25 C9.01 24.67 8.02 24.34 7 24 C7 29.94 7 35.88 7 42 C4.69 42 2.38 42 0 42 C0 28.14 0 14.28 0 0 Z " fill="#FBF8F5" transform="translate(123,414)"/>
<path d="M0 0 C1.98 0 3.96 0 6 0 C6.77512547 1.8106686 7.54484187 3.62365291 8.3125 5.4375 C8.74175781 6.44683594 9.17101562 7.45617187 9.61328125 8.49609375 C11.23871298 12.60317054 12.60321411 16.80964234 14 21 C14.33 14.07 14.66 7.14 15 0 C16.98 0 18.96 0 21 0 C21 13.86 21 27.72 21 42 C19.02 42 17.04 42 15 42 C12.36 34.74 9.72 27.48 7 20 C6.67 27.26 6.34 34.52 6 42 C4.02 42 2.04 42 0 42 C0 28.14 0 14.28 0 0 Z " fill="#FEFDFD" transform="translate(408,414)"/>
<path d="M0 0 C1.98 0 3.96 0 6 0 C8.31 6.6 10.62 13.2 13 20 C13.33 13.4 13.66 6.8 14 0 C15.98 0 17.96 0 20 0 C20 13.53 20 27.06 20 41 C18.02 41 16.04 41 14 41 C11.36 33.74 8.72 26.48 6 19 C5.67 26.26 5.34 33.52 5 41 C3.35 41 1.7 41 0 41 C0 27.47 0 13.94 0 0 Z " fill="#FDFCFB" transform="translate(184,414)"/>
<path d="M0 0 C1.98 0 3.96 0 6 0 C6.96137229 3.96498827 7.92161002 7.93024953 8.88085938 11.89575195 C9.20640441 13.240877 9.5322435 14.58593091 9.85839844 15.9309082 C10.91419104 20.28524304 11.96119333 24.64158225 13 29 C13.22204102 29.92699707 13.44408203 30.85399414 13.67285156 31.80908203 C14.49044112 35.32673587 15 38.36785059 15 42 C13.02 42 11.04 42 9 42 C8.67 39.03 8.34 36.06 8 33 C5.03 33 2.06 33 -1 33 C-1.33 35.97 -1.66 38.94 -2 42 C-4.31 42 -6.62 42 -9 42 C-8.76925781 40.9790625 -8.53851563 39.958125 -8.30078125 38.90625 C-5.39304259 25.9665107 -2.67912402 12.98879015 0 0 Z " fill="#FCFAF8" transform="translate(160,414)"/>
<path d="M0 0 C2.41564297 0.44942195 4.10126211 1.10314183 6.18359375 2.40625 C8.61304535 6.0504274 8.3453895 8.11866272 8.18359375 12.40625 C6.20359375 12.40625 4.22359375 12.40625 2.18359375 12.40625 C1.85359375 10.42625 1.52359375 8.44625 1.18359375 6.40625 C-0.79640625 7.06625 -2.77640625 7.72625 -4.81640625 8.40625 C-5.23387233 11.27989791 -5.23387233 11.27989791 -4.81640625 14.40625 C-2.69032446 16.23350006 -2.69032446 16.23350006 0.18359375 17.40625 C6.01216518 20.14910714 6.01216518 20.14910714 8.18359375 23.40625 C8.484375 26.1484375 8.484375 26.1484375 8.49609375 29.28125 C8.51285156 30.30992187 8.52960938 31.33859375 8.546875 32.3984375 C8.13292751 35.82574466 7.23310766 37.65116572 5.18359375 40.40625 C1.49861579 42.86290197 -1.53612411 43.10711491 -5.81640625 42.40625 C-8.62644085 40.61261089 -10.32581093 39.38744065 -11.81640625 36.40625 C-11.85639825 34.40664988 -11.85987424 32.40577758 -11.81640625 30.40625 C-9.83640625 30.40625 -7.85640625 30.40625 -5.81640625 30.40625 C-5.15640625 32.05625 -4.49640625 33.70625 -3.81640625 35.40625 C-1.34140625 34.91125 -1.34140625 34.91125 1.18359375 34.40625 C1.18359375 31.43625 1.18359375 28.46625 1.18359375 25.40625 C0.49652344 25.09171875 -0.19054687 24.7771875 -0.8984375 24.453125 C-1.79949219 24.02515625 -2.70054687 23.5971875 -3.62890625 23.15625 C-4.52222656 22.73859375 -5.41554688 22.3209375 -6.3359375 21.890625 C-9.00958084 20.29064946 -10.28762925 19.10758412 -11.81640625 16.40625 C-12.62121344 12.34197371 -12.58369697 8.28926299 -11.0078125 4.421875 C-8.00884029 0.06350708 -4.85807709 -0.20206906 0 0 Z " fill="#FDFBFA" transform="translate(311.81640625,413.59375)"/>
<path d="M0 0 C2.87029869 1.79393668 4.49131638 2.98263276 6 6 C6.039992 7.99960012 6.04346799 10.00047242 6 12 C4.02 12 2.04 12 0 12 C-0.66 10.35 -1.32 8.7 -2 7 C-3.65 7 -5.3 7 -7 7 C-7 9.64 -7 12.28 -7 15 C-6.31292969 15.31453125 -5.62585938 15.6290625 -4.91796875 15.953125 C-4.01691406 16.38109375 -3.11585938 16.8090625 -2.1875 17.25 C-0.84751953 17.87648438 -0.84751953 17.87648438 0.51953125 18.515625 C3.20764769 20.12426161 4.48806327 21.26669419 6 24 C6.742137 28.88209732 6.63802498 33.51127506 4.6875 38.0625 C1.97471519 41.17717886 0.31671966 41.96365512 -3.8125 42.4375 C-6.95572306 42.34471113 -8.89530991 41.80422896 -11.4375 39.9375 C-14.41954213 36.51906146 -14.82473367 34.46929132 -15 30 C-13.02 30 -11.04 30 -9 30 C-8.34 31.65 -7.68 33.3 -7 35 C-5.35 35 -3.7 35 -2 35 C-0.5216774 32.04335481 -0.93967217 29.25770263 -1 26 C-1.77085937 25.60167969 -2.54171875 25.20335937 -3.3359375 24.79296875 C-4.33882812 24.26316406 -5.34171875 23.73335938 -6.375 23.1875 C-7.37273437 22.66542969 -8.37046875 22.14335937 -9.3984375 21.60546875 C-12 20 -12 20 -14 17 C-14.74942047 11.46217718 -14.96202669 6.61372219 -12.0625 1.75 C-7.93738497 -0.60720859 -4.64634987 -0.93432035 0 0 Z " fill="#FCFAF8" transform="translate(229,414)"/>
<path d="M0 0 C2.87029869 1.79393668 4.49131638 2.98263276 6 6 C6.039992 7.99960012 6.04346799 10.00047242 6 12 C4.02 12 2.04 12 0 12 C-0.66 10.35 -1.32 8.7 -2 7 C-3.65 7 -5.3 7 -7 7 C-7 9.64 -7 12.28 -7 15 C-6.31292969 15.31453125 -5.62585938 15.6290625 -4.91796875 15.953125 C-4.01691406 16.38109375 -3.11585938 16.8090625 -2.1875 17.25 C-0.84751953 17.87648438 -0.84751953 17.87648438 0.51953125 18.515625 C3.20764769 20.12426161 4.48806327 21.26669419 6 24 C6.73929819 28.86342241 6.61279817 33.49864447 4.75 38.0625 C1.8354051 41.28937292 -0.05422546 41.8773996 -4.375 42.4375 C-9.08852136 41.86862673 -10.85488434 40.51953419 -14 37 C-14.875 33.1875 -14.875 33.1875 -15 30 C-13.02 30 -11.04 30 -9 30 C-8.34 31.65 -7.68 33.3 -7 35 C-5.35 35 -3.7 35 -2 35 C-0.5216774 32.04335481 -0.93967217 29.25770263 -1 26 C-1.77085937 25.61328125 -2.54171875 25.2265625 -3.3359375 24.828125 C-4.33882813 24.30734375 -5.34171875 23.7865625 -6.375 23.25 C-7.37273437 22.73953125 -8.37046875 22.2290625 -9.3984375 21.703125 C-12.15655189 19.89751258 -13.02166319 19.09335397 -14 16 C-14.74600061 10.73087988 -14.86211385 6.41831633 -12.0625 1.8125 C-7.94425713 -0.62482741 -4.6760304 -0.94028872 0 0 Z " fill="#FDFBF9" transform="translate(344,414)"/>
<path d="M0 0 C6.6 0 13.2 0 20 0 C20 1.98 20 3.96 20 6 C17.69 6 15.38 6 13 6 C13 17.88 13 29.76 13 42 C11.02 42 9.04 42 7 42 C7 30.12 7 18.24 7 6 C4.69 6 2.38 6 0 6 C0 4.02 0 2.04 0 0 Z " fill="#FDFCFB" transform="translate(95,414)"/>
<path d="M0 0 C2.31 0 4.62 0 7 0 C7 13.86 7 27.72 7 42 C4.69 42 2.38 42 0 42 C0 28.14 0 14.28 0 0 Z " fill="#F7F1EB" transform="translate(283,414)"/>
<path d="M0 0 C1.98 0 3.96 0 6 0 C6 13.86 6 27.72 6 42 C4.02 42 2.04 42 0 42 C0 28.14 0 14.28 0 0 Z " fill="#FEFEFD" transform="translate(360,414)"/>
<path d="M0 0 C2.4375 0.1875 2.4375 0.1875 3.4375 1.1875 C3.69130234 5.66081958 3.62272721 10.1453346 3.625 14.625 C3.63724609 15.89150391 3.64949219 17.15800781 3.66210938 18.46289062 C3.66500977 20.27370117 3.66500977 20.27370117 3.66796875 22.12109375 C3.67207764 23.23540771 3.67618652 24.34972168 3.68041992 25.49780273 C3.4375 28.1875 3.4375 28.1875 1.4375 30.1875 C-1.125 29.9375 -1.125 29.9375 -3.5625 29.1875 C-5.67939593 24.95370814 -4.74743005 19.33910218 -4.75 14.6875 C-4.76224609 13.52089844 -4.77449219 12.35429687 -4.78710938 11.15234375 C-4.78904297 10.03988281 -4.79097656 8.92742187 -4.79296875 7.78125 C-4.79707764 6.75708984 -4.80118652 5.73292969 -4.80541992 4.67773438 C-4.46053998 1.14228174 -3.53831479 0.25890108 0 0 Z " fill="#C89D72" transform="translate(387.5625,419.8125)"/>
<path d="M0 0 C2.33294775 -0.04241723 4.66702567 -0.04092937 7 0 C8.66684015 1.66684015 8.21072764 3.65643069 8.25 5.9375 C8.28867188 7.28134766 8.28867188 7.28134766 8.328125 8.65234375 C8.21984375 9.42707031 8.1115625 10.20179688 8 11 C5 13 5 13 0 13 C0 8.71 0 4.42 0 0 Z " fill="#CAA077" transform="translate(129,420)"/>
<path d="M0 0 C1.79275866 3.11910856 2.34290718 5.67682428 2.625 9.25 C2.69976562 10.14203125 2.77453125 11.0340625 2.8515625 11.953125 C2.90054688 12.62859375 2.94953125 13.3040625 3 14 C1.35 14 -0.3 14 -2 14 C-1.85970581 11.8537974 -1.71261836 9.70803782 -1.5625 7.5625 C-1.48128906 6.36753906 -1.40007812 5.17257812 -1.31640625 3.94140625 C-1 1 -1 1 0 0 Z " fill="#CEA780" transform="translate(163,427)"/>
</svg>
