<?xml version="1.0" encoding="UTF-8"?>
<svg version="1.1" xmlns="http://www.w3.org/2000/svg" width="520" height="595">
<path d="M0 0 C2.87060547 1.36010742 2.87060547 1.36010742 5.8671875 3.10546875 C7.54772217 4.07528687 7.54772217 4.07528687 9.26220703 5.06469727 C10.46658132 5.77211099 11.67084281 6.47971678 12.875 7.1875 C14.13218264 7.91739043 15.38983941 8.64646475 16.64794922 9.37475586 C19.83716971 11.22383249 23.02006445 13.08349096 26.20092773 14.94689941 C28.8863833 16.51885118 31.57610509 18.08345251 34.265625 19.6484375 C38.18475378 21.93070793 42.10100792 24.21781329 46.015625 26.5078125 C55.55822933 32.08429156 65.14057793 37.59211491 74.71777344 43.10888672 C80.14659942 46.23680148 85.57319281 49.36858448 91 52.5 C93.16665583 53.75001879 95.3333225 55.00001878 97.5 56.25 C127.83333333 73.75 158.16666667 91.25 188.5 108.75 C189.57386963 109.3694751 190.64773926 109.9889502 191.75415039 110.62719727 C193.90721037 111.86947806 196.06004478 113.11214988 198.21264648 114.35522461 C203.24101461 117.25836112 208.27139814 120.15778867 213.31021118 123.04275513 C215.08432545 124.05877184 216.85769919 125.07606928 218.63085938 126.09375 C220.84815314 127.36582292 223.06681075 128.63552285 225.28710938 129.90234375 C226.29708984 130.48242188 227.30707031 131.0625 228.34765625 131.66015625 C229.66262085 132.41244507 229.66262085 132.41244507 231.00415039 133.17993164 C231.99278076 133.7805542 232.98141113 134.38117676 234 135 C234.73367717 135.35700237 235.46735434 135.71400475 236.22326416 136.08182538 C242.48810398 139.49578386 242.48810398 139.49578386 243.82906163 143.43621325 C244.13820653 146.5282962 244.15638891 149.51019966 244.08229065 152.61715698 C244.09382538 154.3828161 244.09382538 154.3828161 244.10559314 156.18414509 C244.11784299 159.44404562 244.08978104 162.70071355 244.04459059 165.96023178 C244.00568029 169.47753918 244.01887968 172.99469915 244.02571106 176.51216125 C244.03042767 182.60367317 244.00222018 188.69431672 243.95157051 194.7856102 C243.87838885 203.59241243 243.85498392 212.39879528 243.84367859 221.20586862 C243.82398662 235.49490559 243.76410841 249.78347986 243.67895508 264.07226562 C243.59632868 277.95147386 243.53263055 291.83055637 243.49438477 305.70996094 C243.49202025 306.56565233 243.48965574 307.42134372 243.48721958 308.30296515 C243.47547414 312.595769 243.46410079 316.88857374 243.45291245 321.18137908 C243.35962976 356.7879159 243.20112758 392.39391525 243 428 C242.28686142 428.39824478 241.57372284 428.79648956 240.838974 429.20680237 C238.15304822 430.70726489 235.46755344 432.20849529 232.78233337 433.71022034 C231.06464459 434.67055196 229.3464755 435.63002433 227.6282959 436.58947754 C221.56972243 439.97850939 215.53334902 443.39600837 209.5625 446.9375 C208.86624008 447.35030716 208.16998016 447.76311432 207.45262146 448.18843079 C206.81856888 448.56452988 206.1845163 448.94062897 205.53125 449.328125 C199.90132145 452.66001908 194.2308083 455.92147673 188.5625 459.1875 C187.45527588 459.82550537 186.34805176 460.46351074 185.20727539 461.12084961 C182.93662932 462.42889477 180.66587642 463.73675448 178.39501953 465.04443359 C172.9283002 468.19332054 167.46425113 471.34683264 162 474.5 C159.83334689 475.7500235 157.66668021 477.00002347 155.5 478.25 C154.4275 478.86875 153.355 479.4875 152.25 480.125 C116.5 500.75 116.5 500.75 113.24951172 502.62524414 C111.08442929 503.87435518 108.91939018 505.12354129 106.75439453 506.37280273 C101.31384294 509.51202309 95.87252784 512.64990563 90.4296875 515.78515625 C79.97793881 521.80747282 69.53694017 527.84658414 59.125 533.9375 C52.78285237 537.64761425 46.42946399 541.33640025 40.046875 544.9765625 C39.16242958 545.48110207 39.16242958 545.48110207 38.26011658 545.99583435 C35.28642103 547.6910809 32.31065845 549.38258298 29.33227539 551.06958008 C23.669793 554.28378052 18.05297767 557.55253457 12.51171875 560.97265625 C11.00085693 561.89776001 11.00085693 561.89776001 9.45947266 562.84155273 C7.57574198 564.00122344 5.70107638 565.17579559 3.83740234 566.36743164 C3.00547363 566.87781982 2.17354492 567.38820801 1.31640625 567.9140625 C0.59912354 568.3673291 -0.11815918 568.8205957 -0.85717773 569.28759766 C-3 570 -3 570 -5.41357422 569.32836914 C-8.21601228 567.88905769 -10.96782186 566.40279188 -13.69921875 564.83203125 C-14.81248535 564.19386475 -15.92575195 563.55569824 -17.07275391 562.89819336 C-18.27771682 562.20304466 -19.4826309 561.5078113 -20.6875 560.8125 C-21.94434799 560.09031382 -23.20134912 559.3683941 -24.45849609 558.64672852 C-27.68637148 556.79256933 -30.91189349 554.93436047 -34.13653564 553.07458496 C-36.99525204 551.42607817 -39.85518454 549.77968312 -42.71484375 548.1328125 C-48.07278109 545.04520824 -53.42792501 541.95279067 -58.78222656 538.85888672 C-64.18670645 535.73675395 -69.59347412 532.61858796 -75 529.5 C-77.1666775 528.25001878 -79.33334417 527.00001879 -81.5 525.75 C-83.10875 524.821875 -83.10875 524.821875 -84.75 523.875 C-88 522 -91.25 520.125 -94.5 518.25 C-95.57266113 517.63116943 -96.64532227 517.01233887 -97.75048828 516.37475586 C-99.91557071 515.12564482 -102.08060982 513.87645871 -104.24560547 512.62719727 C-109.68615706 509.48797691 -115.12747216 506.35009437 -120.5703125 503.21484375 C-131.02206199 497.19252671 -141.46299548 491.15330663 -151.875 485.0625 C-160.55262241 479.98724877 -169.26605568 474.97741233 -178 470 C-187.70860463 464.46713573 -197.38388774 458.88062854 -207.02954102 453.23852539 C-214.65200716 448.78130441 -222.29015481 444.3518432 -229.9375 439.9375 C-231.0095166 439.3180249 -232.0815332 438.6985498 -233.18603516 438.06030273 C-234.20616699 437.47192627 -235.22629883 436.8835498 -236.27734375 436.27734375 C-237.61140259 435.50765259 -237.61140259 435.50765259 -238.97241211 434.72241211 C-241.53665785 433.26359801 -244.10972205 431.82389439 -246.68922424 430.39234924 C-247.49721749 429.94382882 -248.30521074 429.4953084 -249.13768864 429.03319645 C-250.05953276 428.52176421 -250.05953276 428.52176421 -251 428 C-251.20595025 391.54014677 -251.36456141 355.08039544 -251.45958797 318.6200804 C-251.47084447 314.3167063 -251.48249336 310.01333333 -251.49438477 305.70996094 C-251.49674556 304.85322836 -251.49910635 303.99649578 -251.50153869 303.11380161 C-251.54071251 289.23727793 -251.61167988 275.36108944 -251.69437516 261.48476468 C-251.77850647 247.2488604 -251.82852202 233.01313179 -251.84679645 218.7769891 C-251.85915268 209.99061552 -251.89819112 201.20518927 -251.9712482 192.41910727 C-252.01878256 186.39605875 -252.03321029 180.37350071 -252.0215124 174.35027818 C-252.01574078 170.87352747 -252.02465116 167.39843301 -252.07284927 163.92197609 C-252.11750176 160.15237214 -252.10691739 156.38685142 -252.08229065 152.61715698 C-252.10850622 151.51793187 -252.1347218 150.41870676 -252.16173178 149.28617179 C-252.03340396 142.04114528 -252.03340396 142.04114528 -249.03110301 139.01635385 C-246.74537337 137.46984517 -244.48064153 136.2030105 -242 135 C-240.99453125 134.40348633 -239.9890625 133.80697266 -238.953125 133.19238281 C-238.06109375 132.70092773 -237.1690625 132.20947266 -236.25 131.703125 C-234.73321655 130.86213257 -234.73321655 130.86213257 -233.18579102 130.00415039 C-232.13447998 129.42528076 -231.08316895 128.84641113 -230 128.25 C-222.81107379 124.25824176 -215.63363437 120.26001356 -208.5625 116.0625 C-201.59230165 111.92682031 -194.58498988 107.85878933 -187.5625 103.8125 C-186.45527588 103.17449463 -185.34805176 102.53648926 -184.20727539 101.87915039 C-181.93662932 100.57110523 -179.66587642 99.26324552 -177.39501953 97.95556641 C-171.9283002 94.80667946 -166.46425113 91.65316736 -161 88.5 C-158.83334689 87.2499765 -156.66668021 85.99997653 -154.5 84.75 C-153.4275 84.13125 -152.355 83.5125 -151.25 82.875 C-115.5 62.25 -115.5 62.25 -112.24951172 60.37475586 C-110.08442929 59.12564482 -107.91939018 57.87645871 -105.75439453 56.62719727 C-100.31384294 53.48797691 -94.87252784 50.35009437 -89.4296875 47.21484375 C-78.97793808 41.19252675 -68.53699707 35.15331935 -58.125 29.0625 C-48.05171347 23.170832 -37.93034386 17.36644069 -27.78955078 11.59204102 C-26.13802002 10.65122681 -26.13802002 10.65122681 -24.453125 9.69140625 C-23.38126953 9.08570801 -22.30941406 8.48000977 -21.20507812 7.85595703 C-19.01855744 6.58981365 -16.85617345 5.28128091 -14.71679688 3.93701172 C-13.67072266 3.28619629 -12.62464844 2.63538086 -11.546875 1.96484375 C-10.62229492 1.37179443 -9.69771484 0.77874512 -8.74511719 0.16772461 C-5.2661001 -1.31218812 -3.60604157 -1.05003733 0 0 Z " fill="#E51F25" transform="translate(264,13)"/>
<path d="M0 0 C5.51669386 3.92948864 10.57461033 8.21852647 15.5703125 12.7890625 C17.64063538 14.67298975 19.74325614 16.4991909 21.875 18.3125 C38.68605136 33.05606319 60.14461308 55.63932422 62.19091797 79.19799805 C62.26787805 81.59356918 62.27297089 83.9783701 62.25 86.375 C62.26160156 87.57382813 62.26160156 87.57382813 62.2734375 88.796875 C62.2450082 97.58152801 60.4581128 104.92958568 56.375 112.6875 C56.06949219 113.29271484 55.76398438 113.89792969 55.44921875 114.52148438 C49.7215302 125.69387291 43.29404714 136.32073999 36.21636963 146.68240356 C17.7074063 173.8329625 5.31534863 198.87489836 11 232.6875 C14.3037789 246.64712914 20.64194274 259.84901443 27.23828125 272.51953125 C28.98487807 275.97012498 30.51501437 279.4314653 32 283 C29.1913803 281.68974769 26.86221511 280.23238669 24.4609375 278.27734375 C23.80287109 277.74343018 23.14480469 277.2095166 22.46679688 276.65942383 C21.77650391 276.09118896 21.08621094 275.5229541 20.375 274.9375 C19.30475586 274.05904419 19.30475586 274.05904419 18.21289062 273.1628418 C-0.02079954 258.12417268 -17.44301021 239.75724384 -20.71484375 215.234375 C-23.00300954 189.28093293 -14.78586941 167.65633149 -3 145 C-2.11054688 143.2675 -2.11054688 143.2675 -1.203125 141.5 C3.55170311 132.39673935 8.71741654 123.55197202 13.98876953 114.73828125 C26.41953278 93.74503264 30.21130175 73.8454431 24.5390625 50.01416016 C20.36252143 34.40887762 11.70724763 19.59882057 2.74291992 6.28881836 C0 2.19255268 0 2.19255268 0 0 Z " fill="#FEF8F6" transform="translate(244,105)"/>
<path d="M0 0 C5.14033365 0.76153091 7.12468828 3.61893472 10.375 7.5 C11.13941406 8.41136719 11.90382812 9.32273437 12.69140625 10.26171875 C21.55303141 21.31448128 30.11932 33.87732063 34.375 47.5 C34.67019531 48.39332031 34.96539062 49.28664062 35.26953125 50.20703125 C39.39053052 64.26359039 38.65279332 78.83109965 31.703125 91.82421875 C30.68630373 93.61723947 29.65997288 95.40489518 28.625 97.1875 C17.58565418 116.87022143 9.85096618 137.32587856 5.1015625 159.421875 C4.375 162.5 4.375 162.5 3.375 163.5 C0.625 163.921875 0.625 163.921875 -2.625 163.5 C-4.65173818 161.58448526 -6.05068382 159.99074836 -7.625 157.75 C-8.26900757 156.86852295 -8.26900757 156.86852295 -8.92602539 155.96923828 C-19.43404035 141.21330239 -23.25108282 126.41825721 -21.625 108.5 C-19.13211644 94.24823171 -10.88226497 81.28732436 -3.14624023 69.31396484 C5.00745549 56.43970844 8.66282031 42.16134696 5.69140625 27.015625 C3.80168553 20.46041122 1.12123361 14.74140903 -2.453125 8.9375 C-3.76132813 6.21643749 -3.93564042 4.48214804 -3.625 1.5 C-2.625 0.5 -2.625 0.5 0 0 Z " fill="#FEFAF8" transform="translate(189.625,114.5)"/>
<path d="M0 0 C11.89971285 11.56153273 24.55529974 28.26932207 25.30078125 45.5234375 C25.31521989 47.14056526 25.31895838 48.75782068 25.3125 50.375 C25.32861328 51.17421875 25.34472656 51.9734375 25.36132812 52.796875 C25.36877687 62.00352587 22.05473188 69.53634801 17.8125 77.5625 C17.38960693 78.36550537 16.96671387 79.16851074 16.53100586 79.99584961 C11.59087915 89.11534954 5.72847224 97.60792454 -0.0859375 106.18359375 C-18.31849957 133.11705614 -32.57789667 160.63890059 -26.390625 194.31689453 C-25.05519897 199.71225417 -23.38468508 204.97085585 -21.43725586 210.17602539 C-21 212 -21 212 -22 215 C-38.4729359 195.72582881 -42.87710072 176.96506934 -41 152 C-37.75282682 129.54732392 -24.19559635 108.59808776 -12.66943359 89.4855957 C1.03887373 66.73539127 10.68514637 43.75244798 4.66479492 16.72558594 C3.84927303 13.45759679 2.95306151 10.23136549 2 7 C1.62120171 5.67612234 1.24355049 4.3519158 0.8671875 3.02734375 C0.58101563 2.02832031 0.29484375 1.02929688 0 0 Z " fill="#E52428" transform="translate(273,142)"/>
<path d="M0 0 C13.5129937 9.82763178 27.228106 28.29875632 30 45 C31.24693654 63.46653641 25.59553566 76.88323893 15.4375 91.9375 C3.34559758 110.0649921 -0.22092978 130.67456621 -2 152 C-12.21584504 143.83593282 -19.71657843 132.21313341 -21.546875 119.07421875 C-22.63440249 100.30404492 -12.38307356 84.32441371 -3.36010742 68.67529297 C-1.52912041 65.47382953 0.24631672 62.24431406 2 59 C2.71929687 57.69482422 2.71929687 57.69482422 3.453125 56.36328125 C10.1273174 41.76936054 6.28567619 22.78089049 2 8 C1.31377203 5.33782893 0.65635391 2.66976387 0 0 Z " fill="#FEF8F6" transform="translate(329,179)"/>
<path d="M0 0 C9.42124704 11.90935086 14.72483447 27.86596848 13 43 C11.37363384 52.39134747 6.93058655 60.02358361 2.28540039 68.2043457 C-6.72333424 84.19368624 -12.64631356 101.21264145 -17 119 C-20.48210298 115.90311883 -22.27001213 112.85431772 -24.1875 108.625 C-24.69667969 107.52414063 -25.20585937 106.42328125 -25.73046875 105.2890625 C-30.52205964 92.87515627 -28.80080307 78.1034331 -24 66 C-20.47855068 58.19228982 -16.05094278 50.99010051 -11.3125 43.875 C-3.88668733 32.70551759 -1.07924832 21.8176622 -0.4375 8.625 C-0.39431641 7.79355469 -0.35113281 6.96210938 -0.30664062 6.10546875 C-0.20138195 4.07046772 -0.10026928 2.03525297 0 0 Z " fill="#E52528" transform="translate(205,145)"/>
<path d="M0 0 C5.82173271 7.22295204 7.71481047 15.51968247 7.37890625 24.67578125 C6.07767112 36.09177189 1.05868704 45.17623144 -5.08447266 54.67724609 C-14.12665315 68.69872216 -19.9049962 83.58174177 -23 100 C-25.53632772 98.73183614 -25.66440085 97.93716737 -26.625 95.3125 C-30.76465918 81.82660001 -27.07505501 69.6301082 -20.72265625 57.609375 C-18.23040126 53.02518806 -15.63112988 48.50558171 -13 44 C-5.88922029 31.8176042 -1.22332463 21.87290226 -0.4375 7.625 C-0.39431641 6.88894531 -0.35113281 6.15289062 -0.30664062 5.39453125 C-0.20156201 3.59651932 -0.10037907 1.79828042 0 0 Z " fill="#E6292B" transform="translate(344,210)"/>
<path d="M0 0 C2.31 0 4.62 0 7 0 C7.66 6.93 8.32 13.86 9 21 C10.76572371 14.01736532 12.47489178 7.03896101 14 0 C15.65 0 17.3 0 19 0 C20.32 7.92 21.64 15.84 23 24 C23.99 16.08 24.98 8.16 26 0 C27.98 0 29.96 0 32 0 C31.44027094 9.72003611 30.37941943 19.24522007 28.9375 28.875 C28.75123047 30.14730469 28.56496094 31.41960937 28.37304688 32.73046875 C27.9199217 35.82101479 27.46219172 38.91079922 27 42 C24.69 42 22.38 42 20 42 C19.91435791 41.38479492 19.82871582 40.76958984 19.74047852 40.13574219 C19.35003829 37.34017963 18.95630373 34.54509064 18.5625 31.75 C18.42779297 30.78191406 18.29308594 29.81382812 18.15429688 28.81640625 C17.95610352 27.41455078 17.95610352 27.41455078 17.75390625 25.984375 C17.63345947 25.12553711 17.5130127 24.26669922 17.38891602 23.38183594 C17.03808031 21.23321503 16.52801835 19.11207342 16 17 C14.68 25.25 13.36 33.5 12 42 C10.02 42 8.04 42 6 42 C3.90063313 34.53873667 2.90710163 26.98445541 1.875 19.3125 C1.69324219 18.00732422 1.51148438 16.70214844 1.32421875 15.35742188 C-0.11565146 4.80739541 -0.11565146 4.80739541 0 0 Z " fill="#FEF8F6" transform="translate(129,414)"/>
<path d="M0 0 C1.98 0 3.96 0 6 0 C6 5.94 6 11.88 6 18 C8.31 18 10.62 18 13 18 C13 12.06 13 6.12 13 0 C14.98 0 16.96 0 19 0 C19 13.86 19 27.72 19 42 C17.02 42 15.04 42 13 42 C13 35.73 13 29.46 13 23 C10.69 23 8.38 23 6 23 C6 29.27 6 35.54 6 42 C4.02 42 2.04 42 0 42 C0 28.14 0 14.28 0 0 Z " fill="#FEFAF8" transform="translate(298,414)"/>
<path d="M0 0 C1.98 0 3.96 0 6 0 C7.28446287 5.65937983 8.56614153 11.31938011 9.84521484 16.97998047 C10.28096785 18.90658718 10.71748863 20.83302039 11.15478516 22.75927734 C11.78228222 25.52396394 12.40703864 28.28925746 13.03125 31.0546875 C13.22811401 31.9193161 13.42497803 32.7839447 13.62780762 33.67477417 C15 39.77225659 15 39.77225659 15 42 C12.69 42 10.38 42 8 42 C7.67 39.36 7.34 36.72 7 34 C4.36 33.67 1.72 33.34 -1 33 C-1.144375 34.299375 -1.28875 35.59875 -1.4375 36.9375 C-1.875 40.875 -1.875 40.875 -3 42 C-4.99958364 42.04080783 -7.00045254 42.04254356 -9 42 C-8.39062833 36.47503017 -7.45779994 31.18066046 -6.15234375 25.78125 C-5.88811363 24.66623108 -5.88811363 24.66623108 -5.61854553 23.52868652 C-5.06216114 21.18482642 -4.49993984 18.84241354 -3.9375 16.5 C-3.55625164 14.89853005 -3.1753887 13.2969683 -2.79492188 11.6953125 C-1.86772899 7.79580058 -0.9353034 3.89757419 0 0 Z " fill="#FDF6F3" transform="translate(362,414)"/>
<path d="M0 0 C1.65 0 3.3 0 5 0 C5.96137229 3.96498827 6.92161002 7.93024953 7.88085938 11.89575195 C8.20640441 13.240877 8.5322435 14.58593091 8.85839844 15.9309082 C9.91419104 20.28524304 10.96119333 24.64158225 12 29 C12.22204102 29.92699707 12.44408203 30.85399414 12.67285156 31.80908203 C13.49044112 35.32673587 14 38.36785059 14 42 C12.02 42 10.04 42 8 42 C7.67 39.03 7.34 36.06 7 33 C4.03 33 1.06 33 -2 33 C-2.33 35.97 -2.66 38.94 -3 42 C-4.98 42 -6.96 42 -9 42 C-8.3763982 34.23096095 -6.73393016 26.7630236 -4.98876953 19.1862793 C-4.49576485 17.0440976 -4.01101455 14.9001658 -3.52734375 12.75585938 C-1.14601324 2.29202648 -1.14601324 2.29202648 0 0 Z " fill="#FEF8F6" transform="translate(176,414)"/>
<path d="M0 0 C5.94 0 11.88 0 18 0 C18 1.98 18 3.96 18 6 C14.37 6 10.74 6 7 6 C7 9.96 7 13.92 7 18 C10.3 18 13.6 18 17 18 C17 19.98 17 21.96 17 24 C13.7 24 10.4 24 7 24 C7 27.63 7 31.26 7 35 C10.63 35 14.26 35 18 35 C18 37.31 18 39.62 18 42 C12.06 42 6.12 42 0 42 C0 28.14 0 14.28 0 0 Z " fill="#FCECE7" transform="translate(328,414)"/>
<path d="M0 0 C3.0625 2.0625 3.0625 2.0625 5 5 C5.3125 8.8125 5.3125 8.8125 5 12 C3.02 12 1.04 12 -1 12 C-1.33 10.02 -1.66 8.04 -2 6 C-3.98 6.66 -5.96 7.32 -8 8 C-8.41746608 10.87364791 -8.41746608 10.87364791 -8 14 C-5.90924342 15.77401355 -5.90924342 15.77401355 -3 17 C3.83453237 20.66906475 3.83453237 20.66906475 5 23 C5.14851844 24.93359586 5.22130833 26.87342097 5.25 28.8125 C5.27578125 29.85019531 5.3015625 30.88789063 5.328125 31.95703125 C4.95408344 35.42582145 4.07568054 37.22110993 2 40 C-1.68497796 42.45665197 -4.71971786 42.70086491 -9 42 C-11.8100346 40.20636089 -13.50940468 38.98119065 -15 36 C-15.039992 34.00039988 -15.04346799 31.99952758 -15 30 C-13.02 30 -11.04 30 -9 30 C-8.34 31.65 -7.68 33.3 -7 35 C-4.525 34.505 -4.525 34.505 -2 34 C-2 31.03 -2 28.06 -2 25 C-2.68707031 24.68546875 -3.37414062 24.3709375 -4.08203125 24.046875 C-4.98308594 23.61890625 -5.88414062 23.1909375 -6.8125 22.75 C-7.70582031 22.33234375 -8.59914062 21.9146875 -9.51953125 21.484375 C-12.19480877 19.88342152 -13.47584501 18.70685967 -15 16 C-15.87667144 11.14276636 -15.71427993 7.16665722 -13.125 2.9375 C-9.15383604 -0.68326714 -5.19359257 -0.77903888 0 0 Z " fill="#FEF9F7" transform="translate(213,414)"/>
<path d="M0 0 C5.61 0 11.22 0 17 0 C17 1.98 17 3.96 17 6 C13.37 6 9.74 6 6 6 C6 9.96 6 13.92 6 18 C9.3 18 12.6 18 16 18 C16 19.65 16 21.3 16 23 C12.37 23 8.74 23 5 23 C5 27.29 5 31.58 5 36 C8.96 36 12.92 36 17 36 C17 37.65 17 39.3 17 41 C11.39 41 5.78 41 0 41 C0 27.47 0 13.94 0 0 Z " fill="#FEFBFA" transform="translate(254,414)"/>
<path d="M0 0 C6.6 0 13.2 0 20 0 C20 1.98 20 3.96 20 6 C18.02 6 16.04 6 14 6 C14 17.88 14 29.76 14 42 C11.69 42 9.38 42 7 42 C7 30.12 7 18.24 7 6 C4.69 6 2.38 6 0 6 C0 4.02 0 2.04 0 0 Z " fill="#FCEBE5" transform="translate(225,414)"/>
<path d="M0 0 C6.6 0 13.2 0 20 0 C20 1.98 20 3.96 20 6 C17.69 6 15.38 6 13 6 C13 17.88 13 29.76 13 42 C11.02 42 9.04 42 7 42 C7 30.12 7 18.24 7 6 C4.69 6 2.38 6 0 6 C0 4.02 0 2.04 0 0 Z " fill="#FEFBFA" transform="translate(379,414)"/>
<path d="M0 0 C3.53790403 3.69172595 3.59115883 7.09390595 4 12 C2.02 12 0.04 12 -2 12 C-1.85831863 10.56208484 -1.71148957 9.1246763 -1.5625 7.6875 C-1.48128906 6.88699219 -1.40007812 6.08648437 -1.31640625 5.26171875 C-1 3 -1 3 0 0 Z " fill="#EA4E46" transform="translate(364,429)"/>
<path d="M0 0 C2.18994248 3.28491373 2.35277339 4.83095639 2.625 8.6875 C2.69976562 9.68136719 2.77453125 10.67523438 2.8515625 11.69921875 C2.90054688 12.45847656 2.94953125 13.21773438 3 14 C1.35 14 -0.3 14 -2 14 C-1.85795259 12.41632253 -1.71119847 10.83306682 -1.5625 9.25 C-1.48128906 8.36828125 -1.40007812 7.4865625 -1.31640625 6.578125 C-1.03761535 4.30649548 -0.61209423 2.20148177 0 0 Z " fill="#E8423B" transform="translate(178,427)"/>
</svg>
